<?xml version="1.0" encoding="utf-8"?>
<!-- Generator: Adobe Illustrator 21.0.2, SVG Export Plug-In . SVG Version: 6.00 Build 0)  -->
<svg version="1.1" id="Layer_1" xmlns="http://www.w3.org/2000/svg" xmlns:xlink="http://www.w3.org/1999/xlink" x="0px" y="0px"
	 viewBox="0 0 100 125" style="enable-background:new 0 0 100 125;" xml:space="preserve">
<polygon points="89.1,-62.6 91.2,-62.4 89.1,-64.7 "/>
<path d="M50.2-31.2c0.6,0,1.1-0.5,1.1-1.1c0-0.6-0.5-1.1-1.1-1.1h-5.4c-0.6,0-1.1,0.5-1.1,1.1c0,0.6,0.5,1.1,1.1,1.1H50.2z"/>
<path d="M93.9-66.5c-0.1-0.1-2.9-3-6-3.7L87.2-74c0,0,0,0,0,0c-0.2-0.9-1-0.8-1.2-0.8l-0.1,0c-0.2,0-3.6,0.8-5.6,3.9
	c-1.1,0.2-4,0.8-7.2,0.8c-2.1,0-3.9-0.2-5.4-0.7c-1.3-0.4-2.3-0.6-3.5-0.6c-0.9,0-1.7,0.1-2.6,0.2c-1.2,0.2-2.5,0.3-4.5,0.3
	c-3.1,0-7-0.5-11.8-1.4c-1.9-0.4-3.7-0.6-5.4-0.6c-12.9,0-17,10.5-17.2,11c-0.1,0.2-6.7,17.2-17.3,14c-0.2-0.1-1.3-0.4-2.3,0.2
	c-0.6,0.3-1,0.8-1.2,1.5c-0.3,0.9,0,1.5,0.2,1.9c0.5,0.9,1.5,1.1,1.9,1.2c0.4,0.1,2,0.6,4.1,0.6c3,0,7.2-0.9,10.9-4.7
	c2.9-3,4.6-5.3,5.7-7c0.5,3.5,0.4,7.4-2.3,9.5l0,0c0,0-0.6,0.5-0.4,1.6l1.3,9.6h-2.9h-0.8c-0.6,0-1.1,0.5-1.1,1.1
	c0,0.6,0.5,1.1,1.1,1.1h0.8h3.2h11.4h5.1h0.5c0.6,0,1.1-0.5,1.1-1.1c0-0.6-0.5-1.1-1.1-1.1h-0.5h-5c-0.1-1-0.4-2-1.2-3
	c-1-1.1-2.6-1.6-4.5-1.3c-0.3-1.2-0.6-3.3,1.5-4.6c3.5-2.2,5.2-4.5,6.7-8.8c2.4,1.5,8.2,4.4,15.6,4.4c3.9,0,7.7-0.8,11.4-2.4
	c-0.1,3.5,0.2,10.8,4.2,15.6h-3.5h-0.5c-0.6,0-1.1,0.5-1.1,1.1c0,0.6,0.5,1.1,1.1,1.1h0.5h4h2.1h10.2h4.3h3.3h1.1
	c0.6,0,1.1-0.5,1.1-1.1c0-0.6-0.5-1.1-1.1-1.1h-1.1h-3.3h-4.5c-0.4-1.9-1.7-4.4-4.8-4.4c-0.5,0-1.1,0.1-1.6,0.2
	c-0.5-1.8-1-4.6,0-5.6c1.9-1.9,6-8.1,6.9-12c0.2,0,0.4,0,0.6,0c1.8,0,6.2,0.2,8.7,2.2l0.3,0.3l0.4,0c1.7-0.1,5-1.4,5.6-5.1l0.1-0.3
	L94-66.4L93.9-66.5z M17.5-48.7C11.9-42.9,5-45,4.7-45.1l-0.2,0c-0.2,0-0.4-0.1-0.5-0.2c0,0,0,0,0-0.1c0.1-0.3,0.5-0.2,0.7-0.2
	c9.9,3,16.4-7.6,18.9-12.7c0.1,0.2,0.1,0.5,0.2,0.8C23.8-56.9,22.7-54,17.5-48.7z M31.2-45.2c-0.4-0.5-0.9-1.1-1.5-1.6
	c-0.3-0.1-0.9-0.3-1.3,0.4c-0.5,1,0.3,1.6,0.3,1.6s0,0,0,0c0.3,0.3,0.5,0.6,0.7,0.9c-3.3,2.3-2.6,6.3-1.7,8.1l0.4,0.8l0.9-0.2
	c1.6-0.4,2.7-0.3,3.3,0.4c0.4,0.4,0.6,0.8,0.6,1.5h-7.3l-1.3-9.8c2.4-2.2,3.1-5.5,2.9-8.7c0.7,0.5,1.5,1.2,2.2,2v0
	c0,0,0.6,0.8,1.5,0.3h0c0.9-0.5,0.3-1.5,0.2-1.6c-1.4-1.8-3.3-2.9-4.2-3.4c-0.5-3.1-1.5-5.7-1.9-6.7c0.5-1.1,2.1-4.3,5.7-6.6
	c-0.6,2.2-0.9,5.4,1,8.5c2.4,3.7,3.1,7.8,3.2,8.8C34.1-48.2,33-46.7,31.2-45.2z M74.3-45.9c-0.4-0.5-1-1-1.8-1.4
	c-0.1,0-1-0.4-1.3,0.6l0,0c-0.3,0.9,0.3,1.3,0.6,1.5c0,0,0.1,0,0.1,0c0,0,0,0,0,0s0,0,0,0c0.5,0.3,0.8,0.7,1,0.9
	c-0.5,0.8-0.7,1.7-0.7,2.7l-1.2,0.1l0.1,0c0,0-0.9,0.1-0.8,1.1c0.1,0.9,0.8,1.1,1,1.1l1-0.1c0.3,1.7,0.8,3.1,0.9,3.4l0.4,1.1
	l1.1-0.4c0.7-0.3,1.4-0.4,1.9-0.4c1.5,0,2.2,1.2,2.5,2.2h-7c-6.4-4.8-5.2-17.2-5.2-17.3l0-0.5c0,0,0,0,0,0c0.3-1.6-1.4-0.8-1.4-0.8
	l-0.2,0.1c-3.9,2-8,3-12.1,3c-9,0-15.5-4.8-15.6-4.8l-1.1-0.8c-0.5-1.8-1.4-4-2.8-6.2c-2.4-3.7-0.3-8.2,0-8.7c0.9-0.4,2-0.6,3.1-0.8
	c-0.6,1.8-1.1,5.3,1.6,9.1c1.8,2.5,2.5,4.8,2.8,6.1l0,0c0,0,0.3,1,1.3,0.8c0.9-0.2,0.9-1.1,0.8-1.2c-0.4-1.7-1.2-4.1-3.2-6.8
	c-3-4.2-1-7.9-0.9-8.1c0.2,0,0.5,0,0.7,0c0.8,0,1.7,0.1,2.6,0.2c0.3,1.1,1.1,4.5,1.4,7.7l0,0c0,0,0,1.1,1.2,1c1.1,0,1-1.1,1-1.1
	c-0.2-2.6-0.8-5.6-1.2-7.2c0,0,0,0,0,0c1.1,0.2,2.2,0.4,3.2,0.6c0.3,0.6,2.8,5.5,3,12.5l0,0c0,0,0,0,0,0c0,0,0,0,0,0
	c0,0.2,0.1,0.8,1.1,0.8l0,0c1,0,1.1-0.7,1.1-0.9c-0.1-5.6-1.6-9.9-2.5-12.1c1.9,0.2,3.5,0.5,5.1,0.5c0.5,1.5,1.5,5.8,1.6,13.2v0
	c0,0,0,0.9,1.1,0.9c1,0,1.1-0.7,1.1-0.9c-0.1-6.8-0.9-11.1-1.5-13.2c1.6,0,2.8-0.2,3.7-0.4c0.8-0.1,1.6-0.2,2.3-0.2
	c-0.3,1.7-0.8,5.6-0.1,8.4c0.1,0.1,0.5,0.8,1.4,0.4l0,0c1-0.4,0.7-1.2,0.7-1.2l0,0c-0.5-2.2-0.1-5.6,0.2-7.4c0.2,0,0.4,0.1,0.6,0.1
	c1.1,0.4,2.4,0.6,3.8,0.7c0.3,1.5,0.6,4.3-0.4,8.4c-1.4,6,3.4,10.1,5.3,11.5C75.3-47.3,74.8-46.5,74.3-45.9z M92.1-55.1
	c-2.9-2.1-7.2-2.4-9.7-2.4c-1,0-1.6,0.1-1.6,0.1l-0.2,0c-0.5,0-0.8,0.7-0.8,0.7l0,0.3c0,0.3-0.1,0.7-0.2,1.1l-0.9-0.8
	c0,0-0.8-0.6-1.5,0.3c-0.7,0.8,0.3,1.6,0.3,1.6l0,0l1.3,1.1c-0.5,1-1,2.1-1.7,3.1c-1.6-1.2-5.4-4.5-4.4-9.1c0.9-4,0.8-6.9,0.5-8.8
	c1.4,0,2.7-0.1,3.9-0.2c-0.2,1.3-0.3,3.4,0.3,6.2c0,0.1,0.3,0.8,1.2,0.6c1-0.2,0.9-1.1,0.9-1.1h0c-0.6-3.2-0.3-5.1-0.1-6
	c1.1-0.2,1.8-0.4,1.9-0.4l0.5-0.1l0.2-0.4c0.7-1.2,1.8-2,2.5-2.5v0c0,0,0.9-0.4,1,0.4l0.6,3.2l0.9,0.1c2.3,0.2,4.7,2.4,5.3,3l3,7.1
	C94.7-55.9,92.9-55.2,92.1-55.1z"/>
<g>
	<path d="M259,52.2c0.4-0.3,0.7-0.4,1-0.6c-2.2-1.9-4.3-3.6-6.4-5.5c-2.9-2.7-6.5-3.8-10.4-4.1c-1.5-0.1-1.5-0.1-2,1.2
		c-0.6,1.5-0.7,3.1-0.7,4.7c0,1.5-0.1,3.1-0.1,4.6c0,0.3,0.1,0.7,0.2,1c1.2,3.3,2,6.6,1.7,10.1c0,0.2,0,0.5-0.1,0.7
		c-0.1,0.7-0.4,1.2-1.2,1.1c-0.8-0.1-1-0.7-0.9-1.4c0.2-2.2,0-4.3-0.6-6.6c-0.6,2.6-0.6,4.9-0.4,7.3c0.2,2.4,0.6,4.8,0.9,7.2
		c0,0.1,0,0.2,0,0.4c0.1,0.7-0.2,1.2-0.9,1.3c-0.7,0.1-1.1-0.3-1.2-1c-1-5.9-1.7-11.8-0.3-17.7c0.5-2.1,0.5-4.4,0.5-6.5
		c-0.1-6,2.5-10.5,7-14.2c2-1.7,4.5-2.4,7.1-2.5c4.8-0.2,9.5,0.9,14.1,1.9c4.2,0.9,8.4,1,12.6-0.3c1.4-0.4,2.7-1.1,3.9-1.8
		c1.6-0.9,3.1-2,4.7-3c0.2-0.1,0.4-0.4,0.4-0.6c-0.1-0.6,0-1.2,0.7-1.4c0.5-0.1,1,0.2,1.5,0.4c0.7-0.1,1.2-0.4,1-1.4
		c-0.1-0.3,0.4-0.9,0.7-1c0.3-0.1,0.8,0.2,1.2,0.3c0.1,0.1,0.2,0.3,0.3,0.5c0.5-0.2,1-0.5,1.6-0.7c-0.1-0.6-0.2-1.1-0.3-1.6
		c-0.1-0.7,0.1-1.2,0.8-1.4c0.7-0.2,1.1,0.2,1.3,0.9c0.1,0.3,0.2,0.7,0.3,1.1c0.6-0.2,1.2-0.4,1.8-0.7c-0.2-0.7-0.4-1.4-0.6-2.2
		c-0.2-0.9,0-1.5,0.7-1.7c0.6-0.2,1.2,0.2,1.4,1.1c0.1,0.5,0.3,1.1,0.5,1.6c0,0.1,0.1,0.1,0.2,0.3c0.6-0.2,1.3-0.4,2-0.7
		c-0.1-0.7-0.2-1.4-0.3-2c-0.1-0.7,0.1-1.3,0.8-1.4c0.6-0.1,1.1,0.3,1.3,1.2c0.1,0.5,0.2,1,0.3,1.6c0.8-0.3,1.6-0.5,2.4-0.8
		c-0.2-0.7-0.4-1.3-0.5-1.9c-0.2-0.7,0-1.2,0.7-1.4c0.7-0.2,1.1,0.1,1.3,0.8c0.1,0.3,0.2,0.6,0.3,1c1.6-1.2,3.5-1.7,5.4-1.8
		c1.2,0,1.6,0.6,1.2,1.7c-0.4,1-1.1,1.9-1,2.9c0.1,0.9,1,1.7,1.5,2.5c0.5,0.9,0.9,1.9,1.3,2.8c1,2.8,2.1,5.4,3.9,7.8
		c1.1,1.5,1.6,3.1,1,4.9c-0.6,1.8-1.8,2.6-3.7,2.4c-1.6-0.1-3-0.7-4.4-1.6c-2.4-1.5-5-2.9-7.6-4.3c-2.3,2.3-4.6,4.5-6.7,6.7
		c-1.8,1.9-2.7,4.3-3.6,6.7c-0.6,1.6-1.3,3.1-2.3,4.5c-1.7,2.6-2.8,5.5-3.5,8.5c-1.1,4.9-2.1,9.9-2.3,15c0,0.1,0,0.1,0,0.2
		c-0.2,1.8,0,3.5,1.3,5c0.2,0.3,0.4,0.6,0.6,0.9c0.4,0.7,0.2,1.4-0.6,1.6c-1.5,0.5-3,0.6-4.6,0.2c-0.7-0.2-1.2-0.6-1-1.4
		c0.1-0.7,0.7-0.9,1.6-0.7c0.6,0.1,1.3,0.1,2.1,0.2c-0.8-1.4-1.3-2.7-3.1-2.6c-0.1,0.2-0.1,0.4-0.3,0.6c-0.4,0.6-1.3,0.7-1.6,0.1
		c-0.5-1-1.2-2-0.7-3.2c1.1-2.8,1.3-5.7,1.3-8.6c0-2,0.1-4,0.1-6c0-2.2-0.1-4.4-0.2-6.6c-7.2,0.5-14.1,0.1-20-4.9
		c-1.5,0.9-3.2,2-4.8,3c-0.3,0.2-0.5,0.4-0.7,0.7c-2,2.8-4,5.7-6,8.5c-1.2,1.6-1.8,3.5-1.8,5.5c0,2.5-0.1,4.9-0.1,7.4
		c0,0.8,0.4,1.6,0.8,2.3c0.9,1.3,1.9,2.6,2.8,3.9c0.8,1.1,0.5,2-0.9,2.1c-1.4,0.1-2.8,0.1-4.2,0c-0.9,0-1.4-0.6-1.3-1.3
		c0.1-0.7,0.6-1,1.6-0.8c0.5,0.1,1.1,0.1,1.6,0.2c0.2,0,0.3,0,0.6,0c-0.8-1.2-1.5-2.4-2.3-3.4c-0.3-0.4-1-0.4-1.4-0.6
		c-0.4-0.2-0.8-0.4-1.3-0.6c-0.4,0.6-0.3,1.1,0.3,1.6c0.9,0.9,1.1,1.5,0.6,2c-0.5,0.6-1.1,0.3-2.1-0.5c-1-0.9-1.1-1.8-1-3.1
		c0.3-4.2,0.3-8.4,0.3-12.6c0-1.7,0.1-3.4,0.9-4.8c1.7-3.2,1.2-6.3-0.4-9.4c-0.9-1.7-1.4-3.5-1.9-5.3c-0.2-0.6-0.2-1.3-0.1-1.9
		c0.1-0.4,0.5-0.8,0.8-1c0.3-0.1,0.7,0.3,1.1,0.5c0.3,0.1,0.5,0.4,0.7,0.5c0.9,0.2,1.8,0.3,2.7,0.5c2,0.3,3.8,1.1,5.5,2.4
		C255,49.4,257,50.8,259,52.2z M288.7,30.6c-1.3,0.4-1.3,0.5-1.1,1.6c0.6,3.3,0.9,6.6,0.4,10c-0.3,2.3-0.9,4.4-2.4,6.2
		c-0.5,0.6-1,0.8-1.6,0.3c-0.6-0.5-0.4-1-0.1-1.6c0.6-1.1,1.3-2.3,1.7-3.5c0.9-3.6,0.5-7.3-0.1-10.9c-1,0.3-1.3,0.8-1.2,1.8
		c0.5,3.6,0.2,7.2-1.5,10.6c-0.5,1-1,2.1-1.5,3.1c-1.1,2.3-0.7,4.6-0.4,7.1c0.6-0.1,1.1-0.1,1.7-0.2c-0.1-0.4-0.1-0.7-0.1-1
		c-0.2-0.8-0.3-1.7-0.5-2.5c-0.1-0.7,0.4-1.5,1-1.2c1.1,0.4,1.8-0.3,2.6-0.8c1-0.7,2.1-1.4,2.9-2.3c0.9-1,1.2-1.2,2.2-0.4
		c1.2,1,2.4,2,3.6,3c0.9-2,1-2-0.5-3.2c-2.7-2.1-3.8-4.8-4.1-8C289.3,35.9,288.9,33.3,288.7,30.6z M263.8,49
		c0.2-1.5-0.3-2.6-1.1-3.4c-1.2-1.2-2.5-2.5-3.9-3.4c-4-2.7-8.6-3.6-13.4-3.9c-1.4-0.1-1.6,0-2.2,1.5c0,0,0,0,0.1,0.1
		c0.6,0.1,1.1,0.1,1.7,0.2c3.6,0.5,6.9,1.6,9.7,4.1c1.7,1.5,3.5,3,5.2,4.5c0.5,0.5,1.2,0.8,1.9,1.4c-0.2-1.1-1-2.1,0.2-2.6
		C263.1,46.9,263.3,48.1,263.8,49z M246.3,36.2c1,0.1,1.7,0.2,2.5,0.3c4.8,0.6,9.2,2.2,13.1,5.2c1.4,1.1,2.6,2.3,3.4,3.9
		c0.8,1.6,1.1,3.3,0.3,5c-0.3,0.8,0,1.1,0.6,1.4c0.4-1.1,0.8-2.3,1.2-3.4c1-2.8,0.4-5.2-1.7-7.1c-1.2-1.1-2.5-2.1-4-2.8
		c-3-1.6-6.2-3.1-9.3-4.7c-0.2-0.1-0.4-0.2-0.6-0.2C249.8,34.1,248,34.8,246.3,36.2z M257.9,34.1c0,0.1,0,0.2-0.1,0.3
		c0.6,0.3,1.3,0.6,1.9,0.9c2.4,1.2,4.8,2.4,6.8,4.3c3.3,3,4.1,6.2,2.6,10.3c-0.3,0.9-0.6,1.8-0.9,2.7c-0.1,0.2,0,0.7,0.2,0.8
		c0.6,0.3,1.2,0.5,1.9,0.7c-0.1-2.9,0.6-5.4,1.2-8c0.2-0.9,0.2-1.8,0-2.7c-0.4-2.1-1.5-3.8-2.7-5.6c-0.8-1.3-1.8-2.1-3.4-2.3
		C263,35.1,260.5,34.5,257.9,34.1z M277.3,36c-0.8-0.1-1.2,0.2-1.5,0.9c-0.6,1.5-1.3,2.9-2,4.3c-0.1,0.3-0.3,0.7-0.2,1.1
		c0.4,1.7,0.3,3.3-0.1,5c-0.5,2.1-0.7,4.3-1,6.5c0,0.3,0.1,0.8,0.3,0.8c0.7,0.2,1.4,0.3,2,0.4c0-1.6-0.2-3,0-4.4
		c0.4-2.1,1-4.2,1.7-6.3C277.4,41.6,277.3,38.8,277.3,36z M279.6,35.4c-0.2,2.5-0.2,5-0.6,7.4c-0.3,1.7-1,3.3-1.5,4.9
		c-0.7,2.1-1.1,4.3-0.5,6.6c0.3,1.1,0.4,1.2,1.6,1c0-0.2,0-0.4,0-0.6c-0.4-3.2-0.2-6.2,1.5-9c0.4-0.6,0.6-1.3,0.9-1.9
		c1.4-2.8,1.5-5.8,1.2-8.9c0-0.1-0.1-0.2-0.2-0.3C281.2,34.9,280.3,35.2,279.6,35.4z M295.7,26.8c-0.4,0.2-0.7,0.4-1,0.5
		c-0.7,0.2-0.8,0.6-0.7,1.2c0.3,1,0.3,2,0.6,3c0.7,2.9,1.4,5.9,2.2,8.8c0.2,0.7,0.6,1.3,1,2.1c0.5-0.6,0.9-1.1,1.3-1.5
		c0.4-0.4,0.5-0.8,0.4-1.3c-0.6-1.8-1-3.7-1.6-5.5C297.1,31.6,296.4,29.3,295.7,26.8z M291.7,28.7c-0.5,0.3-1.2,0.3-1.1,1.3
		c0.4,2.9,0.8,5.9,1,8.8c0.3,2.9,1.6,5.2,4.3,6.9c0.1-0.6,0.5-1.4,0.3-1.7c-1.2-1.6-1.8-3.4-2.2-5.3
		C293.2,35.4,292.5,32.1,291.7,28.7z M301.4,38.5c1.1-0.8,1.1-0.8,1.2-2.1c0.2-4-1.5-7.6-2.9-11.3c-0.7,0.3-1.4,0.5-2,0.8
		C298.9,30.2,300.1,34.3,301.4,38.5z M257.1,53.5c-1.9-1.3-3.7-2.6-5.5-4c-2.1-1.6-4.6-2-7.3-2.3c0.3,0.8,0.5,1.4,0.7,2.1
		c0.1,0.5,0.5,0.7,1,0.8c3.7,0.6,7.2,1.7,10,4.4C256.4,54.2,256.8,53.8,257.1,53.5z M316.7,30.1c-1-2.1-1.8-4-2.8-5.8
		c-0.5-0.9-1.9-0.9-2.6-0.2c-0.1,0.1-0.2,0.3-0.2,0.5c0,1.3,0.1,2.6,0.1,3.9c0,0.3,0.2,0.7,0.5,0.8
		C313.2,30.1,314.7,30.3,316.7,30.1z M254.7,56.5c-2.2-2.6-5.1-3.4-8.3-4.1c0.3,0.7,0.5,1.3,0.7,1.9c0.1,0.3,0.3,0.6,0.5,0.7
		c1.8,0.9,3.6,1.7,5.4,2.6c0.5,0.2,0.8,0.1,1.1-0.3C254.3,57,254.5,56.8,254.7,56.5z M293.2,51.9c-1.2-1-2.3-2-3.2-2.8
		c-2,1.3-3.8,2.5-5.7,3.7c0.1,0.3,0.2,0.8,0.3,1.4c2.5-1.3,4.8-2.8,7.6-0.7C292.5,52.9,292.8,52.5,293.2,51.9z M307.5,34
		c0.1,0,0.2,0,0.3,0c1.1-3.9,2.4-7.8,0.2-11.8c-0.8,0.2-1.6,0.5-2.4,0.8c0.5,1.3,0.9,2.6,1.3,3.8c1.6-0.2,2,0.5,1.5,1.9
		c-0.4,1-0.7,1.9-0.9,2.9C307.3,32.5,307.5,33.3,307.5,34z M301.7,24.4c1.4,3.6,2.8,7,3.2,10.8c0.3-0.4,0.5-0.8,0.5-1.2
		c0.1-1.3,0.1-2.5,0.2-3.8c0-0.3,0.1-0.6,0-0.8c-0.7-1.9-1.4-3.7-2.1-5.6C302.9,23.9,302.3,24.1,301.7,24.4z M289.6,58.2
		c0,0,0.2-0.2,0.3-0.4c0.3-0.6,0.5-1.3,0.8-1.9c0.2-0.5,0.1-0.9-0.3-1c-0.4-0.2-1-0.4-1.3-0.3c-1.3,0.5-2.6,1.1-3.8,1.7
		c-0.2,0.1-0.2,0.8-0.2,1.2c0,0.2,0.4,0.4,0.6,0.4C287,58,288.1,58.1,289.6,58.2z M288.2,63.9c0.3-1.2,0.5-2.3,0.9-3.6
		c-1.3-0.1-2.4-0.2-3.6-0.2c0,0.9,0,1.5,0,2.2c0,0.2,0.1,0.5,0.3,0.5C286.6,63.2,287.4,63.5,288.2,63.9z M247.9,57.5
		c-0.1,0.6-0.2,1.2-0.3,1.7c0,0.2,0.1,0.5,0.3,0.6c1,0.6,2.1,1.1,3.2,1.7c0.5-0.7,0.9-1.3,1.4-1.9C250.9,58.9,249.4,58.2,247.9,57.5
		z M313.4,36.3c1.4-1.1,2.7-2.2,4-3.3c0.1-0.1,0.2-0.4,0.2-0.5c-0.1-0.1-0.3-0.3-0.5-0.3c-0.7,0-1.4,0-2,0.1c-0.3,0-0.6,0.3-0.7,0.5
		C314,34,313.7,35.2,313.4,36.3z M246.7,61.7c-0.3,0.9-0.6,1.6-0.8,2.5c1,0.2,1.8,0.4,2.7,0.6c0.2,0,0.5-0.1,0.6-0.2
		c0.3-0.3,0.4-0.7,0.7-1.2C248.8,62.8,247.8,62.3,246.7,61.7z M310.8,31.3c-0.3,1-0.5,1.9-0.7,2.8c-0.4,1.5-0.3,1.5,1.2,2
		c0.4-1.4,0.7-2.8,1.1-4.2C311.8,31.7,311.4,31.5,310.8,31.3z M313.3,19c-1,0.5-1.8,0.9-2.6,1.4c-0.6,0.4-0.8,0.9-0.3,1.5
		C312,21.7,313.2,21.2,313.3,19z M272.5,39.3c0.4-1,0.9-1.9,1.3-2.9c-1.1,0-2.1,0-3.2,0c0.6,0.9,1.1,1.8,1.6,2.6
		C272.3,39.1,272.3,39.1,272.5,39.3z M314.9,38c0.1,0.1,0.1,0.2,0.2,0.3c1.1,0,3.8-2,4-3c0-0.2-0.1-0.4-0.3-0.9
		C317.4,35.7,316.1,36.9,314.9,38z M287.4,67.7c0.5-1.4-0.3-2.4-2.1-2.6c0,0.6,0,1.2,0,1.8c0,0.2,0.2,0.5,0.4,0.5
		C286.3,67.6,286.9,67.6,287.4,67.7z M247.5,77.6c0.3-2.4,0.1-2.8-1.7-3C245.6,76.9,245.7,77,247.5,77.6z M245.8,66.4
		c0,0.7,0,1.4,0,2.1c0.7,0,1.3,0.1,2,0.1c0.1-0.6,0.2-1.1,0.3-1.7C247.3,66.7,246.6,66.5,245.8,66.4z M317.6,39.7
		c0.8,0.1,1.6,0.6,2.4,0c0.7-0.6,0.7-1.5,0.4-2.3C319.5,38.1,318.6,38.9,317.6,39.7z M245.9,70.6c-0.2,1.6,0.1,1.9,1.7,2.1
		c0-0.7,0-1.3,0-2C247,70.7,246.5,70.6,245.9,70.6z M287.1,69.9c-0.6-0.1-1.1-0.2-1.7-0.4c0,0.7,0,1.3,0,2c0.5,0,1,0,1.5,0.1
		C286.9,71,287,70.5,287.1,69.9z M286.1,79.2c0.3-1.5,0.1-1.8-1.5-2c-0.1,0.4-0.3,0.9-0.4,1.4C284.9,78.7,285.5,78.9,286.1,79.2z
		 M286.4,75.4c0.1-0.6,0.1-1.1,0.2-1.7c-0.5,0-0.9,0-1.3-0.1c-0.1,0.4-0.1,0.8-0.1,1.2C285.5,75.1,285.9,75.2,286.4,75.4z"/>
	<path d="M313.6,26.4c0.7,0,1.3,0.6,1.2,1.2c0,0.7-0.6,1.3-1.3,1.2c-0.7-0.1-1.1-0.5-1.2-1.2C312.3,27,312.9,26.4,313.6,26.4z"/>
</g>
<g>
	<path d="M-202.9,85.1c-0.5,3.1-0.3,6.2,0.3,9.2c0.3,1.5,0.5,2.9,0.8,4.4c0.1,0.8-0.1,1.5-1,1.6c-0.9,0.2-1.4-0.3-1.6-1.2
		c-0.8-4.1-1.8-8.1-1.4-12.3c0.2-1.7,0.5-3.5,0.6-5.2c0.2-2,0.3-3.9,0.3-5.9c0.1-2.8-0.2-5.6,0.2-8.3c0.7-4.7,3.3-8.2,7.5-10.5
		c3.8-2,7.9-3.1,12.1-4.2c2.6-0.7,5.2-1.4,7.8-2.2c2.3-0.7,4.2-2.1,6-3.6c0.2-0.2,0.3-0.5,0.3-0.8c0.2-1,0.8-1.5,1.8-1.2
		c0.8,0.2,1.3,0.1,1.4-0.9c0.1-1.1,0.7-1.5,2.2-1.2c0.2-0.4,0.5-0.9,0.8-1.3c-0.9-1.6-0.7-2,1-2.6c0.6-0.2,0.8-0.6,0.4-1.3
		c-0.7-1.1-0.4-1.8,0.9-2.2c0.7-0.2,1.1-1.3,0.7-1.9c-0.7-1-0.5-1.7,0.7-2.2c0.7-0.3,0.9-0.8,0.4-1.4c-0.8-1-0.6-1.7,0.6-2.2
		c0.6-0.3,0.8-0.5,0.3-1.1c-0.9-1.1-0.6-1.9,0.7-2.2c0.7-0.2,0.7-0.4,0.4-0.9c-0.6-1.1-0.4-1.7,0.8-2.1c0.8-0.3,0.8-0.6,0.3-1.3
		c-0.8-1-0.4-2,0.9-2.2c0.9-0.2,0.9-0.5,0.6-1.3c-0.2-0.4-0.2-1.1,0-1.5c0.2-0.3,0.8-0.4,1.3-0.6c0.4-0.1,0.9-0.2,1.5-0.4
		c-0.3-0.4-0.5-0.5-0.5-0.7c-0.1-0.6-0.3-1.2-0.1-1.7c0.3-0.7,1-0.7,1.7-0.4c0.3,0.1,0.8,0,1.4,0c-0.4-0.6-0.6-0.9-0.8-1.1
		c-0.5-0.7-0.5-1.3,0.2-1.9c0.6-0.5,1.3-0.4,1.9,0.2c0.8,0.8,1.5,1.6,2.3,2.3c0.6,0.6,0.9,1.2,0.4,1.9c-0.5,0.7-1.2,0.7-1.9,0.3
		c-0.1-0.1-0.2-0.1-0.3-0.1c-2.3,2.3-4.4,4.7-5.4,7.8c-0.2,0.6-0.2,1,0.2,1.5c0.4,0.4,0.7,0.9,0.9,1.4c0.6,1.1,0.4,2-0.4,2.4
		c-0.8,0.4-1.5,0-2.3-1.3c-0.9,3.1-1.7,6.3-2.6,9.5c0.3,0,0.6,0,0.8,0.1c0.4,0.4,1,0.8,1,1.2c0,0.5-0.6,1.3-1,1.3
		c-2-0.1-2.5,1.3-3,2.7c-0.4,1-0.9,2-1.4,2.9c0.9,0.4,1.7,0.7,2.4,1.1c0.7,0.4,1.1,1,0.6,1.8c-0.4,0.8-1.1,0.9-1.9,0.4
		c-1.4-0.9-2.8-1-4.1,0.3c-0.2,0.2-0.4,0.7-0.4,1c0.2,0.9,0.4,1.8,0.7,2.7c0.3,1.1,0,1.8-0.8,2.1c-0.8,0.2-1.4-0.3-1.7-1.4
		c-0.2-0.7-0.4-1.5-0.6-2.2c0-0.1-0.1-0.1-0.2-0.2c-0.4,0.3-0.9,0.6-1.4,1c0.4,0.8,0.7,1.6,1.2,2.3c0.4,0.7,0.4,1.4-0.2,2
		c-0.7,0.8-1.3,1.6-2,2.3c-0.5,0.6-1.2,0.7-1.8,0.2c-0.6-0.5-0.6-1.2-0.2-1.9c0.3-0.4,0.5-0.7,0.8-1c0.8-0.7,0.8-1.5,0-2.3
		c-0.8,0.4-1.5,0.9-2.4,1.4c0,0.1,0.1,0.3,0.1,0.4c-0.1,0.5,0,1.3-0.3,1.5c-0.3,0.3-1.1,0.2-1.6,0.1c-0.7-0.1-1.4-0.6-2.1-0.5
		c-1.5,0.1-2.2,0.9-2.5,2.5c-0.8,3.6-0.3,3-4,3.5c-0.4,0.1-0.9,0.3-1.2,0.1c-0.5-0.2-1.1-0.6-1.3-1.1c-0.3-0.7,0.2-1.3,0.9-1.5
		c0.4-0.1,0.9-0.2,1.3-0.2c1.6-0.2,1.6-0.2,1.7-2.1c-2.4,0.6-4.7,1.3-7.2,1.9c0.5,0.8,1,1.4,1.4,2c0.5,0.7,0.4,1.4-0.3,1.9
		c-0.7,0.5-1.3,0.2-1.8-0.4c-0.6-0.8-1.2-1.7-1.8-2.5c-2.1,0.9-4.2,1.8-5.8,3.5c0.3,0.3,0.5,0.8,0.8,0.9c0.6,0.2,1.2,0.4,1.8,0.4
		c0.2,0,0.5-0.6,0.5-1c0.2-0.9,0.6-1.5,1.6-1.3c0.9,0.1,1.2,0.8,1.1,1.6c-0.1,0.7-0.2,1.4-0.3,2.1c-0.1,0.7-0.6,1.2-1.3,1.2
		c-1.2,0.1-2.4,0.1-3.6,0.1c-0.4,0-0.8-0.3-1.1-0.6c-0.4-0.3-0.7-0.8-1-1.2c-1,1.3-1.6,2.7-1.6,4.2c-0.1,3.6,0,7.2,0,10.7
		c0,0.4,0.2,0.8,0.4,1.1c1.4,3.3,2.1,6.8,2,10.4c0,1.1-0.5,1.8-1.4,1.7c-1-0.1-1.2-0.8-1.3-1.7c-0.1-1.7-0.2-3.5-0.3-5.2
		C-202.6,85.1-202.8,85.1-202.9,85.1z"/>
	<path d="M-167.6,120c-0.1-0.2-0.1-0.4-0.1-0.4c-2-2.5-2.4-5.3-2.2-8.4c0.3-4.7,0.2-9.5,1-14.2c0.6-3.5,0.1-7.1,0.8-10.6
		c0.4-2.2,0.6-4.4,0.9-6.6c0-0.3-0.1-0.8-0.3-1c-0.6-0.4-1.2-0.9-0.8-1.7c0.3-0.5,1-0.8,1.6-1.1c0.5-2.2,2.3-3.7,3.8-5.5
		c1.3-1.5,2.6-3.1,3.9-4.6c0.7-0.8,0.8-1.8,0.5-2.8c-0.7,0-1.4,0-2.2,0c0,0.6-0.1,1.3-0.1,1.9c-0.1,0.9-0.4,1.5-1.4,1.5
		c-0.9,0-1.3-0.7-1.2-1.6c0.1-0.9,0-1.9,0.1-2.8c0.1-1.2,0.5-1.6,1.7-1.6c0.8,0,1.7,0,2.7,0c-0.4-1.5-0.8-2.9-1.3-4.3
		c-0.3-1.2-0.1-1.8,0.7-2.1c0.8-0.2,1.4,0.2,1.8,1.3c0.1,0.3,0.2,0.7,0.4,1c1.2-1.3,1.3-1.8,0.7-3.3c-0.1-0.1-0.1-0.3-0.2-0.4
		c-0.5-0.8-0.8-1.7,0.2-2.3c1-0.6,1.6,0.1,2.2,1.1c0.3-0.6,0.6-1.1,0.7-1.6c0.7-3.7,1.4-7.4,1.9-11.1c0.6-4.2,0.9-8.3,1.4-12.7
		c0,0-0.3,0-0.5-0.2c-0.3-0.4-0.7-0.9-0.7-1.2c0.1-0.4,0.7-1.2,0.9-1.1c1.6,0.2,1.9-0.9,2.3-2c0.2-0.5,0.5-1,0.7-1.5
		c-0.1-0.1-0.1-0.2-0.2-0.3c-0.6-0.7-1-1.5-0.2-2.2c0.8-0.7,1.4-0.2,2.2,0.4c0.6,0.5,1.5,0.7,2.3,0.8c2.6,0.3,5.2,0.4,7.9,0.6
		c0.9,0.1,1.8,0.2,2.5-0.8c-0.6-0.4-1.1-0.8-1.6-1.1c-2.5-1.2-4.7-2.8-6.7-4.7c-0.9-0.9-2-1.4-3.4-1.3c-0.5,0-1.1-0.4-1.4-0.8
		c-0.5-0.9-0.9-1.9-1.2-2.9c-0.3-0.8-0.2-1.6,0.8-1.9c0.9-0.3,1.5,0.2,1.7,1c0.3,1.2,0.9,1.9,2.2,2.2c1.1,0.3,2.2,1.2,3.2,1.8
		c1.9,1.3,3.7,2.6,5.5,3.9c0.6,0.4,1.4,0.7,2,1.2c0.9,0.7,1.8,1.6,1.5,2.8c-0.3,1.4-1.1,2.5-2.5,2.8c-1.4,0.3-2.9,0.2-4.3,0.2
		c-2.5-0.1-4.9-0.4-7.4-0.5c-0.3,0-0.6,0.4-0.8,0.7c-2.1,3.8-2.7,8-3.1,12.2c-0.4,4.3-1,8.6-1.5,12.8c-0.6,4.6-3.3,8.3-5.6,12.2
		c-0.2,0.4-0.3,1-0.3,1.5c0,0.3,0.1,0.6,0.2,0.9c0.7,2.7,0.2,5.1-1.8,7.2c-1.4,1.4-2.6,3.1-4,4.5c-1.5,1.5-2.2,3.3-2.5,5.3
		c-0.4,3.7-1,7.4-1.4,11.1c-0.2,1.7,0.2,3.6-0.2,5.2c-1.3,6.1-1,12.3-1.3,18.5c-0.1,1.4,0.5,2.6,1.2,3.8c0.7,1.1,1.4,2.2,2.1,3.4
		c0.5,1,0.1,2-1,2c-1.9,0-3.8-0.1-5.7-0.2c-0.9-0.1-1.4-0.6-1.2-1.5c0.1-0.9,0.8-1.2,1.7-1.1C-169.4,119.9-168.6,119.9-167.6,120z"
		/>
	<path d="M-185.4,71.7c-0.3-1.6-0.6-3.2-0.9-4.7c-0.2-1,0.1-1.8,0.9-2c0.8-0.2,1.4,0.3,1.7,1.3c0.3,1,0.5,2.1,0.7,3.3
		c0.6-0.2,1.2-0.4,1.8-0.7c0.8-0.4,1.4-0.3,1.9,0.4c0.4,0.7,0.2,1.5-0.7,1.9c-0.8,0.4-1.7,0.7-2.6,1c-0.1,2.6-0.4,2.1,1.9,2.9
		c2.4,0.9,5.6,1.1,7.7,0.5c-0.3-1.4-0.5-2.7-0.8-4.1c-1,0-1.6,0.5-2,1.3c-0.1,0.3-0.3,0.5-0.5,0.7c-0.5,0.7-1.1,0.8-1.8,0.4
		c-0.7-0.4-0.8-1.1-0.4-1.7c0.8-1.5,1.5-3,3.5-3.2c0.3,0,0.7-0.6,0.9-1c0.9-2.3,1.7-4.6,2.6-6.9c0.3-0.8,1-1.1,1.8-0.7
		c0.8,0.4,0.9,1.1,0.5,1.9c-0.4,0.9-0.8,1.8-1.4,3c0.9-0.2,1.6-0.3,2.2-0.5c0.8-0.2,1.5-0.1,2,0.6c0.6,0.7,1.2,1.4,1.8,2.1
		c0.5,0.7,0.6,1.4-0.1,1.9c-0.6,0.5-1.4,0.4-1.8-0.2c-1-1.7-2.4-1.9-4.2-1.3c-0.9,0.3-1.2,0.7-1,1.5c0.1,0.8,0.4,1.6,0.6,2.6
		c0.6-0.3,1.2-0.6,1.8-0.9c0.8-0.4,1.5-0.3,1.9,0.5c0.4,0.8,0.1,1.4-0.6,1.8c-0.1,0-0.1,0.1-0.2,0.1c-0.7,0.4-2.1,0.9-2.1,1.4
		c-0.1,1.3,0.4,2.7,0.6,4.1c0,0.2,0.4,0.3,0.6,0.4c1.1,0.5,1.3,1.5,0.5,2.2c-0.6,0.5-0.7,1-0.8,1.7c-1.4,11.1-0.6,22.2-1.1,33.3
		c0,0.3,0,0.7,0,1c-0.1,0.9-0.7,1.6-1.4,1.4c-0.9-0.1-1.2-0.7-1.2-1.5c0.1-3.1,0.2-6.3,0.2-9.4c0-4.2-0.1-8.3,0-12.5
		c0.2-4.2,0.7-8.4,0.9-12.6c0.1-1.5-0.2-3-0.4-4.7c-3.7,0.5-7.1,0.2-10.3-1.1c-2.6,6.9-5.2,13.6-7.6,20.5c-0.7,2-0.8,4.3-1,6.5
		c-0.2,3.4-0.2,6.9-0.1,10.3c0,0.7,0.4,1.4,0.7,2c0.6,1.1,1.3,2.2,1.9,3.3c0.5,1.1,0,2-1.2,2c-2,0-3.9,0-5.9-0.1
		c-0.9,0-1.6-0.4-1.5-1.5c0.1-0.9,0.7-1.2,1.9-1.1c1.1,0.1,2.2,0.1,3.4,0.2c-0.2-0.4-0.2-0.6-0.3-0.7c-1.3-1.5-1.6-3.2-1.7-5.1
		c-0.1-7.2-0.1-14.3,2.7-21.2c0.3-0.8,0.7-1.6,1-2.5c-0.4,0-0.8,0.1-1,0c-0.5-0.3-1.1-0.6-1.3-1.1c-0.3-0.7,0.2-1.2,1-1.4
		c0.1,0,0.1-0.1,0.2,0c2.1,0.2,2.9-1.1,3.4-2.9c0.1-0.4,0.3-0.8,0.5-1.3c-0.9-0.4-2.2-0.6-1.7-2c0.5-1.4,1.7-0.8,2.9-0.6
		c0.5-2,0.9-3.9,1.4-6.1c-0.9,0.3-1.5,0.4-2.1,0.6c0.1,0.6,0.2,1.1,0.4,1.5c0.2,0.9,0,1.5-0.9,1.7c-0.8,0.2-1.4-0.2-1.6-1
		c-0.2-0.9-0.5-1.8-0.7-2.6c-0.3-0.9,0.1-1.6,1-1.8C-187.9,72.4-186.7,72.1-185.4,71.7z"/>
	<path d="M-194.8,78.2c0.3,1.5,0.5,3.1,0.8,4.6c0,0.2,0.4,0.5,0.7,0.5c0.6,0,1.2-0.1,1.7-0.2c0.8-0.1,1.5,0.1,1.7,0.9
		c0.2,0.9-0.3,1.5-1.2,1.6c-0.9,0.2-1.7,0.2-2.6,0.4c-0.1,1.2-0.3,2.4-0.4,3.6c0,0.2,0.2,0.5,0.3,0.6c0.8,0.4,1.6,0.9,1.1,2
		c-0.5,1-1.4,0.8-2.3,0.4c0,0.4,0,0.8,0,1.1c-0.1,5-0.2,10-0.3,15c-0.1,2.6-0.2,5.3,0.7,7.8c0.3,0.8,0,1.5-0.8,1.7
		c-0.8,0.3-1.4-0.2-1.7-1c-1-2.9-0.9-5.8-0.8-8.8c0.1-5.1,0.2-10.3,0.3-15.4c0-0.4,0-0.9,0.1-1.3c1.9-4.9,1.2-9.7-0.4-14.5
		c-0.7-2.1-1.7-4-2.5-6.1c-0.3-0.8-0.9-1.7,0.1-2.4c0.9-0.7,1.6-0.1,2.2,0.7c0.4-0.5,0.7-0.9,1-1.3c0.6-0.7,1.3-0.8,2-0.2
		c1,0.9,1.9,1.8,2.9,2.7c0.6,0.6,0.7,1.3,0.1,1.9c-0.6,0.6-1.2,0.5-1.9,0c-0.6-0.6-1.2-1.1-1.8-1.7c-1,1.2-1.1,2.7-0.1,3.8
		c0.2,0.2,0.6,0.3,0.9,0.3c1.1,0.2,2.2,0.4,3.3,0.6c0.8,0.1,1.2,0.6,1.3,1.4c0.1,1,0.1,2,0.1,3.1c0,0.8-0.5,1.3-1.2,1.2
		c-0.5-0.1-0.9-0.6-1.3-1c-0.1-0.1-0.1-0.5-0.1-0.7C-193.1,78.3-193.1,78.3-194.8,78.2z"/>
	<path d="M-192,68.6c0.2-1.7,0.3-3.1,0.6-4.5c0.1-0.4,0.6-1,1-1.2c1.1-0.5,2.3-0.9,3.4-1.4c0.8-0.3,1.5-0.2,1.8,0.7
		c0.3,0.8,0,1.4-0.8,1.8c-0.4,0.2-0.8,0.4-1.2,0.5c-1.4,0.3-2.1,1.1-1.9,2.5c0,0.3,0.2,0.7,0.5,0.9c0.4,0.3,0.9,0.4,1.3,0.6
		c0.7,0.3,0.9,0.9,0.7,1.6c-0.3,0.7-0.9,1-1.6,0.8c-1-0.3-2.1-0.7-3-1.3C-191.6,69.4-191.8,68.9-192,68.6z"/>
	<path d="M-178.1,64.5c0-0.9,0-1.7,0-2.6c0-0.8,0.4-1.3,1.2-1.3c0.8-0.1,1.4,0.4,1.4,1.2c0.1,1.3,0.1,2.7,0,4.1
		c0,0.8-0.6,1.2-1.4,1.3c-1.3,0.1-2.6,0.2-3.8,0.2c-0.4,0-1-0.4-1.3-0.8c-0.5-0.9-0.9-1.9-1.3-2.9c-0.3-0.7-0.2-1.4,0.6-1.8
		c0.8-0.4,1.4-0.1,1.8,0.7c0.1,0.3,0.2,0.5,0.4,0.8C-179.9,64.8-179.9,64.8-178.1,64.5z"/>
	<path d="M-164.5,54.8c0.3-1,0.5-1.9,0.7-2.8c0.2-0.8,0.7-1.3,1.6-1.1c0.8,0.1,1.2,0.9,1,1.8c-0.3,1.4-0.7,2.8-1.1,4.2
		c-0.3,1.1-1,1.4-2.1,1c-0.8-0.4-1.7-0.8-2.5-1.2c-0.7-0.4-1.1-1-0.7-1.8c0.4-0.8,1-1,1.8-0.6C-165.4,54.4-165,54.6-164.5,54.8z"/>
	<path d="M-172.2,60c-0.3,0.3-0.5,0.8-0.9,0.9c-0.4,0.1-1.3-0.1-1.4-0.4c-0.8-1.8-1.9-1.8-3.4-0.9c-0.7,0.4-1.3,0-1.6-0.7
		c-0.3-0.7-0.1-1.3,0.6-1.7c1.1-0.5,2.1-1,3.2-1.4c0.4-0.1,1.1,0,1.3,0.3c0.8,1,1.4,2,2.1,3.1C-172.3,59.4-172.3,59.6-172.2,60z"/>
	<path d="M-169.6,56.9c1.5,0,3.9,2,4.2,3.1c0.2,0.6,0.3,1.2,0.5,1.8c0.2,0.8-0.1,1.4-0.9,1.6c-0.8,0.2-1.5-0.2-1.6-0.9
		c-0.2-1.6-1.2-2.4-2.5-3.2c-0.4-0.2-0.6-1-0.6-1.5C-170.4,57.4-169.7,57.1-169.6,56.9z"/>
	<path d="M-156,44.5c1.3,0,2,1,1.4,1.9c-1.1,1.7-2.5,3-4.4,3.6c-0.8,0.3-1.6,0.2-1.9-0.7c-0.3-0.8,0.2-1.3,1.1-1.8
		c1-0.6,1.9-1.4,2.8-2.2C-156.6,45-156.3,44.7-156,44.5z"/>
	<path d="M-158,42.8c-0.9-0.1-1.6-0.4-1.6-1.4c0-1,0.6-1.3,1.4-1.4c1.1-0.2,2.1-0.4,3.2-0.7c0.8-0.2,1.5-0.2,1.9,0.7
		c0.3,0.8,0,1.5-1,1.8C-155.4,42.1-156.7,42.4-158,42.8z"/>
	<path d="M-155,31.7c-0.2-0.2-0.8-0.5-0.9-0.9c-0.1-0.4,0.1-1,0.4-1.4c0.4-0.6,1-1,1.6-1.5c0.5-0.5,1.1-0.7,1.8-0.2
		c0.6,0.5,0.7,1.1,0.3,1.7C-152.3,30.4-153.9,31.7-155,31.7z"/>
	<path d="M-152.7,34.8c0,0.4-0.1,1-0.2,1.5c-0.1,0.8-0.6,1.4-1.5,1.2c-0.9-0.1-1.2-0.7-1.1-1.6c0.1-0.6,0.1-1.3,0.2-2
		c0-0.9,0.4-1.4,1.3-1.5c0.9,0,1.3,0.6,1.4,1.5C-152.6,34.3-152.7,34.5-152.7,34.8z"/>
	<path d="M-152,22.3c-0.2-0.2-0.7-0.6-0.9-1.1c-0.3-0.8,0.7-2.7,1.5-2.8c0.5-0.1,1.2,0.2,1.6,0.5c0.2,0.2,0.2,1,0,1.4
		C-150.4,21-150.3,22.2-152,22.3z"/>
	<path d="M-141,18.3c-0.7,0-1.2-0.4-1.3-1.2c-0.1-0.8,0.8-1.6,1.8-1.6c0.8,0,1.3,0.5,1.3,1.3C-139.2,17.6-139.9,18.3-141,18.3z"/>
	<path d="M-145.2,14.5c0.1-0.8,0.5-1.3,1.3-1.3c0.8,0,1.3,0.5,1.3,1.3c0,0.8-0.5,1.3-1.2,1.3C-144.6,15.8-145.1,15.4-145.2,14.5z"/>
</g>
<g>
	<path d="M-113.8,60.4c0.9-1.6,2.3-2,4-2.1c6.6-0.6,13.2-1.5,19.6-3.5c3.4-1.1,7.1-1,10.6-1.5c0.6-0.1,1.4-0.6,1.8-1.1
		c2-2.5,3.6-5.2,5.7-7.6c4.7-5.3,10.6-8.3,17.8-8.7c5.3-0.3,10.7-1,16-1.7c0.9-0.1,1.7-0.9,2.5-1.3c0.6-0.3,1.4-0.6,2-0.5
		c5.3,1.2,9,4.2,10.3,9.7c0,0.1,0.1,0.1,0.1,0.2c1.6,4.2,1.5,4.5-2.1,7.3c-0.5,0.4-1.2,0.4-1.8,0.5c-0.3,0-0.7-0.2-1-0.2
		c-3.4-0.2-7-0.9-9,3c-0.4,0.8-1.2,1.5-2,2c-2.4,1.9-2.6,4.3-1.3,6.9c0.3,0.6,1,0.9,1.4,1.4c0.5,0.5,1.2,1.1,1.1,1.6
		c-0.1,0.5-0.9,1.1-1.5,1.2c-2.2,0.3-4.3,0.2-5.5-2.3c-0.4-0.8-1.1-1.5-1.7-2.3c-2.5-3.3-2.5-3.2-6.4-2.3c-2.2,0.5-1.7,2.7-3,3.7
		c1.4,2.4,1,3.2-1.8,3.2c-16.5,0-33-0.1-49.5,0.1c-3.3,0-5.3-1-6.2-4.2C-113.8,61.5-113.8,61-113.8,60.4z M-37.3,37.2
		c-6.3,0.7-12.5,1.4-18.6,1.9c-4.2,0.3-7.7,1.9-10.9,4.5c-3.6,2.9-6.5,6.5-8.7,10.6c-0.3,0.6-0.7,1.4-0.4,1.9
		c1.1,2.3,2.4,4.6,3.7,6.8c0.2,0.3,0.9,0.4,1.4,0.4c3,0,6,0.1,9,0c0.8,0,1.7-0.4,2.3-1c2.8-2.7,2.8-5.4,0-8.1
		c-0.8-0.8-1.8-1.3-2.5-2.1c-0.5-0.6-1.2-1.7-1-2.2c0.5-1.2,1.6-0.8,2.6-0.2c2.7,1.7,4.8,3.9,5.9,7c1.8-0.5,3.5-0.9,5.4-1.4
		c-0.4-0.9-0.8-1.6-0.8-2.3c0-0.8,0-1.9,0.5-2.2c1-0.7,1.8,0.1,2.1,1.1c0.5,1.5,0.8,3.1,1.3,4.7c0.3,1,0.7,1.9,1.1,2.8
		c0.2,0,0.3-0.1,0.5-0.1c-0.2-2.8,1.4-4.7,3.2-6.5c0.7-0.7,1.5-1.4,2.1-2.2c0.3-0.4,0.3-1.1,0.3-1.7c-0.2-1.7-0.6-3.4-0.6-5.2
		c0-0.6,1-1.1,1.5-1.7c0.4,0.6,1.1,1.2,1.3,1.9c0.2,1.1,0.1,2.2,0.1,3.5c1.7-0.2,2.8-0.4,3.6-0.5c0.6-1.5,0.8-2.9,1.6-4
		c0.4-0.6,1.9-1.3,2.4-1c1.2,0.6,0.6,1.6,0,2.6c-0.3,0.6-0.6,1.8-0.2,2.1c0.5,0.4,1.6,0.6,2.2,0.3c0.7-0.3,1.7-1.4,1.5-1.9
		c-1-2.7-1.6-5.6-3.9-7.6c-0.6,0.2-1.3,0.6-1.6,0.5c-1-0.6-1.8-1.4-2.9-2.5c-0.1,1.1-0.1,2-0.3,2.8c-0.2,0.6-0.8,1.4-1.3,1.4
		c-0.5,0-1.1-0.7-1.5-1.2C-37.3,38.3-37.2,37.8-37.3,37.2z M-100.6,60.2c-3.5,0.4-6.8,0.8-10.2,1.1c-0.1,0.2-0.1,0.4-0.2,0.5
		c0.6,0.4,1.2,1.3,1.9,1.3c3,0.1,6,0.1,9.2,0.1C-100.1,62.1-100.3,61.2-100.6,60.2z M-81.4,56.3c0.5,1.6,0.8,3.1,1.3,4.5
		c1,2.7,1.1,2.7,4.2,2.3c-0.9-1.7-1.9-3.4-2.6-5.2C-78.9,56.6-79.6,56-81.4,56.3z M-86.7,56.8c0.4,1.7,0.7,3.1,1.1,4.5
		c0.4,1.8,1.4,2.5,3.2,1.7c-0.4-1.1-0.8-2.2-1.1-3.3c-0.3-1.1-0.5-2.2-0.8-3.4C-85,56.5-85.7,56.6-86.7,56.8z M-88.1,63.1
		c-0.3-1-0.6-1.9-0.8-2.8c-0.2-0.9-0.4-1.8-0.6-2.8c-1,0.4-1.8,0.7-2.5,1.1C-91.2,63.4-91.2,63.4-88.1,63.1z M-97.5,59.7
		c0.3,3.5,0.6,3.8,3.4,3.3c-0.3-1.2-0.6-2.5-0.9-3.9C-95.8,59.4-96.6,59.5-97.5,59.7z"/>
</g>
<g>
	<path d="M-130.2,196c2,0,3.9,0,6,0c-0.4-0.6-0.6-1.2-1.1-1.6c-1.1-1-1.4-2.4-1.4-3.8c0-2.7,0.7-5.4,1.6-7.9
		c0.3-0.7,0.8-1.2,1.2-1.8c1.9-2.5,3.6-5.2,4-8.4c0.4-2.9-0.3-5.6-1.3-8.3c-0.1-0.3-0.3-0.6-0.4-0.9c-0.2-0.6-0.1-1.1,0.5-1.4
		c0.6-0.3,1.1,0,1.3,0.6c0.6,1.7,1.2,3.3,1.6,5c0.6,2.8,0.5,5.5-0.5,8.2c-0.1,0.2,0,0.6,0.1,0.8c2.8,2.6,5.9,5,9.8,5.6
		c2.2,0.3,4.5,0.2,6.8,0.1c2.3-0.2,4.5-0.7,6.8-1.1c0.2,0,0.3-0.1,0.6-0.2c-0.7-1.1-1.3-2.1-2-3.1c-0.1-0.2-0.3-0.4-0.4-0.6
		c-0.3-0.5-0.2-1,0.2-1.3c0.5-0.3,1-0.3,1.3,0.1c2,3,4.2,5.9,4.1,9.8c-0.1,2.3,0.3,4.7,0.8,7c0.3,1.1,0,2.3-0.1,3.5
		c0,0.2-0.1,0.5-0.1,0.9c2.2,0.1,4.4,0.2,6.8,0.3c-0.4-0.6-0.6-1.1-0.9-1.5c-1.9-2-2.1-4.5-1.7-7.1c0.3-1.6,1-3.2,1.6-4.8
		c0.9-2.1,1.8-4.1,2.8-6.1c0.2-0.3,0.7-0.7,1-0.6c0.3,0.1,0.6,0.6,0.9,0.9c0.1,0.1,0,0.3,0,0.5c2.7,0.1,4.6-1.7,4.6-4.3
		c0-0.8-0.1-1.6-0.2-2.4c-0.1-0.6,0.1-1.1,0.8-1.2c0.7-0.1,1.1,0.3,1.2,0.9c0.3,2.1,0.5,4.1-0.6,6.1c-0.1,0.2-0.1,0.5,0,0.8
		c1.2,3,2.6,5.8,5.4,7.7c0.5,0.3,0.7,0.8,0.3,1.4c-0.4,0.6-1,0.7-1.4,0.2c-1.2-1.1-2.4-2.1-3.4-3.4c-0.9-1.2-1.6-2.7-2.3-4.1
		c-0.1-0.2-0.2-0.5-0.2-0.5c-1.6,0.4-3.1,0.7-4.5,1c-0.2,0.1-0.5,0.2-0.6,0.4c-0.9,1.8-1.8,3.7-2.6,5.5c-0.7,1.6-0.9,3.3-0.7,5
		c0.1,0.8,0.6,1.7,1,2.4c0.6,1.1,1.3,2,1.8,3.1c0.4,0.9,0.1,1.5-0.9,1.6c-2.9,0.4-5.8,0.4-8.7-0.2c-1.1-0.2-1.3-0.6-1.3-1.7
		c0-0.2,0-0.4,0-0.6c0.3-1.7,0.2-3.4-0.1-5.1c-0.4-2.2-0.4-4.4-0.6-6.6c-0.1-0.7-0.2-1.3-0.3-2.1c-1.5,0.3-2.9,0.6-4.3,0.8
		c-3.3,0.5-6.7,0.9-10,0.6c-2.3-0.2-4.4-1-6.3-2.1c-1.9-1.2-3.7-2.5-5.5-3.8c-1.1,1.5-2.5,3.1-3.4,4.9c-0.7,1.4-1,3.1-1.3,4.7
		c-0.2,1.1-0.3,2.3-0.2,3.5c0,0.5,0.3,1,0.6,1.3c0.9,1,1.5,2.1,1.8,3.4c0.2,1.2-0.1,1.7-1.4,1.7c-2.6,0-5.2,0-7.8,0
		c-1.1,0-1.4-0.5-1.1-1.6c0.2-0.7,0.3-1.4,0.5-2.2c0.2-1.1,0-2.1-0.8-3c-1.5-1.8-1.9-3.9-1.1-6.2c0.5-1.5,0.8-3.1,1.2-4.6
		c0.1-0.5,0-1-0.1-1.5c-0.2-1.6-0.4-3.1-0.7-4.7c0,1.3,0,2.5,0,3.8c0,1.5-0.1,3-0.3,4.5c-0.1,0.5-0.3,1.1-0.7,1.5
		c-0.2,0.3-0.9,0.4-1.2,0.2c-0.3-0.1-0.6-0.9-0.4-1.1c0.8-1.7,0.7-3.4,0.6-5.2c-0.3-4,0.3-8,1.2-11.9c0.8-3.5,2.5-6.3,5.2-8.6
		c2.1-1.8,4.5-2.9,7.3-3.3c2.8-0.4,5.5-1,8.3-1.4c3.5-0.5,7,0.3,10.4,1.2c3.7,1,7.5,1.1,11.3,0.7c5.5-0.6,10.8-0.1,15.9,2.1
		c1,0.5,2,1,3,1.6c0.6,0.3,0.9,0.8,0.5,1.4c-0.4,0.6-0.9,0.6-1.5,0.2c-4.9-3-10.4-3.9-16.1-3.5c-1.6,0.1-3.2,0.3-4.7,0.4
		c-3.1,0.2-6.2-0.2-9.2-1c-4.9-1.4-9.8-1.3-14.7-0.2c-1.1,0.3-2.3,0.4-3.4,0.6c-4.9,1.1-8.3,4-10.1,8.7c-0.9,2.3-0.4,4.7,0.1,7
		c0.5,2.6,1,5.3,1.2,7.9c0.1,1.5-0.5,3-0.8,4.6c-0.1,0.5-0.3,1-0.4,1.4c-0.6,1.6-0.3,3.1,0.8,4.3c1.4,1.6,1.5,3.4,1.2,5.3
		C-130.1,195.4-130.2,195.6-130.2,196z"/>
	<path d="M-60.2,176.2c-1.2-0.2-2.2-0.4-3.1-0.6c-2-0.5-3-1.8-3.2-3.9c-0.1-1.4-0.2-2.8-0.4-4.2c-0.1-0.6,0.1-1.1,0.8-1.2
		c0.7-0.1,1.1,0.3,1.1,0.9c0.1,1.3,0.3,2.6,0.3,3.8c0.1,1.7,0.5,2.3,2.2,2.7c0.9,0.2,1.9,0.3,2.8,0.3c1.1,0.1,1.5,0.4,1.4,1.5
		c-0.1,1.1-0.4,2.1-0.7,3.3c1.3,0.1,2.7,0.3,4,0.3c1.4,0.1,2.8,0.1,4.2,0.2c0.4,0,0.9,0.3,1.1,0.5c0.1,0.3,0,1-0.2,1.2
		c-0.8,0.8-1.6,1.7-2.6,2.3c-2.1,1.3-4.3,2.4-6.4,3.6c-0.4,0.2-0.7,0.5-0.9,0.8c-1.8,3.4-5,3.8-7.9,2.6c-0.6-0.3-0.9-0.7-0.7-1.4
		c0.3-0.7,0.8-0.7,1.4-0.5c0.4,0.1,0.7,0.3,1.1,0.3c2,0.4,3.5-0.3,4.4-2.3c0.3-0.7,0.7-1.1,1.4-1.4c2-1,3.9-2,5.8-3
		c0.4-0.2,0.9-0.6,1.3-1c-0.3,0-0.6,0-0.9-0.1c-1.8-0.2-3.7-0.3-5.5-0.5c-0.4,0-0.8-0.1-1.1-0.3c-0.8-0.3-1-0.8-0.7-1.6
		C-60.8,177.9-60.5,177-60.2,176.2z"/>
	<path d="M-70,161.4c-0.7,1.4-0.5,2.7,0.3,4c0.2,0.3,0.4,0.6,0.3,0.8c-0.1,0.3-0.4,0.9-0.6,0.9c-0.4,0.1-1-0.1-1.2-0.4
		c-1.3-1.7-1.5-3.6-0.9-5.6c0-0.1,0-0.1,0.1-0.2c0.8-2.2,1.9-2.4,3.7-0.9c1.2,1.1,1.8,3.5,1,5c-0.2,0.3-0.8,0.6-1.1,0.5
		c-0.3-0.1-0.6-0.6-0.7-1c-0.1-0.5,0.1-1.1,0.1-1.6C-69,162.2-69.3,161.8-70,161.4z"/>
	<path d="M-77,173.5c-0.1,0.6-0.2,1.9-0.5,3.1c-0.1,0.7-0.7,1.1-1.2,0.9c-0.6-0.2-0.8-0.7-0.7-1.3c0.9-3.6,0.2-7.2-1-10.6
		c-0.4-1.2-0.3-1.6,0.3-1.9c0.7-0.3,1.1,0.1,1.5,1.2C-77.6,167.4-77.1,170.1-77,173.5z"/>
	<path d="M-63.6,187.3c0,0.5-0.4,0.9-1,0.9c-0.6,0-1.3-0.7-1.3-1.3c0-0.6,0.4-1,1-1C-64.3,185.9-63.6,186.7-63.6,187.3z"/>
	<path d="M-66.8,179.5c-0.6,0-1.2-0.5-1.1-1.2c0.1-0.7,0.4-1,1.1-1.1c0.6,0,1.1,0.5,1.1,1.1C-65.7,179-66.2,179.5-66.8,179.5z"/>
</g>
<g>
	<path d="M207.7,167c0.3,0.4,0.9,0.7,1,1.1c0.2,0.7-0.5,1-1.1,1.2c0,2,0,3.9,0,5.9c0,0.2,0.1,0.5,0.2,0.7c0.3,0.8,0.6,1.6,0.8,2.4
		c0.1,0.6-0.2,1.1-0.7,1.1c-0.4,0-1-0.3-1.1-0.6c-0.5-1.6-1.1-3.2-1.1-5c0-3.7-0.5-7.3-0.8-11c-0.1-0.9-0.3-1.7-0.4-2.6
		c-2,0.2-3.8,0.6-5.7,0.6c-2.4,0-4.9-0.1-7.3-0.5c-1.2-0.2-2.5-0.8-3.5-1.5c-2-1.3-3.9-2.7-5.8-4.1c-0.8-0.6-1.5-0.3-1.8,0.7
		c-0.4,1.4-0.8,2.8-1.4,4.1c-1.6,3.6-4.2,6.3-7.8,8.1c-2,1-3.9,2.1-5.8,3.3c-0.3,0.2-0.6,0.6-0.7,1c-0.4,1.8-0.1,3.5,0.3,5.2
		c0,0.2,0.3,0.4,0.5,0.5c1.7,0.5,2.5,1.5,2.4,3.2c0,0.6-0.3,1.1-0.8,1.2c-1.8,0.2-3.7,0.3-5.5,0.3c-0.3,0-0.7-0.6-0.7-1
		c0-0.5,0.4-0.9,1-0.9c1.1,0,2.1,0,3.2,0c0.3,0,0.5-0.1,0.8-0.1c-0.3-0.7-0.8-0.7-1.3-0.6c-0.6,0.1-1.1-0.2-1.2-0.7
		c-0.7-2.5-1.1-4.9-0.7-7.5c0.2-1.2,0.9-1.8,1.9-2.3c0.4-0.2,0.7-0.4,0.5-0.9c-0.2-0.6-0.2-1.2,0.5-1.4c0.7-0.3,1.1,0.1,1.4,0.7
		c0,0,0.1,0.1,0.1,0.1c1.5-0.8,3-1.5,4.4-2.4c4.8-3.1,6.9-7.6,7.3-13.2c-0.7-0.2-1.5-0.3-1.4-1.1c0.1-0.4,0.6-0.8,1-1.2
		c0.1,0,0.3,0.1,0.4,0.1c-0.5-1.3-0.9-2.6-1.4-3.8c-0.3-0.6-0.4-1.2,0.3-1.6c0.6-0.3,1.1-0.1,1.5,0.7c1.1,2,1.5,4.2,1.6,6.5
		c0,0.2,0,0.5,0,0.9c1.3-0.4,2,0.5,2.9,1.1c1.2,0.9,2.4,1.7,3.6,2.6c2.6,1.9,5.5,2.9,8.7,2.8c2.6-0.1,5.1-0.4,7.7-0.6
		c0.5,0,0.9-0.3,1.1-0.8c1-1.9,1.3-4,1.3-6.2c0-0.2-0.3-0.4-0.4-0.6c-0.2-0.3-0.7-0.6-0.7-0.9c0-0.3,0.4-0.6,0.6-0.9
		c0.1-0.2,0.3-0.4,0.3-0.6c0-0.5-0.1-1-0.1-1.5c-0.1-0.6,0.2-1,0.8-1.1c0.7-0.1,1.1,0.3,1.1,0.9c0.1,1.4,0.2,2.8,0.3,4.2
		c0,0.3,0.2,0.6,0.4,0.8c0.6,0.6,0.6,1.3-0.1,1.7c-0.2,0.2-0.4,0.4-0.5,0.7c-0.5,1.4-0.9,2.9-1.3,4.3c-0.1,0.2-0.1,0.4-0.1,0.6
		c0.4,2.7,0.8,5.4,1.2,8.1C207.5,167.1,207.6,167,207.7,167z"/>
	<path d="M220,137c-1.5,0-3.1,0.2-4.7,0.1c-1.5,0-2.9,0.1-4.2,0.8c-1.4,0.7-2.8,1.4-4.2,2.2c-1.9,1.2-3.9,1.7-6.1,2
		c-3.7,0.5-7.3,0.4-11-0.4c-0.1,0.2,0,0.5-0.2,0.6c-0.3,0.3-0.6,0.7-1,0.7c-0.3,0-0.8-0.4-0.9-0.6c-0.2-0.9-0.8-1.1-1.5-1.1
		c-2.8-0.2-5.6-0.6-8.4-0.6c-3.2,0-6.3,0.8-9.4,1.6c-1.4,0.4-2.5,1.3-3.4,2.5c-2.3,3-3.8,6.5-5,10c-1.1,3.1-2,6.2-3.2,9.2
		c-1.1,2.8-2.6,5.4-5,7.4c-1,0.8-2.1,1.4-3.2,2.1c-0.6,0.3-1.2,0.3-1.5-0.4c-0.3-0.7,0-1.1,0.6-1.4c2.9-1.3,4.9-3.5,6.2-6.3
		c1.3-2.9,2.3-5.9,3.3-8.9c1.1-3.2,2.2-6.4,3.8-9.4c0.4-0.7,0.9-1.5,1.3-2.2c1.7-2.7,4-4.3,7.1-5c3.8-0.8,7.6-1.6,11.5-1.2
		c3.2,0.3,6.4,0.7,9.6,1.2c4,0.7,8,0.7,12-0.1c0.8-0.2,1.6-0.5,2.4-0.9c1.7-0.9,3.3-1.8,5-2.7c1.7-0.8,3.4-1,5.3-1
		c1.6,0,3.2-0.2,4.8-0.4c0.4-0.1,0.7-0.5,1.1-0.7c0.7-0.6,1.4-1.3,2.1-1.7c0.2-0.1,1,0.2,1.1,0.5c0.1,0.3-0.1,1-0.3,1.2
		c-1.2,0.6-1.6,1.7-1.9,2.8c-0.2,0.5-0.3,1.1-1,1.1C220.9,137.7,220.5,137.3,220,137z"/>
	<path d="M211.6,177.2c2.3,0.3,3.3,1.4,3.4,3.4c0,0.7-0.2,1.2-0.9,1.3c-1.9,0.1-3.8,0.2-5.8,0.2c-0.6,0-0.9-0.5-0.8-1.1
		c0.1-0.6,0.5-0.8,1-0.8c1.4,0,2.7,0,4.2,0c-0.1-0.8-0.6-0.9-1.2-0.8c-1.2,0.2-1.5,0.1-1.7-1.1c-0.2-1.5-0.4-3-0.6-4.5
		c0-0.4,0-0.8-0.5-1c-0.3-0.1-0.6-0.7-0.5-0.9c0.1-0.4,0.6-0.8,0.9-1.1c0.1,0,0.1,0.1,0.2,0.1c0.2-1.7,0.3-3.4,0.5-5.1
		c-0.3,0-0.5,0-0.7-0.1c-0.3-0.3-0.7-0.6-0.7-0.9c0-0.3,0.4-0.9,0.7-0.9c1,0,1.1-0.6,1.1-1.4c0-0.4,0.1-0.8,0.1-1.1
		c-0.1-0.1-0.1-0.2-0.1-0.2c-0.7,0-1.3-0.2-1.3-1c0-0.8,0.6-0.9,1.2-1.1c0.8-0.3,1.6-0.8,2.3-1.4c1-0.8,1.8-1.8,2.8-2.6
		c0.9-0.8,1.4-1.6,1.6-2.8c0.2-0.9,0.5-1.9,0.8-2.8c0.7-1.8,2-3,3.7-3.9c0.9-0.4,1.6-1.1,2.5-1.4c1.5-0.4,3-0.5,4.7-0.8
		c0.9-1.3,0.9-2.1-0.4-3.5c-0.4-0.5-0.5-1,0-1.5c0.5-0.5,1-0.3,1.5,0.1c1.4,1.3,1.9,2.9,1.2,4.7c-0.1,0.4-0.3,0.8-0.5,1.3
		c0.3,0,0.7,0,0.8-0.1c0.6-0.7,1.2-1.5,1.7-2.2c0.1-0.1,0-0.4-0.1-0.5c-0.4-0.5-0.7-1.1-1.2-1.5c-0.5-0.4-0.7-0.8-0.7-1.5
		c0-0.9-0.4-1.5-1.1-2c-1.1-0.7-2.4-1-3.7-1.1c-0.9,0-1.5-0.8-1-1.4c0.2-0.3,0.7-0.6,1.1-0.6c1.9,0,3.6,0.6,5.2,1.7
		c0.8,0.6,1.3,1.5,1.5,2.5c0.1,0.5,0.4,0.9,0.6,1.3c0.1,0.2,0.3,0.3,0.4,0.5c1.4,1.9,1.4,2.7,0.1,4.6c-0.2,0.2-0.3,0.4-0.5,0.7
		c-1.4,1.7-2.4,2.1-4.4,1.2c-1.4-0.6-2.7-0.5-4.1,0.1c-0.8,0.4-1.5,0.7-2.3,1.1c-1.9,0.7-3,2.2-3.6,4.1c0,0.2-0.1,0.3-0.1,0.5
		c-0.2,2.6-1.8,4.3-3.8,5.8c-1,0.7-1.8,1.7-2.6,2.6c-0.1,0.1-0.2,0.4-0.2,0.6c-0.4,3.8-0.8,7.6-1.1,11.5
		C211.3,174,211.5,175.6,211.6,177.2z"/>
	<path d="M164.9,151.4c-0.4,0.7-0.7,1.2-0.9,1.8c-1.5,3.8-3,7.6-4.5,11.5c-1.2,3.1-2.7,6-5.1,8.3c-2.6,2.5-5.8,3.7-9.4,3.4
		c-1.2-0.1-2.3-0.6-2.9-1.8c-0.4-0.7-0.2-1.4,0.3-1.6c0.7-0.3,1.1,0.1,1.5,0.7c0.2,0.4,0.9,0.7,1.4,0.7c2.9,0.3,5.5-0.7,7.6-2.7
		c2-1.8,3.4-4.1,4.3-6.6c1.4-3.6,2.7-7.3,4.2-10.9c0.8-1.9,1.6-3.8,3.2-5.3c0.2-0.2,0.1-0.7,0.2-1.1c0.1-0.4,0.1-0.9,0.3-1.1
		c0.2-0.2,0.7-0.4,0.9-0.2c0.3,0.2,0.6,0.6,0.7,1c0.2,1.4,0.3,2.8,0.5,4.2c0.1,0.4,0.2,0.7,0.7,0.8c0.8,0.1,1.1,1.1,0.5,1.6
		c-0.4,0.4-0.3,0.6-0.2,1c1.1,3.3,0.1,6.3-1.6,9.1c-0.7,1.2-1.9,2.1-3.1,2.8c-2.1,1.3-2.7,3.1-2.3,5.4c0.4,1.9,0.6,3.9,0.8,5.8
		c0,0.3,0.1,0.6,0.1,0.8c0,0.6-0.4,1-0.9,0.9c-0.4-0.1-0.9-0.5-1-0.8c-0.4-2.9-0.8-5.7-1.1-8.6c-0.2-1.7,0.6-3.1,1.9-4.2
		c1.1-0.9,2.2-1.7,3.2-2.6c0.6-0.5,1.1-1.2,1.3-1.9c0.5-1.4,0.7-2.9,1-4.4c0-0.2,0-0.4,0-0.6C166.1,155.1,165.5,153.3,164.9,151.4z"
		/>
	<path d="M175.7,145.9c0.5,0.1,0.9,0.4,0.9,1c0,0.8-0.8,1.7-1.4,1.7c-0.6,0-1-0.4-1-1C174.1,146.9,175,145.9,175.7,145.9z"/>
	<path d="M176.7,157.2c0,0.8-0.8,1.8-1.4,1.8c-0.6,0-1-0.4-1-1c0-0.7,0.8-1.7,1.4-1.7C176.4,156.4,176.7,156.7,176.7,157.2z"/>
	<path d="M170.9,160.6c0,1-0.4,1.7-1.1,1.7c-0.6,0-1-0.5-1-1c0-0.9,0.5-1.6,1.1-1.6C170.5,159.7,170.8,160.1,170.9,160.6z"/>
	<path d="M191.3,150.3c-0.8,0-1.3-0.3-1.3-1c0-0.7,0.5-1,1.3-1c0.8,0,1.3,0.4,1.3,1C192.6,150,192.1,150.3,191.3,150.3z"/>
	<path d="M173.6,150.8c0-0.6,0.9-1.5,1.5-1.4c0.6,0.1,0.9,0.4,0.9,1c0,0.6-0.9,1.4-1.5,1.4C174,151.8,173.6,151.3,173.6,150.8z"/>
	<path d="M215.2,145.6c-0.5,0-0.9-0.4-0.9-1c0-0.6,0.7-1.2,1.6-1.2c0.6,0,1,0.4,1,1C216.9,145.1,216.2,145.6,215.2,145.6z"/>
	<path d="M213.4,143c-0.6,0-1.1-0.3-1.1-1c-0.1-0.7,0.5-1.1,1.5-1.1c0.6,0,1,0.3,1.1,1C214.9,142.6,214.3,143,213.4,143z"/>
	<path d="M207.1,143.2c0,0.8-0.6,1.2-1.5,1.2c-0.6,0-1-0.3-1-0.9c0-0.7,0.6-1.1,1.6-1.1C206.7,142.3,207,142.7,207.1,143.2z"/>
	<path d="M171.6,151.3c0,0.9-0.5,1.5-1.1,1.5c-0.7-0.1-1-0.5-0.9-1.1c0.1-0.9,0.5-1.5,1.1-1.4C171.4,150.2,171.6,150.7,171.6,151.3z
		"/>
	<path d="M216.4,150.4c0,0.7-0.7,1.2-1.6,1.1c-0.6,0-1-0.4-1-1c0-0.7,0.7-1.1,1.6-1.1C216,149.4,216.4,149.8,216.4,150.4z"/>
	<path d="M190.2,145.3c0.7,0,1.3,0.5,1.3,1.1c-0.1,0.6-0.5,0.9-1.1,0.9c-0.9-0.1-1.5-0.5-1.5-1.1
		C188.9,145.6,189.3,145.3,190.2,145.3z"/>
	<path d="M179,143.7c-0.8,0-1.2-0.4-1.2-1c0-0.6,0.5-1,1.4-1c0.8,0,1.2,0.4,1.2,1C180.4,143.4,179.9,143.7,179,143.7z"/>
	<path d="M173.5,160.8c0.5,0,0.9,0.4,0.9,1c0,0.6-0.9,1.4-1.5,1.4c-0.6,0-0.9-0.4-1-1C171.9,161.6,172.7,160.8,173.5,160.8z"/>
	<path d="M189.5,155.2c-0.8,0-1.3-0.4-1.3-1c0-0.6,0.5-1,1.3-1c0.9,0,1.4,0.4,1.3,1.1C190.8,155,190.3,155.2,189.5,155.2z"/>
	<path d="M201.8,151.2c-0.5,0-0.9-0.3-0.9-1c0-0.6,0.5-1,1.4-1.1c0.7,0,1.1,0.3,1.1,0.9C203.5,150.8,202.9,151.2,201.8,151.2z"/>
	<path d="M200.8,145.6c-0.8,0-1.2-0.4-1.2-1c0-0.7,0.4-1,1.2-1c0.9,0,1.3,0.4,1.3,1C202.1,145.2,201.7,145.6,200.8,145.6z"/>
	<path d="M184,149.4c-0.9,0-1.3-0.3-1.3-1c0-0.6,0.4-1,1.2-1c0.8,0,1.3,0.3,1.3,1C185.2,149,184.8,149.3,184,149.4z"/>
	<path d="M210.2,149.7c-0.5-0.1-0.9-0.3-1-1c0-0.6,0.6-1.2,1.4-1.2c0.6,0,1,0.3,1.1,0.9C211.8,149,211.1,149.6,210.2,149.7z"/>
	<path d="M170.1,148.1c0,0.7-0.5,1.3-1.2,1.2c-0.6-0.1-0.9-0.5-0.9-1.1c0-0.9,0.5-1.5,1.1-1.4C169.8,146.8,170.2,147.2,170.1,148.1z
		"/>
	<path d="M173.6,146.7c0,0.6-0.8,1.5-1.4,1.5c-0.6,0-1-0.4-1-1c0-0.6,0.8-1.3,1.4-1.3C173.1,145.8,173.5,146.2,173.6,146.7z"/>
	<path d="M209,157.7c-0.5-0.1-0.8-0.4-0.8-1c0-0.6,0.8-1.3,1.4-1.3c0.6,0,1,0.4,1,1C210.6,156.9,209.7,157.7,209,157.7z"/>
	<path d="M193,143.3c0.9,0,1.4,0.4,1.3,1.1c-0.1,0.7-0.5,0.9-1.1,0.9c-0.9,0-1.4-0.4-1.4-1.1C191.8,143.7,192.3,143.3,193,143.3z"/>
	<path d="M196.4,156.7c-0.5-0.1-0.9-0.4-0.9-1c0-0.7,0.6-1.1,1.5-1.1c0.6,0,1,0.4,1,1C197.9,156.3,197.2,156.8,196.4,156.7z"/>
	<path d="M214.9,140.1c-0.4,0-0.8-0.3-0.9-0.9c0-0.7,0.5-1.1,1.4-1.1c0.7,0,1,0.3,1.1,1C216.6,139.7,215.9,140.1,214.9,140.1z"/>
	<path d="M182,146.2c-0.8,0-1.3-0.4-1.2-1c0-0.6,0.5-1,1.3-1c0.7,0,1.1,0.3,1.2,1C183.2,145.9,182.8,146.2,182,146.2z"/>
	<path d="M172.6,157.8c0.6,0.1,0.9,0.4,0.9,1.1c0,0.9-0.5,1.4-1.1,1.4c-0.6,0-1-0.5-1-1.1C171.4,158.3,171.8,157.7,172.6,157.8z"/>
	<path d="M222.7,141.3c-0.6-0.1-0.9-0.4-1-1c0-0.5,0.8-1.2,1.4-1.2c0.6,0,1,0.4,1,1C224.2,140.7,223.4,141.3,222.7,141.3z"/>
	<path d="M183.3,141.5c1.1,0,1.7,0.5,1.7,1.1c0,0.6-0.5,1-1.1,1c-0.9,0-1.5-0.5-1.4-1.1C182.5,141.8,182.9,141.5,183.3,141.5z"/>
	<path d="M171.5,142.8c0.5,0,0.9,0.3,0.9,0.9c0,0.6-0.6,1.2-1.4,1.2c-0.6,0-1-0.4-1-1C169.9,143.4,170.6,142.9,171.5,142.8z"/>
	<path d="M171.1,156.4c0,0.6-0.4,1.1-1,1.1c-0.6,0-1-0.6-1-1.4c0-0.7,0.3-1.1,1-1.1C170.8,155,171.1,155.5,171.1,156.4z"/>
	<path d="M209.9,140.9c0.5,0,0.9,0.3,0.9,0.9c0.1,0.6-0.6,1.2-1.4,1.2c-0.6,0-1-0.3-1-0.9C208.4,141.5,209,140.9,209.9,140.9z"/>
	<path d="M225.8,140.9c0.5,0.1,0.9,0.4,0.9,1c0,0.6-0.8,1.2-1.5,1.2c-0.6,0-0.9-0.4-0.9-1C224.3,141.5,225,140.9,225.8,140.9z"/>
	<path d="M203.9,147.6c-0.6,0-1.1-0.4-1.1-1c0-0.6,0.6-1,1.4-1.1c0.7,0,1.1,0.3,1.1,1C205.3,147.1,204.7,147.6,203.9,147.6z"/>
	<path d="M186.4,146.1c-0.8,0-1.2-0.4-1.2-1c0-0.6,0.5-1,1.3-0.9c0.7,0,1.1,0.3,1.2,1C187.7,145.8,187.2,146.1,186.4,146.1z"/>
	<path d="M199.3,148.5c-0.4,0-0.8-0.3-0.8-1c0-0.6,0.5-1,1.3-1c0.7,0,1,0.3,1.1,1C200.9,148.1,200.3,148.5,199.3,148.5z"/>
	<path d="M219.3,140.3c-0.6,0-1-0.3-1-0.9c-0.1-0.6,0.7-1.2,1.5-1.1c0.6,0,1,0.4,1,1C220.7,139.8,220.1,140.3,219.3,140.3z"/>
	<path d="M197.1,145.8c-0.8,0-1.3-0.4-1.2-1c0-0.6,0.5-1,1.3-1c0.7,0,1.1,0.2,1.2,1C198.3,145.4,197.9,145.8,197.1,145.8z"/>
	<path d="M193.6,151.5c0.7,0,1.1,0.3,1.2,1c0.1,0.6-0.5,1-1.2,1c-0.7,0-1.1-0.3-1.2-1C192.3,151.9,192.8,151.5,193.6,151.5z"/>
	<path d="M196.7,151.1c-0.7,0-1.1-0.3-1.2-1c0-0.6,0.5-1,1.2-1c0.7,0,1.1,0.3,1.2,1C198,150.7,197.5,151.1,196.7,151.1z"/>
	<path d="M218.9,141.4c0,0.7-0.6,1.2-1.4,1.2c-0.6,0-1-0.4-1-1c0-0.6,0.7-1.2,1.4-1.1C218.5,140.5,218.9,140.8,218.9,141.4z"/>
	<path d="M170.4,164.2c0,0.7-0.7,1.4-1.3,1.4c-0.6,0-1-0.4-1-1c0-0.6,0.8-1.3,1.3-1.3C170.1,163.3,170.4,163.7,170.4,164.2z"/>
	<path d="M216.8,146.2c0.5,0,0.9,0.3,1,1c0.1,0.6-0.6,1.2-1.3,1.2c-0.6,0-1-0.3-1-0.9C215.3,146.8,216,146.3,216.8,146.2z"/>
	<path d="M176.9,153.5c0,0.7-0.7,1.4-1.3,1.4c-0.6,0-1-0.4-1-1c0-0.6,0.7-1.3,1.3-1.3C176.6,152.7,176.9,153,176.9,153.5z"/>
	<path d="M226.3,137.8c0,0.7-0.6,1.2-1.4,1.2c-0.6,0-1-0.3-1-1c0-0.6,0.6-1.1,1.4-1.1C225.9,136.9,226.2,137.3,226.3,137.8z"/>
	<path d="M194.5,148.4c-0.8,0-1.3-0.4-1.2-1c0-0.7,0.5-1,1.1-1c0.8,0,1.3,0.4,1.2,1C195.7,148.1,195.2,148.4,194.5,148.4z"/>
	<path d="M210.7,152.9c0-0.8,0.6-1.5,1.2-1.4c0.6,0.1,0.9,0.4,0.9,1.1c0,0.7-0.6,1.3-1.2,1.3C211,153.9,210.7,153.5,210.7,152.9z"/>
	<path d="M220.7,144.6c-0.5,0-0.9-0.3-0.9-1c0-0.6,0.5-1.1,1.3-1.1c0.6,0,1,0.3,1.1,0.9C222.2,144.1,221.6,144.6,220.7,144.6z"/>
	<path d="M185.6,150.5c0.7,0,1.4,0.5,1.4,1.1c0,0.6-0.4,1-1,1c-0.7,0.1-1.3-0.5-1.3-1.1C184.7,150.9,185.1,150.6,185.6,150.5z"/>
	<path d="M173.8,153.8c0,0.7-0.4,1.2-1,1.2c-0.6,0-1-0.5-1-1.2c0-0.7,0.4-1.2,1-1.2C173.5,152.7,173.8,153.1,173.8,153.8z"/>
	<path d="M200.4,152.7c0,0.6-0.6,1-1.3,1c-0.6,0-1-0.4-1-1c0-0.6,0.6-1.1,1.3-1.1C200,151.7,200.5,152.2,200.4,152.7z"/>
	<path d="M204.8,153.8c0,0.7-0.7,1.1-1.4,1c-0.6-0.1-0.9-0.4-0.9-1c0-0.6,0.7-1.1,1.4-1C204.5,152.9,204.8,153.3,204.8,153.8z"/>
	<path d="M188.7,148.9c-0.1,0.5-0.4,0.9-1,0.9c-0.6,0-1.2-0.6-1.2-1.1c0-0.6,0.4-0.9,1-1C188.2,147.7,188.7,148.3,188.7,148.9z"/>
	<path d="M211.8,144.1c0.7,0,1.3,0.5,1.2,1.1c-0.1,0.6-0.4,0.9-1.1,0.9c-0.7,0-1.1-0.3-1.2-1C210.7,144.5,211.3,144.1,211.8,144.1z"
		/>
	<path d="M176.3,143.3c0,0.6-0.6,1.2-1.2,1.1c-0.6,0-1-0.4-1-1c0-0.6,0.6-1.1,1.2-1.1C175.9,142.4,176.2,142.7,176.3,143.3z"/>
	<path d="M167.7,146.1c-0.5,0-0.9-0.4-0.9-1c0-0.6,0.6-1.1,1.2-1.1c0.6,0,1,0.4,1,1C169,145.6,168.4,146.1,167.7,146.1z"/>
</g>
<g>
	<path d="M48.2,274.2c-0.3,3.7-0.6,7.5-0.7,11.2c-0.1,1.8,0.2,2,2,2.5c1.5,0.4,2.7,1.1,3.1,2.7c0.3,1.1-0.1,1.5-1.2,1.6
		c-2.2,0.2-4.4-0.1-6.3-1.3c-0.9,1.3-1.4,1.5-2.5,1.1c-1-0.4-1.5-1.3-1.3-2.6c0.5-3.9,1.1-7.7,1.6-11.6c0.3-2.2,0.5-4.4,0.7-6.5
		c0.1-0.6-0.1-0.9-0.6-1c-0.3-0.1-0.5-0.2-0.7-0.3c-2.1-1.1-2.6-2.5-1.6-4.7c-0.8,0.1-1.5,0.4-1.9,1.1c-0.5,0.9-1.1,1.1-1.9,0.9
		c-0.7-0.2-1-0.7-1.1-1.7c0-0.1,0-0.1,0-0.2c-1.4-0.2-1.8-1.5-2.3-2.5c-0.4-0.7,0-1.4,0.4-2.1c1.2-1.7,2.3-3.5,3.6-5.4
		c-0.5-0.1-0.9-0.1-1.3-0.2c-0.8-0.2-1.7-0.3-2.4-0.7c-1.2-0.5-1.7-1.7-1.7-3c-0.5,0-0.9,0-1.4-0.1c-1.1-0.2-2.2-0.2-3.3-0.5
		c-1-0.3-1.3-0.9-1.2-2c0-0.2-0.1-0.5-0.2-0.6c-0.6-0.5-1.2-0.9-1.9-1.4c-0.2-0.1-0.5-0.2-0.8-0.2c-1.1-0.3-2.2-0.4-3.3-0.8
		c-0.9-0.3-1.6-0.8-2-1.8c-0.1-0.2-0.3-0.4-0.5-0.6c-0.6-0.7-1.3-1.3-1.7-2c-0.8-1.2-0.7-2.5,0-3.8c0.2-0.3,0.2-0.7,0.2-1
		c-0.1-1.4-0.1-2.7,1.1-3.8c0.2-0.2,0.2-0.5,0.3-0.7c0.4-1.8,1.2-3.3,3-3.9c0.2-0.1,0.3-0.3,0.5-0.5c0.7-0.5,1.4-1.2,2.2-1.6
		c1.1-0.6,2.2-0.4,3,0.5c1.7,1.7,3.1,3.6,3.9,5.9c0.7,2.2,1.2,4.4,1.9,6.6c0,0.1,0.1,0.1,0.1,0.3c0.1,0,0.2,0,0.3-0.1
		c4.8-2.9,10-4.3,15.4-5.3c2.2-0.4,4.5-0.7,6.8-0.8c4.1-0.3,7.5,1.2,10.5,4c1.4,1.3,3.1,2.5,4.7,3.6c1.3,0.9,2.7,1.3,4.3,1.2
		c2-0.1,3.4-1.2,3.9-3.1c0.5-1.8,0.2-3.6-0.3-5.3c-0.9-3.1-2-6.2-2.9-9.3c-1.1-3.7-0.7-7.3,0.2-11c0.1-0.3,0.2-0.7,0.4-1
		c0.7-1.3,1.5-1.8,2.9-1.5c1,0.2,1.9,0.6,2.9,1c0.7,0.3,1.4,0.6,2.1,0.8c0.7,0.3,1.2,0.7,1.2,1.5c0,0.8-0.5,1.3-1.2,1.5
		c-0.8,0.2-1.6,0.3-2.4,0.3c-0.7,0.1-1,0.4-1.2,1c-0.7,2.3-0.8,4.7,0.1,7c1,2.7,2,5.4,3,8.2c1,2.8,1.3,5.7,0.7,8.6
		c-0.7,3.5-2.7,6.1-5.4,8.3c-1.5,1.2-3,2.3-4.4,3.6c-0.6,0.5-1.2,1.3-1.5,2c-1.7,3.5-4.6,5.1-8.3,5.1c-2.4,0-4.8-0.3-7.3-0.5
		c-0.1,0-0.2,0-0.3,0c-1-0.2-1.7,0-2.2,1c-1.3,2.6-2.6,5.2-4,7.7c-0.2,0.4-0.2,0.8,0.3,1.1c2.9,2.1,5.9,4.3,8.8,6.4
		c0.1,0,0.1,0.1,0.2,0.1c1.8,0.9,2.7,2.3,2.8,4.4c0,1.9,0.8,3.6,2.1,5c0.1,0.1,0.1,0.2,0.2,0.2c0.9,1.1,1,1.8,0.4,2.6
		c-0.7,0.9-2,1.2-3,0.7c-0.3-0.1-0.6-0.3-0.9-0.6c-2-2-3.6-4.2-4-7.1c0-0.2-0.2-0.4-0.3-0.6c-1.3-1.1-2.6-2.3-3.9-3.4
		c-1.3-1-2.6-2-3.9-3.1C48.5,274.1,48.4,274.1,48.2,274.2z M24.4,238.6c0.1,0.6,0.5,1.2,0.3,1.6c-0.2,0.4-0.9,0.6-1.4,1
		c0.1,0.3,0.3,0.6,0.5,1c0.5,0.9,0.3,1.3-0.6,1.7c-0.4,0.2-0.7,0.4-1,0.5c0.9,0.4,1.8,0.4,2.5,0.7c0.8,0.3,1.4,1,2.1,1.5
		c0.2,0.1,0.4,0.3,0.6,0.4c1.2,0.8,1.2,0.8,0.7,2.2c0.4,0.1,0.8,0.2,1.2,0.2c1,0.1,1.9,0,2.9,0.2c1.6,0.3,1.6,0.4,1.7,2
		c0,0.1,0,0.2,0,0.2c0.1,0.9,0.8,1.3,2.1,1.5c0.8,0.1,1.5,0.2,2.3,0.5c0.4,0.1,0.6,0.1,0.9-0.2c0.8-0.8,1.7-1.6,2.5-2.4
		c0.3-0.3,0.5-0.6,0.6-1c0.5-2.2,1.3-4.3,3-5.9c0.2-0.2,0.3-0.5,0.4-0.7c0.7-2.2,2.5-3.8,4.7-3.7c2.8,0.1,5.5,0.3,8.3,0.7
		c0.8,0.1,1.6,0.6,2.4,1c0.5,0.3,0.5,0.9,0.1,1.3c-0.4,0.4-0.8,0.4-1.3,0.2c-0.4-0.2-0.9-0.6-1.4-0.6c-2.6-0.3-5.3-0.5-8-0.7
		c-1-0.1-2.1,0.4-2.5,1.4c-0.6,1.6-1.7,2.8-2.7,4.1c-0.1,0.1-0.2,0.3-0.2,0.4c-0.5,1.6-1.1,3.2-1.5,4.8c-0.4,1.7-0.5,3.5-0.8,5.2
		c0,0,0.1-0.1,0.3-0.1c0.9-0.6,1.8-1.3,2.8-1.9c0.8-0.5,1.5-0.3,1.8,0.4c0.4,0.9,0.7,1,1.7,0.7c0.3-0.1,0.6-0.2,0.9-0.3
		c0.9-0.1,1.6,0.3,1.7,1.2c0,0.2,0.1,0.3,0.1,0.5c0.2,0,0.4,0,0.5-0.1c1.4-0.7,2.9-0.6,4.5-0.5c2.2,0.2,4.5,0.4,6.7,0.5
		c3.2,0,5.6-1.3,6.9-4.4c0.3-0.7,0.8-1.3,1.3-1.8c0.8-0.7,1.6-1.4,2.4-2.1c1.5-1.3,3.2-2.6,4.6-4.1c1.3-1.3,2.1-2.9,2.5-4.8
		c-0.6-0.3-1.2-0.6-1.8-0.9c-1.5,3.1-3.5,4.3-6.5,4.1c-1.5-0.1-3-0.5-4.3-1.4c-1.8-1.2-3.5-2.5-5.1-3.9c-2.7-2.5-5.8-3.8-9.5-3.5
		c-1.9,0.2-3.7,0.3-5.6,0.7c-5.5,1-10.9,2.3-15.7,5.3c-0.2,0.1-0.4,0.2-0.6,0.3c-1,0.3-1.8,0-2.3-1c-0.2-0.4-0.3-0.8-0.3-1.2
		c-0.1-0.7-0.5-1.1-1.1-1.5c0,0.6-0.1,1-0.1,1.5c0,0.5-0.2,1-0.7,1.1c-0.4,0-0.8-0.2-1.1-0.5c-0.5-0.5-0.8-1-1.2-1.6
		C25,238.4,24.6,238.5,24.4,238.6z M22.1,239.4c-0.1,0-0.2-0.1-0.2-0.1c0.1-0.6,0-1.4,0.3-1.6c1-0.6,2.1-1.1,3.2-1.4
		c0.4-0.1,0.9,0.4,1.5,0.6c0.2-0.9,0.8-1.4,1.9-1.3c-0.6-2.7-2-4.9-3.8-6.9c-0.7-0.8-1.1-0.9-2-0.2c-1,0.7-1.5,1.9-2.9,2.2
		c-0.3,0.1-0.6,0.6-0.8,1c-0.2,0.5-0.3,1.1-0.4,1.6c-0.1,0.3-0.1,0.7-0.3,0.9c-1.3,0.7-1,1.8-0.8,2.9c0.1,0.6,0.1,1-0.3,1.4
		c-0.8,0.9-0.8,1.7,0,2.7c0.3,0.4,0.7,0.8,1.1,1.1c0.5,0.4,1.1,0.7,1.1,1.4c0,0.2,0.3,0.3,0.4,0.4c0.5-0.5,0.9-0.9,1.2-1.3
		c0.2-0.2,0.3-0.6,0.2-0.8C21.2,240.9,21.2,240,22.1,239.4z M41.5,254.3c-0.1,0-0.2-0.1-0.3-0.1c-1.5,1.5-2.9,3.1-3.9,4.9
		c-0.5,0.9-1.2,1.8-1.8,2.7c-0.1,0.2-0.1,0.6,0,0.7c0.2,0.3,0.3,1,0.9,0.8c0.9-0.3,1.4,0,1.7,0.9c1.7-0.9,3-1.2,5.4-1.3
		c2.9-0.1,4.9-1.7,7-3.3c-0.2-0.4-0.4-0.8-0.6-1.1c-1.5,0.8-2.7,0-3.9-0.6c-1,0.6-1.9,1.3-2.8,1.8c-0.5,0.3-1.1,0.6-1.7,0.7
		c-1.2,0.2-2-0.7-1.5-1.9c0.2-0.4,0.5-0.8,0.6-1.3C40.9,256.2,41.2,255.3,41.5,254.3z M62.9,287.1c0-0.1,0.1-0.1,0.1-0.2
		c-0.1-0.2-0.3-0.4-0.4-0.6c-1.6-1.8-2.4-3.9-2.6-6.3c-0.1-1.2-0.5-1.9-1.5-2.5c-4.2-2.4-7.8-5.5-11.5-8.5c-1.4-1.1-2-2.6-1.5-4.4
		c-1.5-0.2-2.6,0.2-3.2,1.7c-0.3,0.6-0.2,1,0.2,1.4c0.3,0.2,0.6,0.4,0.9,0.5c1.2,0.7,2.5,1.3,3.6,2.2c3,2.3,5.9,4.7,8.9,7.1
		c0.5,0.4,1,0.9,1.6,1.2c0.7,0.4,1.1,1,1.2,1.8c0.3,2.5,1.7,4.3,3.3,6C62.1,286.9,62.6,287,62.9,287.1z M81.7,237.9
		c0.1-1.4-0.2-2.8-0.7-4.2c-1-2.8-2-5.5-3-8.2c-0.9-2.4-1.2-4.9-0.6-7.4c0.4-2,1-3.8,3.5-3.9c-0.7-0.4-1.4-0.8-2.1-1
		c-1.5-0.5-1.8-0.4-2.1,1.1c-0.8,3.3-1,6.7-0.1,10c1.3,4.5,3.4,8.8,3.4,13.5C80.5,237.8,81,237.8,81.7,237.9z M45.6,271.9
		c-0.8,6-1.6,11.9-2.4,17.9c0.8-1,1.2-1.1,2.3-0.7c0.7,0.2,1.4,0.6,2.1,0.8c0.8,0.2,1.6,0.3,2.3,0.4c0-0.1,0-0.2,0.1-0.3
		c-0.6-0.2-1.2-0.4-1.8-0.5c-1.4-0.4-2.3-1.3-2.5-2.8c-0.1-1.1-0.3-2.1-0.2-3.2c0.3-3.3,0.6-6.6,1-9.9
		C46.7,272.7,46.4,272.2,45.6,271.9z M48.1,267.4c0.8-1.8,1.7-3.6,2.6-5.5c-1.3,0.8-2.5,1.6-3.1,3C47.1,265.9,47.2,266.6,48.1,267.4
		z"/>
</g>
<g>
	<path d="M84.8,57.2c-0.1-1-0.4-2.1-0.4-3.1c0-6.3,0-12.5-0.1-18.8c-0.1-6.1-3.4-10.5-9-11.5c-1.7-0.3-3.8,0-5.4,0.6
		c-2.2,0.8-3.2,2.1-1.6,4.8c1.2,2.1,1.6,4.9,1.8,7.5c0.4,5.5,0.1,11.1,0.7,16.5c0.7,6.2,3.3,8.5,9.5,9.2c2.5,0.3,2.3,1.8,2.5,3.5
		c0.2,2-0.9,2.5-2.7,2.5c-2.6-0.1-5.1,0-8.1,0c0.3-1.7,0.5-2.8,0.7-3.6c-2.9-1.9-6.1-3.3-8.5-5.6c-2-1.8-3-4.7-4.5-7
		c-0.4-0.7-1.2-1.6-1.8-1.5c-0.7,0.1-1.6,1-1.8,1.7c-1.3,4.7-2.3,9.5-3.6,14.2c-0.2,0.7-1.2,1.3-1.9,1.9c-0.1,0.1-0.4,0-0.6,0
		c-4.5,0-9,0.1-13.4-0.1c-3.6-0.1-5.4-1.7-6.1-5.4c-0.7-3.7-1.3-7.4-2-11.1c-0.8-4-1.4-7.9-4.2-11.5c-2-2.7-2.2-6.7-3.2-10.3
		c-0.4,0.1-1.6,0.7-2.2,0.3c-1.9-1-3.9-2.2-5.3-3.7c-0.5-0.5,0.3-2.5,0.8-3.7c0.7-1.5,1.8-2.6,1.1-4.7c-0.8-2.4,3.9-6.9,7.5-7.4
		c2.3-0.3,4.9-0.2,7,0.5c10.6,3.7,21.1,7.7,31.7,11.7c1.3,0.5,2.6,1.3,3.7,1.2c3.1-0.8,6.1-2.4,9.2-2.4c6.4,0,11.8,5.7,12,12.2
		c0.2,7.1,0.1,14.2,0,21.3c0,0.7-0.4,1.5-0.6,2.2C85.5,57.2,85.2,57.2,84.8,57.2z M29.3,17c3.1,0.5,3.4,2.6,3.1,4.6
		c-0.6,4.8-4,6.4-8.4,6.5c-0.6,5.2-0.3,9.8,3.7,13.5c0.7,0.6,1,1.8,1.2,2.7c1.1,5.7,2.1,11.5,3.3,17.2c0.3,1.4,1.2,2.7,1.8,4
		c0.3-0.1,0.6-0.2,0.9-0.3c0-8.3,0.2-16.6-0.1-24.8c-0.1-2.8-2.3-4.6-5-5.3c-0.9-0.2-1.7-0.6-2.5-1c0.1-0.4,0.2-0.8,0.3-1.2
		c1.5,0.3,3.1,0.2,4.4,0.8c4.4,2,5.4,6,5,10.6c2.9,0,5.3-0.1,7.6,0c1.7,0.1,2.6-0.4,3.1-2.2c1.3-4,4.3-6.3,8.4-7.1
		c0.9-0.2,1.8,0.3,2.7,0.4c-0.6,1.1-1.1,1.4-1.7,1.5c-5.8,1.4-7.8,3.8-7.9,9.8c-0.1,4.7,0,9.4,0,14.1c0,0.8,0.2,1.7,0.3,2.5
		c0.3,0,0.6,0.1,0.9,0.1c1.2-4,2.4-8,3.5-12.1c0.5-2.1,1.5-3,3.8-3.3c5.1-0.7,8.6-4.2,9.8-9.1c-6.8-2.7-7.7-7.3-3.7-12.7
		c-2-0.9-4-1.8-6-2.6C48.4,20,38.8,16.5,29.2,13c-4.9-1.8-8.9-0.5-10.9,3.6c0.6,0.1,1.3,0.3,1.8,0.2c2.6-0.2,3.6,0.7,2.4,3.3
		c-0.2,0.5-0.3,1-0.4,1.5c-0.8,3,0.9,4.8,4,4.3c3-0.5,4.7-3.4,3.9-6.4C29.9,18.7,29.6,17.9,29.3,17z M47,46.6c-3.4,0-6.5,0-9.7,0
		c0,5.7,0,11.1,0,16.8c3.4,0.1,6.5,0.3,9.7,0.4C47,57.7,47,52.3,47,46.6z M70.5,60.8c-1-5.4-2-10.8-3-16c-1.6,1.2-3.5,2.5-5.2,4
		c-0.5,0.5-1,1.6-0.8,2.3C63.3,55.8,66.3,59.3,70.5,60.8z M19.7,19.3c-0.3,0-0.5-0.1-0.8-0.1c-0.8,1.2-1.7,2.3-2.4,3.5
		c-0.7,1.2-2.3,2.4-0.5,4c1.6,1.5,3.2,1.7,4.3,0.7C20.1,24.4,19.9,21.8,19.7,19.3z M67.1,36.7c0.5-0.3,1-0.7,1.5-1
		c-0.8-2.4-1.6-4.8-2.4-7.2c-0.5,0-0.9,0-1.4,0c-0.4,1.4-1.3,3.1-0.9,4.2C64.3,34.2,65.9,35.3,67.1,36.7z"/>
</g>
</svg>
