<?xml version="1.0" encoding="utf-8"?>
<!-- Generator: Adobe Illustrator 21.0.2, SVG Export Plug-In . SVG Version: 6.00 Build 0)  -->
<svg version="1.1" id="Layer_1" xmlns="http://www.w3.org/2000/svg" xmlns:xlink="http://www.w3.org/1999/xlink" x="0px" y="0px"
	 viewBox="0 0 144.1 180" style="enable-background:new 0 0 144.1 180;" xml:space="preserve">
<style type="text/css">
	.st0{fill:#FFFFFF;}
</style>
<path d="M-765.1-217.8c-12-22.2-23.5-43.4-35-64.6c-3.2-5.8-5.3-13.6-10.3-16.6c-4.8-2.9-12.6-1-19.1-0.8
	c-36.5,1.2-64.3-21.9-73.6-48.7c-3-8.6-4.8-18.1-4.9-27.3c-0.5-44.8-0.4-89.7-0.2-134.5c0.2-42.9,32.8-75.7,75.6-76
	c45.2-0.3,90.3-0.3,135.5,0c42.4,0.3,75,32.9,75.3,75.2c0.4,45.3,0.4,90.7,0,136c-0.3,42.3-33.1,74.7-75.4,75.2
	c-6.2,0.1-12.3,0.2-18.5-0.1c-3.5-0.2-5.3,1-7,4.1c-13,24.2-26.1,48.3-39.2,72.5C-762.8-221.8-763.7-220.2-765.1-217.8z
	 M-802.1-358.9c0-2.2,0-4,0-5.8c0-25.5,0-51,0-76.5c0-2.6,0.1-4.5,3.1-5.8c13.4-5.8,21.5-16.4,26-30c4.7-14.3,2.3-29,2.9-43.7
	c-8.6,0-16.7,0-24.6,0c-2.1,15,3.4,30.8-6.1,44.2c-0.5,0-1-0.1-1.5-0.1c0-14.7,0-29.4,0-44c-8.5,0-16.4,0-24.8,0c0,15,0,29.7,0,44.4
	c-11-13.5-4.9-29.7-7.4-44.5c-8.1,0-16.1,0-24.4,0c0,10.4-0.7,20.6,0.2,30.6c1.7,19.5,10.4,35,28.9,43.4c2.8,1.3,2.8,3.1,2.8,5.5
	c0,25.7,0,51.3,0,77c0,1.8,0,3.5,0,5.4C-818.5-358.9-810.7-358.9-802.1-358.9z M-703.2-359c0.1-1.5,0.2-2.8,0.2-4.1
	c0-22.3,0-44.7,0.1-67c0-1.7,1.2-4.4,2.5-5c28.3-11.9,39.2-52.3,19-80.2c-10.6-14.6-27.7-21.2-43.8-17c-19.1,5-32.6,22.7-34.6,45.4
	c-1.9,21.2,9.6,42.5,27.7,50.8c3.4,1.5,4.2,3.3,4.2,6.7c-0.1,21.7-0.1,43.3-0.1,65c0,1.8,0,3.5,0,5.4
	C-719.3-359-711.4-359-703.2-359z"/>
<path d="M-696-480.8c-0.2,5.7-2.3,12.8-8.1,18.5c-6.7,6.6-15.4,6.7-22.3,0.3c-11.1-10.2-11.2-31.5-0.2-41.9
	c6.9-6.5,15.9-6.4,22.7,0.4C-699-498.5-696-490.9-696-480.8z"/>
<circle cx="72.4" cy="73" r="57.8"/>
<g>
	<path class="st0" d="M261,102.1c-2.7,0-5.1,0-7.8,0c0-0.6,0-1.1,0-1.7c0-8,0-16,0-24c0-0.7,0-1.3-0.9-1.7c-5.8-2.6-8.5-7.5-9-13.6
		c-0.3-3.1,0-6.3,0-9.6c2.6,0,5.1,0,7.6,0c0.8,4.6-1.1,9.7,2.3,13.9c0-4.6,0-9.2,0-13.9c2.6,0,5.1,0,7.8,0c0,4.6,0,9.2,0,13.7
		c0.2,0,0.3,0,0.5,0c3-4.2,1.3-9.1,1.9-13.8c2.5,0,5,0,7.7,0c-0.2,4.6,0.6,9.2-0.9,13.6c-1.4,4.2-3.9,7.6-8.1,9.4c-1,0.4-1,1-1,1.8
		c0,8,0,15.9,0,23.9C261,100.9,261,101.4,261,102.1z"/>
	<path class="st0" d="M291.9,102.1c-2.6,0-5,0-7.7,0c0-0.6,0-1.1,0-1.7c0-6.8,0-13.5,0-20.3c0-1.1-0.2-1.6-1.3-2.1
		c-5.7-2.6-9.2-9.2-8.6-15.8c0.6-7.1,4.8-12.6,10.8-14.2c5-1.3,10.4,0.7,13.7,5.3c6.3,8.7,2.9,21.3-5.9,25c-0.4,0.2-0.8,1-0.8,1.6
		c-0.1,7,0,13.9,0,20.9C291.9,101.2,291.9,101.6,291.9,102.1z M294.1,64.1c0-3.2-0.9-5.5-2.5-7.1c-2.1-2.1-4.9-2.1-7.1-0.1
		c-3.4,3.2-3.4,9.9,0.1,13.1c2.2,2,4.9,2,7-0.1C293.4,68.1,294,65.9,294.1,64.1z"/>
</g>
<path d="M-523.1,93.7c5.7-0.4,10.3-0.3,14.7-1C-438.2,82-404-0.9-446.5-57.7c-20.6-27.6-41.3-55.2-62-82.8c-8.2-10.9-18.8-10.9-27,0
	c-20.6,27.4-41.4,54.7-61.7,82.3c-23,31.2-25.5,65.1-8.6,99.4C-588.8,75.3-560,92.4-523.1,93.7z"/>
<path class="st0" d="M-273.4,102.5c-8.5-0.3-15.1-4.2-19-12.1c-3.9-7.9-3.3-15.6,2-22.8c4.7-6.3,9.4-12.6,14.2-18.9
	c1.9-2.5,4.3-2.5,6.2,0c4.7,6.3,9.5,12.7,14.2,19c9.7,13,1.9,32.1-14.2,34.5C-271,102.4-272.1,102.4-273.4,102.5z"/>
<g>
	<path class="st0" d="M-103.7,84.2c0-4.7,0-9.5,0-14.2c0-3.1,1.3-5.6,3.8-7.5c0.2-0.2,0.4-0.4,0.4-0.7c0.8-4.1,3-7.1,6.7-9.1
		c0.2-0.1,0.4-0.5,0.4-0.7c0.1-1.6,0-3.1,0.1-4.7c0.2-3.2,3-5.7,6.3-5.7c3.3,0,6.1,2.5,6.3,5.8c0.1,1.5,0.1,3.1,0.1,4.6
		c0,0.4,0.1,0.6,0.5,0.8c3.6,2,5.8,5,6.6,9c0.1,0.3,0.3,0.6,0.5,0.8c2.4,1.8,3.7,4.2,3.7,7.2c0,9.6,0,19.2,0,28.9
		c0,5-3.9,8.9-8.9,8.9c-5.9,0-11.7,0-17.6,0c-5,0-8.9-3.9-8.9-8.9C-103.7,93.8-103.7,89-103.7,84.2z M-98.9,97.3c0,0.5,0,1,0,1.4
		c0,2.2,1.8,3.9,3.9,3.9c6,0,11.9,0,17.9,0c2.1,0,3.9-1.8,3.9-3.9c0-9.7,0-19.4,0-29.1c0-2.2-1.8-3.9-3.9-3.9c-5.9,0-11.9,0-17.8,0
		c-1.8,0-3.4,1.2-3.8,2.9c-0.2,0.9-0.2,1.9-0.2,3c0.4,0,0.6,0,0.9,0c2.4,0,4.8,0,7.2,0c0.3,0,0.5,0,0.8,0.1c1.2,0.3,2,1.4,1.9,2.6
		c-0.1,1.2-1.1,2.2-2.4,2.2c-2.5,0-5,0-7.6,0c-0.2,0-0.5,0-0.7,0c0,1.9,0,3.7,0,5.6c0.3,0,0.5,0,0.8,0c2.4,0,4.8,0,7.2,0
		c0.3,0,0.5,0,0.8,0.1c1.2,0.3,2,1.4,1.9,2.6c-0.1,1.2-1.1,2.2-2.4,2.2c-2.5,0-5,0-7.6,0c-0.2,0-0.5,0-0.7,0c0,1.9,0,3.8,0,5.6
		c2.8,0,5.5,0,8.2,0c1,0,1.7,0.4,2.2,1.3c0.9,1.6-0.3,3.5-2.2,3.6C-93.3,97.3-96.1,97.3-98.9,97.3z M-77.9,60.8
		c-1-2.2-2.6-3.6-4.8-4.4C-84,56-85.5,56-86.9,56c-1.8,0-3.5,0.6-4.9,1.7c-1.1,0.8-1.9,1.8-2.4,3.1C-88.7,60.8-83.3,60.8-77.9,60.8z
		 M-84.5,51.2c0-1.2,0-2.3,0-3.4c0-0.8-0.7-1.4-1.4-1.4c-0.8,0-1.5,0.5-1.6,1.2c-0.1,1.2,0,2.3,0,3.5
		C-86.5,51.2-85.6,51.2-84.5,51.2z"/>
</g>
<path class="st0" d="M-176.3,84.9c1.8-1.8,3.6-3.6,5.5-5.4c-1.1-2.1-1.3-4-0.7-6.6c-5.9-3.2-5.9-11.6,0-14.9
	c-0.8-3.2-0.2-6.1,2.1-8.4c2.3-2.4,5.2-3,8.4-2.1c1.7-2.8,4.1-4.4,7.4-4.4c3.3,0,5.7,1.6,7.4,4.4c3.2-0.8,6.1-0.2,8.4,2.1
	c2.4,2.3,3,5.2,2.1,8.4c0.1,0.1,0.2,0.2,0.4,0.2c5.4,3.4,5.4,11,0,14.3c-0.3,0.2-0.4,0.3-0.3,0.6c1.5,6.4-4.1,11.9-10.4,10.2
	c0,0-0.1,0-0.2,0c-1.7,2.8-4.1,4.4-7.4,4.4c-3.3,0-5.7-1.6-7.4-4.4c-2.3,0.6-4.5,0.4-6.6-0.7c-1.8,1.8-3.6,3.6-5.5,5.5
	c1.6,2.7,2,5.5,1.1,8.5c-0.7,2.3-2.1,4.2-4.2,5.5c-4.2,2.7-9.7,2-13.2-1.7c-3.3-3.6-3.6-9.2-0.6-13.1
	C-186.9,83.4-181.1,82-176.3,84.9z M-138.8,65.7c0-1.5-0.2-3-0.7-4.5c-2.1-5.8-6.2-9.2-12.4-9.9c-3.8-0.4-7.3,0.7-10.3,3
	c-0.3,0.2-0.4,0.4-0.3,0.8c0.3,1.1,0.6,2.2,1,3.2c2.6,5.9,6.9,10.4,12.4,13.7c2.1,1.3,4.3,2.1,6.7,2.5c0.4,0.1,0.7,0,0.9-0.4
	C-139.7,71.6-138.8,68.8-138.8,65.7z M-147.1,78.7c-4.8-1.2-8.7-3.8-12-7.2c-3.4-3.4-6-7.3-7.2-12c-2.3,4.3-2.2,11.1,2.4,16
	C-159.2,80.7-152,81.2-147.1,78.7z M-175.7,93.6c0-3.4-2.7-6.1-6.1-6.1c-3.4,0-6,2.7-6,6.1c0,3.4,2.7,6.1,6,6.1
	C-178.4,99.7-175.7,97-175.7,93.6z"/>
<g>
	<path class="st0" d="M76,65.1c0.3,2,0.7,3.8,1,5.7c0.3,0,0.7,0,1,0c4.2,0,8.4,0,12.5,0c2.5,0,3.8,1.2,4.3,3.6c1,5.8,2,11.5,3,17.3
		c0.4,2.4-0.8,4.4-3,4.8c-2.2,0.4-4.1-1.1-4.5-3.4c-0.8-4.6-1.6-9.3-2.4-13.9c-0.1-0.7-0.4-0.7-1-0.7c-4.5,0-9.1,0-13.6,0
		c-3.3,0-5.1-1.5-5.6-4.8c-0.9-5-1.8-10-2.6-15c-0.5-2.8,1.3-5.1,4.1-5.6c2.5-0.4,4.9,1.3,5.5,4c0.2,0.8,0.4,1.7,0.5,2.6
		c0.1,0.7,0.4,0.8,1,0.8c3.6,0,7.2,0,10.8,0c1.9,0,3,1.8,2.2,3.4c-0.5,0.9-1.3,1.3-2.3,1.3c-3.2,0-6.4,0-9.7,0
		C76.6,65.1,76.4,65.1,76,65.1z"/>
	<path class="st0" d="M71.2,106.3c-11.4-0.1-20.9-8.4-22.5-19.8c-1.2-8.9,3.2-17.7,11-22.3c1.1-0.7,2.2-0.5,2.7,0.5
		c0.6,0.9,0.2,2-0.9,2.7c-4.2,2.5-7,6.1-8.5,10.7c-3.6,11.2,4.1,23.1,15.7,24.4c6.5,0.7,12-1.4,16.5-6.1c0.3-0.4,0.7-0.7,1.1-0.9
		c0.8-0.3,1.5-0.1,2.1,0.6c0.5,0.7,0.5,1.5-0.1,2.2c-0.7,0.8-1.5,1.6-2.3,2.3C81.9,104.4,76.9,106.2,71.2,106.3z"/>
	<path class="st0" d="M70.2,39.4c3.4,0,6.2,2.7,6.2,6.2c0,3.5-2.8,6.3-6.2,6.3c-3.4,0-6.2-2.8-6.2-6.3
		C63.9,42.2,66.7,39.4,70.2,39.4z"/>
</g>
</svg>
