<?xml version="1.0" encoding="utf-8"?>
<!-- Generator: Adobe Illustrator 21.0.2, SVG Export Plug-In . SVG Version: 6.00 Build 0)  -->
<svg version="1.1" id="Layer_1" xmlns="http://www.w3.org/2000/svg" xmlns:xlink="http://www.w3.org/1999/xlink" x="0px" y="0px"
	 viewBox="0 0 100 125" style="enable-background:new 0 0 100 125;" xml:space="preserve">
<polygon points="58.1,377.7 60.2,377.9 58.1,375.6 "/>
<path d="M19.1,409.1c0.6,0,1.1-0.5,1.1-1.1c0-0.6-0.5-1.1-1.1-1.1h-5.4c-0.6,0-1.1,0.5-1.1,1.1c0,0.6,0.5,1.1,1.1,1.1H19.1z"/>
<path d="M62.8,373.8c-0.1-0.1-2.9-3-6-3.7l-0.7-3.8c0,0,0,0,0,0c-0.2-0.9-1-0.8-1.2-0.8l-0.1,0c-0.2,0-3.6,0.8-5.6,3.9
	c-1.1,0.2-4,0.8-7.2,0.8c-2.1,0-3.9-0.2-5.4-0.7c-1.3-0.4-2.3-0.6-3.5-0.6c-0.9,0-1.7,0.1-2.6,0.2c-1.2,0.2-2.5,0.3-4.5,0.3
	c-3.1,0-7-0.5-11.8-1.4c-1.9-0.4-3.7-0.6-5.4-0.6c-12.9,0-17,10.5-17.2,11c-0.1,0.2-6.7,17.2-17.3,14c-0.2-0.1-1.3-0.4-2.3,0.2
	c-0.6,0.3-1,0.8-1.2,1.5c-0.3,0.9,0,1.5,0.2,1.9c0.5,0.9,1.5,1.1,1.9,1.2c0.4,0.1,2,0.6,4.1,0.6c3,0,7.2-0.9,10.9-4.7
	c2.9-3,4.6-5.3,5.7-7c0.5,3.5,0.4,7.4-2.3,9.5l0,0c0,0-0.6,0.5-0.4,1.6l1.3,9.6h-2.9h-0.8c-0.6,0-1.1,0.5-1.1,1.1s0.5,1.1,1.1,1.1
	h0.8h3.2H4h5.1h0.5c0.6,0,1.1-0.5,1.1-1.1s-0.5-1.1-1.1-1.1H9.1h-5c-0.1-1-0.4-2-1.2-3c-1-1.1-2.6-1.6-4.5-1.3
	c-0.3-1.2-0.6-3.3,1.5-4.6c3.5-2.2,5.2-4.5,6.7-8.8c2.4,1.5,8.2,4.4,15.6,4.4c3.9,0,7.7-0.8,11.4-2.4c-0.1,3.5,0.2,10.8,4.2,15.6
	h-3.5h-0.5c-0.6,0-1.1,0.5-1.1,1.1s0.5,1.1,1.1,1.1h0.5h4h2.1h10.2h4.3h3.3h1.1c0.6,0,1.1-0.5,1.1-1.1s-0.5-1.1-1.1-1.1h-1.1h-3.3
	h-4.5c-0.4-1.9-1.7-4.4-4.8-4.4c-0.5,0-1.1,0.1-1.6,0.2c-0.5-1.8-1-4.6,0-5.6c1.9-1.9,6-8.1,6.9-12c0.2,0,0.4,0,0.6,0
	c1.8,0,6.2,0.2,8.7,2.2l0.3,0.3l0.4,0c1.7-0.1,5-1.4,5.6-5.1l0.1-0.3l-3.5-8.1L62.8,373.8z M-13.5,391.6c-5.6,5.8-12.5,3.6-12.8,3.5
	l-0.2,0c-0.2,0-0.4-0.1-0.5-0.2c0,0,0,0,0-0.1c0.1-0.3,0.5-0.2,0.7-0.2c9.9,3,16.4-7.6,18.9-12.7c0.1,0.2,0.1,0.5,0.2,0.8
	C-7.3,383.4-8.4,386.2-13.5,391.6z M0.1,395c-0.4-0.5-0.9-1.1-1.5-1.6c-0.3-0.1-0.9-0.3-1.3,0.4c-0.5,1,0.3,1.6,0.3,1.6s0,0,0,0
	c0.3,0.3,0.5,0.6,0.7,0.9c-3.3,2.3-2.6,6.3-1.7,8.1l0.4,0.8l0.9-0.2c1.6-0.4,2.7-0.3,3.3,0.4c0.4,0.4,0.6,0.8,0.6,1.5h-7.3l-1.3-9.8
	c2.4-2.2,3.1-5.5,2.9-8.7c0.7,0.5,1.5,1.2,2.2,2v0c0,0,0.6,0.8,1.5,0.3h0c0.9-0.5,0.3-1.5,0.2-1.6c-1.4-1.8-3.3-2.9-4.2-3.4
	c-0.5-3.1-1.5-5.7-1.9-6.7c0.5-1.1,2.1-4.3,5.7-6.6c-0.6,2.2-0.9,5.4,1,8.5c2.4,3.7,3.1,7.8,3.2,8.8C3,392.1,1.9,393.6,0.1,395z
	 M43.3,394.4c-0.4-0.5-1-1-1.8-1.4c-0.1,0-1-0.4-1.3,0.6l0,0c-0.3,0.9,0.3,1.3,0.6,1.5c0,0,0.1,0,0.1,0c0,0,0,0,0,0s0,0,0,0
	c0.5,0.3,0.8,0.7,1,0.9c-0.5,0.8-0.7,1.7-0.7,2.7l-1.2,0.1l0.1,0c0,0-0.9,0.1-0.8,1.1c0.1,0.9,0.8,1.1,1,1.1l1-0.1
	c0.3,1.7,0.8,3.1,0.9,3.4l0.4,1.1l1.1-0.4c0.7-0.3,1.4-0.4,1.9-0.4c1.5,0,2.2,1.2,2.5,2.2h-7c-6.4-4.8-5.2-17.2-5.2-17.3l0-0.5
	c0,0,0,0,0,0c0.3-1.6-1.4-0.8-1.4-0.8l-0.2,0.1c-3.9,2-8,3-12.1,3c-9,0-15.5-4.8-15.6-4.8l-1.1-0.8c-0.5-1.8-1.4-4-2.8-6.2
	c-2.4-3.7-0.3-8.2,0-8.7c0.9-0.4,2-0.6,3.1-0.8c-0.6,1.8-1.1,5.3,1.6,9.1c1.8,2.5,2.5,4.8,2.8,6.1l0,0c0,0,0.3,1,1.3,0.8
	c0.9-0.2,0.9-1.1,0.8-1.2c-0.4-1.7-1.2-4.1-3.2-6.8c-3-4.2-1-7.9-0.9-8.1c0.2,0,0.5,0,0.7,0c0.8,0,1.7,0.1,2.6,0.2
	c0.3,1.1,1.1,4.5,1.4,7.7l0,0c0,0,0,1.1,1.2,1c1.1,0,1-1.1,1-1.1c-0.2-2.6-0.8-5.6-1.2-7.2c0,0,0,0,0,0c1.1,0.2,2.2,0.4,3.2,0.6
	c0.3,0.6,2.8,5.5,3,12.5l0,0c0,0,0,0,0,0c0,0,0,0,0,0c0,0.2,0.1,0.8,1.1,0.8l0,0c1,0,1.1-0.7,1.1-0.9c-0.1-5.6-1.6-9.9-2.5-12.1
	c1.9,0.2,3.5,0.5,5.1,0.5c0.5,1.5,1.5,5.8,1.6,13.2v0c0,0,0,0.9,1.1,0.9c1,0,1.1-0.7,1.1-0.9c-0.1-6.8-0.9-11.1-1.5-13.2
	c1.6-0.1,2.8-0.2,3.7-0.4c0.8-0.1,1.6-0.2,2.3-0.2c-0.3,1.7-0.8,5.6-0.1,8.4c0.1,0.1,0.5,0.8,1.4,0.4l0,0c1-0.4,0.7-1.2,0.7-1.2l0,0
	c-0.5-2.2-0.1-5.6,0.2-7.4c0.2,0,0.4,0.1,0.6,0.1c1.1,0.4,2.4,0.6,3.8,0.7c0.3,1.5,0.6,4.3-0.4,8.4c-1.4,6,3.4,10.1,5.3,11.5
	C44.3,393,43.8,393.7,43.3,394.4z M61,385.2c-2.9-2.1-7.2-2.4-9.7-2.4c-1,0-1.6,0.1-1.6,0.1l-0.2,0c-0.5,0-0.8,0.7-0.8,0.7l0,0.3
	c0,0.3-0.1,0.7-0.2,1.1l-0.9-0.8c0,0-0.8-0.6-1.5,0.3c-0.7,0.8,0.3,1.6,0.3,1.6l0,0l1.3,1.1c-0.5,1-1,2.1-1.7,3.1
	c-1.6-1.2-5.4-4.5-4.4-9.1c0.9-4,0.8-6.9,0.5-8.8c1.4,0,2.7-0.1,3.9-0.2c-0.2,1.3-0.3,3.4,0.3,6.2c0,0.1,0.3,0.8,1.2,0.6
	c1-0.2,0.9-1.1,0.9-1.1h0c-0.6-3.2-0.3-5.1-0.1-6c1.1-0.2,1.8-0.4,1.9-0.4l0.5-0.1l0.2-0.4c0.7-1.2,1.8-2,2.5-2.5v0
	c0,0,0.9-0.4,1,0.4l0.6,3.2l0.9,0.1c2.3,0.2,4.7,2.4,5.3,3l3,7.1C63.6,384.4,61.8,385,61,385.2z"/>
<g>
	<path d="M228,492.5c0.4-0.3,0.7-0.4,1-0.6c-2.2-1.9-4.3-3.6-6.4-5.5c-2.9-2.7-6.5-3.8-10.4-4.1c-1.5-0.1-1.5-0.1-2,1.2
		c-0.6,1.5-0.7,3.1-0.7,4.7c0,1.5-0.1,3.1-0.1,4.6c0,0.3,0.1,0.7,0.2,1c1.2,3.3,2,6.6,1.7,10.1c0,0.2,0,0.5-0.1,0.7
		c-0.1,0.7-0.4,1.2-1.2,1.1c-0.8-0.1-1-0.7-0.9-1.4c0.2-2.2,0-4.3-0.6-6.6c-0.6,2.6-0.6,4.9-0.4,7.3c0.2,2.4,0.6,4.8,0.9,7.2
		c0,0.1,0,0.2,0,0.4c0.1,0.7-0.2,1.2-0.9,1.3c-0.7,0.1-1.1-0.3-1.2-1c-1-5.9-1.7-11.8-0.3-17.7c0.5-2.1,0.5-4.4,0.5-6.5
		c-0.1-6,2.5-10.5,7-14.2c2-1.7,4.5-2.4,7.1-2.5c4.8-0.2,9.5,0.9,14.1,1.9c4.2,0.9,8.4,1,12.6-0.3c1.4-0.4,2.7-1.1,3.9-1.8
		c1.6-0.9,3.1-2,4.7-3c0.2-0.1,0.4-0.4,0.4-0.6c-0.1-0.6,0-1.2,0.7-1.4c0.5-0.1,1,0.2,1.5,0.4c0.7-0.1,1.2-0.4,1-1.4
		c-0.1-0.3,0.4-0.9,0.7-1c0.3-0.1,0.8,0.2,1.2,0.3c0.1,0.1,0.2,0.3,0.3,0.5c0.5-0.2,1-0.5,1.6-0.7c-0.1-0.6-0.2-1.1-0.3-1.6
		c-0.1-0.7,0.1-1.2,0.8-1.4c0.7-0.2,1.1,0.2,1.3,0.9c0.1,0.3,0.2,0.7,0.3,1.1c0.6-0.2,1.2-0.4,1.8-0.7c-0.2-0.7-0.4-1.4-0.6-2.2
		c-0.2-0.9,0-1.5,0.7-1.7c0.6-0.2,1.2,0.2,1.4,1.1c0.1,0.5,0.3,1.1,0.5,1.6c0,0.1,0.1,0.1,0.2,0.3c0.6-0.2,1.3-0.4,2-0.7
		c-0.1-0.7-0.2-1.4-0.3-2c-0.1-0.7,0.1-1.3,0.8-1.4c0.6-0.1,1.1,0.3,1.3,1.2c0.1,0.5,0.2,1,0.3,1.6c0.8-0.3,1.6-0.5,2.4-0.8
		c-0.2-0.7-0.4-1.3-0.5-1.9c-0.2-0.7,0-1.2,0.7-1.4c0.7-0.2,1.1,0.1,1.3,0.8c0.1,0.3,0.2,0.6,0.3,1c1.6-1.2,3.5-1.7,5.4-1.8
		c1.2,0,1.6,0.6,1.2,1.7c-0.4,1-1.1,1.9-1,2.9c0.1,0.9,1,1.7,1.5,2.5c0.5,0.9,0.9,1.9,1.3,2.8c1,2.8,2.1,5.4,3.9,7.8
		c1.1,1.5,1.6,3.1,1,4.9c-0.6,1.8-1.8,2.6-3.7,2.4c-1.6-0.1-3-0.7-4.4-1.6c-2.4-1.5-5-2.9-7.6-4.3c-2.3,2.3-4.6,4.5-6.7,6.7
		c-1.8,1.9-2.7,4.3-3.6,6.7c-0.6,1.6-1.3,3.1-2.3,4.5c-1.7,2.6-2.8,5.5-3.5,8.5c-1.1,4.9-2.1,9.9-2.3,15c0,0.1,0,0.1,0,0.2
		c-0.2,1.8,0,3.5,1.3,5c0.2,0.3,0.4,0.6,0.6,0.9c0.4,0.7,0.2,1.4-0.6,1.6c-1.5,0.5-3,0.6-4.6,0.2c-0.7-0.2-1.2-0.6-1-1.4
		c0.1-0.7,0.7-0.9,1.6-0.7c0.6,0.1,1.3,0.1,2.1,0.2c-0.8-1.4-1.3-2.7-3.1-2.6c-0.1,0.2-0.1,0.4-0.3,0.6c-0.4,0.6-1.3,0.7-1.6,0.1
		c-0.5-1-1.2-2-0.7-3.2c1.1-2.8,1.3-5.7,1.3-8.6c0-2,0.1-4,0.1-6c0-2.2-0.1-4.4-0.2-6.6c-7.2,0.5-14.1,0.1-20-4.9
		c-1.5,0.9-3.2,2-4.8,3c-0.3,0.2-0.5,0.4-0.7,0.7c-2,2.8-4,5.7-6,8.5c-1.2,1.6-1.8,3.5-1.8,5.5c0,2.5-0.1,4.9-0.1,7.4
		c0,0.8,0.4,1.6,0.8,2.3c0.9,1.3,1.9,2.6,2.8,3.9c0.8,1.1,0.5,2-0.9,2.1c-1.4,0.1-2.8,0.1-4.2,0c-0.9,0-1.4-0.6-1.3-1.3
		c0.1-0.7,0.6-1,1.6-0.8c0.5,0.1,1.1,0.1,1.6,0.2c0.2,0,0.3,0,0.6,0c-0.8-1.2-1.5-2.4-2.3-3.4c-0.3-0.4-1-0.4-1.4-0.6
		c-0.4-0.2-0.8-0.4-1.3-0.6c-0.4,0.6-0.3,1.1,0.3,1.6c0.9,0.9,1.1,1.5,0.6,2c-0.5,0.6-1.1,0.3-2.1-0.5c-1-0.9-1.1-1.8-1-3.1
		c0.3-4.2,0.3-8.4,0.3-12.6c0-1.7,0.1-3.4,0.9-4.8c1.7-3.2,1.2-6.3-0.4-9.4c-0.9-1.7-1.4-3.5-1.9-5.3c-0.2-0.6-0.2-1.3-0.1-1.9
		c0.1-0.4,0.5-0.8,0.8-1c0.3-0.1,0.7,0.3,1.1,0.5c0.3,0.1,0.5,0.4,0.7,0.5c0.9,0.2,1.8,0.3,2.7,0.5c2,0.3,3.8,1.1,5.5,2.4
		C224,489.6,226,491,228,492.5z M257.6,470.9c-1.3,0.4-1.3,0.5-1.1,1.6c0.6,3.3,0.9,6.6,0.4,10c-0.3,2.3-0.9,4.4-2.4,6.2
		c-0.5,0.6-1,0.8-1.6,0.3c-0.6-0.5-0.4-1-0.1-1.6c0.6-1.1,1.3-2.3,1.7-3.5c0.9-3.6,0.5-7.3-0.1-10.9c-1,0.3-1.3,0.8-1.2,1.8
		c0.5,3.6,0.2,7.2-1.5,10.6c-0.5,1-1,2.1-1.5,3.1c-1.1,2.3-0.7,4.6-0.4,7.1c0.6-0.1,1.1-0.1,1.7-0.2c-0.1-0.4-0.1-0.7-0.1-1
		c-0.2-0.8-0.3-1.7-0.5-2.5c-0.1-0.7,0.4-1.5,1-1.2c1.1,0.4,1.8-0.3,2.6-0.8c1-0.7,2.1-1.4,2.9-2.3c0.9-1,1.2-1.2,2.2-0.4
		c1.2,1,2.4,2,3.6,3c0.9-2,1-2-0.5-3.2c-2.7-2.1-3.8-4.8-4.1-8C258.3,476.2,257.9,473.6,257.6,470.9z M232.8,489.3
		c0.2-1.5-0.3-2.6-1.1-3.4c-1.2-1.2-2.5-2.5-3.9-3.4c-4-2.7-8.6-3.6-13.4-3.9c-1.4-0.1-1.6,0-2.2,1.5c0,0,0,0,0.1,0.1
		c0.6,0.1,1.1,0.1,1.7,0.2c3.6,0.5,6.9,1.6,9.7,4.1c1.7,1.5,3.5,3,5.2,4.5c0.5,0.5,1.2,0.8,1.9,1.4c-0.2-1.1-1-2.1,0.2-2.6
		C232.1,487.2,232.3,488.3,232.8,489.3z M215.2,476.5c1,0.1,1.7,0.2,2.5,0.3c4.8,0.6,9.2,2.2,13.1,5.2c1.4,1.1,2.6,2.3,3.4,3.9
		c0.8,1.6,1.1,3.3,0.3,5c-0.3,0.8,0,1.1,0.6,1.4c0.4-1.1,0.8-2.3,1.2-3.4c1-2.8,0.4-5.2-1.7-7.1c-1.2-1.1-2.5-2.1-4-2.8
		c-3-1.6-6.2-3.1-9.3-4.7c-0.2-0.1-0.4-0.2-0.6-0.2C218.8,474.4,216.9,475.1,215.2,476.5z M226.9,474.4c0,0.1,0,0.2-0.1,0.3
		c0.6,0.3,1.3,0.6,1.9,0.9c2.4,1.2,4.8,2.4,6.8,4.3c3.3,3,4.1,6.2,2.6,10.3c-0.3,0.9-0.6,1.8-0.9,2.7c-0.1,0.2,0,0.7,0.2,0.8
		c0.6,0.3,1.2,0.5,1.9,0.7c-0.1-2.9,0.6-5.4,1.2-8c0.2-0.9,0.2-1.8,0-2.7c-0.4-2.1-1.5-3.8-2.7-5.6c-0.8-1.3-1.8-2.1-3.4-2.3
		C231.9,475.4,229.4,474.8,226.9,474.4z M246.3,476.3c-0.8-0.1-1.2,0.2-1.5,0.9c-0.6,1.5-1.3,2.9-2,4.3c-0.1,0.3-0.3,0.7-0.2,1.1
		c0.4,1.7,0.3,3.3-0.1,5c-0.5,2.1-0.7,4.3-1,6.5c0,0.3,0.1,0.8,0.3,0.8c0.7,0.2,1.4,0.3,2,0.4c0-1.6-0.2-3,0-4.4
		c0.4-2.1,1-4.2,1.7-6.3C246.4,481.8,246.2,479.1,246.3,476.3z M248.5,475.7c-0.2,2.5-0.2,5-0.6,7.4c-0.3,1.7-1,3.3-1.5,4.9
		c-0.7,2.1-1.1,4.3-0.5,6.6c0.3,1.1,0.4,1.2,1.6,1c0-0.2,0-0.4,0-0.6c-0.4-3.2-0.2-6.2,1.5-9c0.4-0.6,0.6-1.3,0.9-1.9
		c1.4-2.8,1.5-5.8,1.2-8.9c0-0.1-0.1-0.2-0.2-0.3C250.1,475.1,249.3,475.4,248.5,475.7z M264.6,467.1c-0.4,0.2-0.7,0.4-1,0.5
		c-0.7,0.2-0.8,0.6-0.7,1.2c0.3,1,0.3,2,0.6,3c0.7,2.9,1.4,5.9,2.2,8.8c0.2,0.7,0.6,1.3,1,2.1c0.5-0.6,0.9-1.1,1.3-1.5
		c0.4-0.4,0.5-0.8,0.4-1.3c-0.6-1.8-1-3.7-1.6-5.5C266.1,471.9,265.4,469.6,264.6,467.1z M260.7,469c-0.5,0.3-1.2,0.3-1.1,1.3
		c0.4,2.9,0.8,5.9,1,8.8c0.3,2.9,1.6,5.2,4.3,6.9c0.1-0.6,0.5-1.4,0.3-1.7c-1.2-1.6-1.8-3.4-2.2-5.3
		C262.2,475.7,261.5,472.4,260.7,469z M270.3,478.8c1.1-0.8,1.1-0.8,1.2-2.1c0.2-4-1.5-7.6-2.9-11.3c-0.7,0.3-1.4,0.5-2,0.8
		C267.9,470.5,269.1,474.6,270.3,478.8z M226.1,493.8c-1.9-1.3-3.7-2.6-5.5-4c-2.1-1.6-4.6-2-7.3-2.3c0.3,0.8,0.5,1.4,0.7,2.1
		c0.1,0.5,0.5,0.7,1,0.8c3.7,0.6,7.2,1.7,10,4.4C225.3,494.5,225.7,494.1,226.1,493.8z M285.7,470.4c-1-2.1-1.8-4-2.8-5.8
		c-0.5-0.9-1.9-0.9-2.6-0.2c-0.1,0.1-0.2,0.3-0.2,0.5c0,1.3,0.1,2.6,0.1,3.9c0,0.3,0.2,0.7,0.5,0.8
		C282.1,470.3,283.7,470.6,285.7,470.4z M223.7,496.7c-2.2-2.6-5.1-3.4-8.3-4.1c0.3,0.7,0.5,1.3,0.7,1.9c0.1,0.3,0.3,0.6,0.5,0.7
		c1.8,0.9,3.6,1.7,5.4,2.6c0.5,0.2,0.8,0.1,1.1-0.3C223.3,497.2,223.5,497,223.7,496.7z M262.1,492.2c-1.2-1-2.3-2-3.2-2.8
		c-2,1.3-3.8,2.5-5.7,3.7c0.1,0.3,0.2,0.8,0.3,1.4c2.5-1.3,4.8-2.8,7.6-0.7C261.4,493.2,261.7,492.8,262.1,492.2z M276.5,474.3
		c0.1,0,0.2,0,0.3,0c1.1-3.9,2.4-7.8,0.2-11.8c-0.8,0.2-1.6,0.5-2.4,0.8c0.5,1.3,0.9,2.6,1.3,3.8c1.6-0.2,2,0.5,1.5,1.9
		c-0.4,1-0.7,1.9-0.9,2.9C276.3,472.7,276.4,473.5,276.5,474.3z M270.6,464.7c1.4,3.6,2.8,7,3.2,10.8c0.3-0.4,0.5-0.8,0.5-1.2
		c0.1-1.3,0.1-2.5,0.2-3.8c0-0.3,0.1-0.6,0-0.8c-0.7-1.9-1.4-3.7-2.1-5.6C271.9,464.2,271.3,464.4,270.6,464.7z M258.5,498.5
		c0,0,0.2-0.2,0.3-0.4c0.3-0.6,0.5-1.3,0.8-1.9c0.2-0.5,0.1-0.9-0.3-1c-0.4-0.2-1-0.4-1.3-0.3c-1.3,0.5-2.6,1.1-3.8,1.7
		c-0.2,0.1-0.2,0.8-0.2,1.2c0,0.2,0.4,0.4,0.6,0.4C255.9,498.3,257.1,498.4,258.5,498.5z M257.2,504.2c0.3-1.2,0.5-2.3,0.9-3.6
		c-1.3-0.1-2.4-0.2-3.6-0.2c0,0.9,0,1.5,0,2.2c0,0.2,0.1,0.5,0.3,0.5C255.5,503.5,256.3,503.8,257.2,504.2z M216.8,497.8
		c-0.1,0.6-0.2,1.2-0.3,1.7c0,0.2,0.1,0.5,0.3,0.6c1,0.6,2.1,1.1,3.2,1.7c0.5-0.7,0.9-1.3,1.4-1.9
		C219.8,499.2,218.4,498.5,216.8,497.8z M282.4,476.6c1.4-1.1,2.7-2.2,4-3.3c0.1-0.1,0.2-0.4,0.2-0.5c-0.1-0.1-0.3-0.3-0.5-0.3
		c-0.7,0-1.4,0-2,0.1c-0.3,0-0.6,0.3-0.7,0.5C283,474.3,282.7,475.5,282.4,476.6z M215.7,502c-0.3,0.9-0.6,1.6-0.8,2.5
		c1,0.2,1.8,0.4,2.7,0.6c0.2,0,0.5-0.1,0.6-0.2c0.3-0.3,0.4-0.7,0.7-1.2C217.8,503.1,216.8,502.6,215.7,502z M279.8,471.5
		c-0.3,1-0.5,1.9-0.7,2.8c-0.4,1.5-0.3,1.5,1.2,2c0.4-1.4,0.7-2.8,1.1-4.2C280.8,471.9,280.3,471.8,279.8,471.5z M282.3,459.3
		c-1,0.5-1.8,0.9-2.6,1.4c-0.6,0.4-0.8,0.9-0.3,1.5C280.9,462,282.2,461.4,282.3,459.3z M241.5,479.6c0.4-1,0.9-1.9,1.3-2.9
		c-1.1,0-2.1,0-3.2,0c0.6,0.9,1.1,1.8,1.6,2.6C241.2,479.3,241.3,479.4,241.5,479.6z M283.8,478.3c0.1,0.1,0.1,0.2,0.2,0.3
		c1.1,0,3.8-2,4-3c0-0.2-0.1-0.4-0.3-0.9C286.3,476,285.1,477.2,283.8,478.3z M256.4,508c0.5-1.4-0.3-2.4-2.1-2.6c0,0.6,0,1.2,0,1.8
		c0,0.2,0.2,0.5,0.4,0.5C255.2,507.8,255.8,507.9,256.4,508z M216.5,517.9c0.3-2.4,0.1-2.8-1.7-3
		C214.6,517.2,214.6,517.3,216.5,517.9z M214.8,506.6c0,0.7,0,1.4,0,2.1c0.7,0,1.3,0.1,2,0.1c0.1-0.6,0.2-1.1,0.3-1.7
		C216.3,507,215.6,506.8,214.8,506.6z M286.6,480c0.8,0.1,1.6,0.6,2.4,0c0.7-0.6,0.7-1.5,0.4-2.3C288.4,478.4,287.5,479.2,286.6,480
		z M214.9,510.9c-0.2,1.6,0.1,1.9,1.7,2.1c0-0.7,0-1.3,0-2C216,511,215.4,510.9,214.9,510.9z M256.1,510.2c-0.6-0.1-1.1-0.2-1.7-0.4
		c0,0.7,0,1.3,0,2c0.5,0,1,0,1.5,0.1C255.9,511.3,256,510.8,256.1,510.2z M255.1,519.4c0.3-1.5,0.1-1.8-1.5-2
		c-0.1,0.4-0.3,0.9-0.4,1.4C253.8,519,254.4,519.2,255.1,519.4z M255.4,515.7c0.1-0.6,0.1-1.1,0.2-1.7c-0.5,0-0.9,0-1.3-0.1
		c-0.1,0.4-0.1,0.8-0.1,1.2C254.5,515.3,254.9,515.5,255.4,515.7z"/>
	<path d="M282.5,466.7c0.7,0,1.3,0.6,1.2,1.2c0,0.7-0.6,1.3-1.3,1.2c-0.7-0.1-1.1-0.5-1.2-1.2C281.3,467.3,281.9,466.7,282.5,466.7z
		"/>
</g>
<g>
	<path d="M-233.9,525.4c-0.5,3.1-0.3,6.2,0.3,9.2c0.3,1.5,0.5,2.9,0.8,4.4c0.1,0.8-0.1,1.5-1,1.6c-0.9,0.2-1.4-0.3-1.6-1.2
		c-0.8-4.1-1.8-8.1-1.4-12.3c0.2-1.7,0.5-3.5,0.6-5.2c0.2-2,0.3-3.9,0.3-5.9c0.1-2.8-0.2-5.6,0.2-8.3c0.7-4.7,3.3-8.2,7.5-10.5
		c3.8-2,7.9-3.1,12.1-4.2c2.6-0.7,5.2-1.4,7.8-2.2c2.3-0.7,4.2-2.1,6-3.6c0.2-0.2,0.3-0.5,0.3-0.8c0.2-1,0.8-1.5,1.8-1.2
		c0.8,0.2,1.3,0.1,1.4-0.9c0.1-1.1,0.7-1.5,2.2-1.2c0.2-0.4,0.5-0.9,0.8-1.3c-0.9-1.6-0.7-2,1-2.6c0.6-0.2,0.8-0.6,0.4-1.3
		c-0.7-1.1-0.4-1.8,0.9-2.2c0.7-0.2,1.1-1.3,0.7-1.9c-0.7-1-0.5-1.7,0.7-2.2c0.7-0.3,0.9-0.8,0.4-1.4c-0.8-1-0.6-1.7,0.6-2.2
		c0.6-0.3,0.8-0.5,0.3-1.1c-0.9-1.1-0.6-1.9,0.7-2.2c0.7-0.2,0.7-0.4,0.4-0.9c-0.6-1.1-0.4-1.7,0.8-2.1c0.8-0.3,0.8-0.6,0.3-1.3
		c-0.8-1-0.4-2,0.9-2.2c0.9-0.2,0.9-0.5,0.6-1.3c-0.2-0.4-0.2-1.1,0-1.5c0.2-0.3,0.8-0.4,1.3-0.6c0.4-0.1,0.9-0.2,1.5-0.4
		c-0.3-0.4-0.5-0.5-0.5-0.7c-0.1-0.6-0.3-1.2-0.1-1.7c0.3-0.7,1-0.7,1.7-0.4c0.3,0.1,0.8,0,1.4,0c-0.4-0.6-0.6-0.9-0.8-1.1
		c-0.5-0.7-0.5-1.3,0.2-1.9c0.6-0.5,1.3-0.4,1.9,0.2c0.8,0.8,1.5,1.6,2.3,2.3c0.6,0.6,0.9,1.2,0.4,1.9c-0.5,0.7-1.2,0.7-1.9,0.3
		c-0.1-0.1-0.2-0.1-0.3-0.1c-2.3,2.3-4.4,4.7-5.4,7.8c-0.2,0.6-0.2,1,0.2,1.5c0.4,0.4,0.7,0.9,0.9,1.4c0.6,1.1,0.4,2-0.4,2.4
		c-0.8,0.4-1.5,0-2.3-1.3c-0.9,3.1-1.7,6.3-2.6,9.5c0.3,0,0.6,0,0.8,0.1c0.4,0.4,1,0.8,1,1.2c0,0.5-0.6,1.3-1,1.3
		c-2-0.1-2.5,1.3-3,2.7c-0.4,1-0.9,2-1.4,2.9c0.9,0.4,1.7,0.7,2.4,1.1c0.7,0.4,1.1,1,0.6,1.8c-0.4,0.8-1.1,0.9-1.9,0.4
		c-1.4-0.9-2.8-1-4.1,0.3c-0.2,0.2-0.4,0.7-0.4,1c0.2,0.9,0.4,1.8,0.7,2.7c0.3,1.1,0,1.8-0.8,2.1c-0.8,0.2-1.4-0.3-1.7-1.4
		c-0.2-0.7-0.4-1.5-0.6-2.2c0-0.1-0.1-0.1-0.2-0.2c-0.4,0.3-0.9,0.6-1.4,1c0.4,0.8,0.7,1.6,1.2,2.3c0.4,0.7,0.4,1.4-0.2,2
		c-0.7,0.8-1.3,1.6-2,2.3c-0.5,0.6-1.2,0.7-1.8,0.2c-0.6-0.5-0.6-1.2-0.2-1.9c0.3-0.4,0.5-0.7,0.8-1c0.8-0.7,0.8-1.5,0-2.3
		c-0.8,0.4-1.5,0.9-2.4,1.4c0,0.1,0.1,0.3,0.1,0.4c-0.1,0.5,0,1.3-0.3,1.5c-0.3,0.3-1.1,0.2-1.6,0.1c-0.7-0.1-1.4-0.6-2.1-0.5
		c-1.5,0.1-2.2,0.9-2.5,2.5c-0.8,3.6-0.3,3-4,3.5c-0.4,0.1-0.9,0.3-1.2,0.1c-0.5-0.2-1.1-0.6-1.3-1.1c-0.3-0.7,0.2-1.3,0.9-1.5
		c0.4-0.1,0.9-0.2,1.3-0.2c1.6-0.2,1.6-0.2,1.7-2.1c-2.4,0.6-4.7,1.3-7.2,1.9c0.5,0.8,1,1.4,1.4,2c0.5,0.7,0.4,1.4-0.3,1.9
		c-0.7,0.5-1.3,0.2-1.8-0.4c-0.6-0.8-1.2-1.7-1.8-2.5c-2.1,0.9-4.2,1.8-5.8,3.5c0.3,0.3,0.5,0.8,0.8,0.9c0.6,0.2,1.2,0.4,1.8,0.4
		c0.2,0,0.5-0.6,0.5-1c0.2-0.9,0.6-1.5,1.6-1.3c0.9,0.1,1.2,0.8,1.1,1.6c-0.1,0.7-0.2,1.4-0.3,2.1c-0.1,0.7-0.6,1.2-1.3,1.2
		c-1.2,0.1-2.4,0.1-3.6,0.1c-0.4,0-0.8-0.3-1.1-0.6c-0.4-0.3-0.7-0.8-1-1.2c-1,1.3-1.6,2.7-1.6,4.2c-0.1,3.6,0,7.2,0,10.7
		c0,0.4,0.2,0.8,0.4,1.1c1.4,3.3,2.1,6.8,2,10.4c0,1.1-0.5,1.8-1.4,1.7c-1-0.1-1.2-0.8-1.3-1.7c-0.1-1.7-0.2-3.5-0.3-5.2
		C-233.7,525.4-233.8,525.4-233.9,525.4z"/>
	<path d="M-198.7,560.3c-0.1-0.2-0.1-0.4-0.1-0.4c-2-2.5-2.4-5.3-2.2-8.4c0.3-4.7,0.2-9.5,1-14.2c0.6-3.5,0.1-7.1,0.8-10.6
		c0.4-2.2,0.6-4.4,0.9-6.6c0-0.3-0.1-0.8-0.3-1c-0.6-0.4-1.2-0.9-0.8-1.7c0.3-0.5,1-0.8,1.6-1.1c0.5-2.2,2.3-3.7,3.8-5.5
		c1.3-1.5,2.6-3.1,3.9-4.6c0.7-0.8,0.8-1.8,0.5-2.8c-0.7,0-1.4,0-2.2,0c0,0.6-0.1,1.3-0.1,1.9c-0.1,0.9-0.4,1.5-1.4,1.5
		c-0.9,0-1.3-0.7-1.2-1.6c0.1-0.9,0-1.9,0.1-2.8c0.1-1.2,0.5-1.6,1.7-1.6c0.8,0,1.7,0,2.7,0c-0.4-1.5-0.8-2.9-1.3-4.3
		c-0.3-1.2-0.1-1.8,0.7-2.1c0.8-0.2,1.4,0.2,1.8,1.3c0.1,0.3,0.2,0.7,0.4,1c1.2-1.3,1.3-1.8,0.7-3.3c-0.1-0.1-0.1-0.3-0.2-0.4
		c-0.5-0.8-0.8-1.7,0.2-2.3c1-0.6,1.6,0.1,2.2,1.1c0.3-0.6,0.6-1.1,0.7-1.6c0.7-3.7,1.4-7.4,1.9-11.1c0.6-4.2,0.9-8.3,1.4-12.7
		c0,0-0.3,0-0.5-0.2c-0.3-0.4-0.7-0.9-0.7-1.2c0.1-0.4,0.7-1.2,0.9-1.1c1.6,0.2,1.9-0.9,2.3-2c0.2-0.5,0.5-1,0.7-1.5
		c-0.1-0.1-0.1-0.2-0.2-0.3c-0.6-0.7-1-1.5-0.2-2.2c0.8-0.7,1.4-0.2,2.2,0.4c0.6,0.5,1.5,0.7,2.3,0.8c2.6,0.3,5.2,0.4,7.9,0.6
		c0.9,0.1,1.8,0.2,2.5-0.8c-0.6-0.4-1.1-0.8-1.6-1.1c-2.5-1.2-4.7-2.8-6.7-4.7c-0.9-0.9-2-1.4-3.4-1.3c-0.5,0-1.1-0.4-1.4-0.8
		c-0.5-0.9-0.9-1.9-1.2-2.9c-0.3-0.8-0.2-1.6,0.8-1.9c0.9-0.3,1.5,0.2,1.7,1c0.3,1.2,0.9,1.9,2.2,2.2c1.1,0.3,2.2,1.2,3.2,1.8
		c1.9,1.3,3.7,2.6,5.5,3.9c0.6,0.4,1.4,0.7,2,1.2c0.9,0.7,1.8,1.6,1.5,2.8c-0.3,1.4-1.1,2.5-2.5,2.8c-1.4,0.3-2.9,0.2-4.3,0.2
		c-2.5-0.1-4.9-0.4-7.4-0.5c-0.3,0-0.6,0.4-0.8,0.7c-2.1,3.8-2.7,8-3.1,12.2c-0.4,4.3-1,8.6-1.5,12.8c-0.6,4.6-3.3,8.3-5.6,12.2
		c-0.2,0.4-0.3,1-0.3,1.5c0,0.3,0.1,0.6,0.2,0.9c0.7,2.7,0.2,5.1-1.8,7.2c-1.4,1.4-2.6,3.1-4,4.5c-1.5,1.5-2.2,3.3-2.5,5.3
		c-0.4,3.7-1,7.4-1.4,11.1c-0.2,1.7,0.2,3.6-0.2,5.2c-1.3,6.1-1,12.3-1.3,18.5c-0.1,1.4,0.5,2.6,1.2,3.8c0.7,1.1,1.4,2.2,2.1,3.4
		c0.5,1,0.1,2-1,2c-1.9,0-3.8-0.1-5.7-0.2c-0.9-0.1-1.4-0.6-1.2-1.5c0.1-0.9,0.8-1.2,1.7-1.1C-200.5,560.2-199.6,560.2-198.7,560.3z
		"/>
	<path d="M-216.4,512c-0.3-1.6-0.6-3.2-0.9-4.7c-0.2-1,0.1-1.8,0.9-2c0.8-0.2,1.4,0.3,1.7,1.3c0.3,1,0.5,2.1,0.7,3.3
		c0.6-0.2,1.2-0.4,1.8-0.7c0.8-0.4,1.4-0.3,1.9,0.4c0.4,0.7,0.2,1.5-0.7,1.9c-0.8,0.4-1.7,0.7-2.6,1c-0.1,2.6-0.4,2.1,1.9,2.9
		c2.4,0.9,5.6,1.1,7.7,0.5c-0.3-1.4-0.5-2.7-0.8-4.1c-1,0-1.6,0.5-2,1.3c-0.1,0.3-0.3,0.5-0.5,0.7c-0.5,0.7-1.1,0.8-1.8,0.4
		c-0.7-0.4-0.8-1.1-0.4-1.7c0.8-1.5,1.5-3,3.5-3.2c0.3,0,0.7-0.6,0.9-1c0.9-2.3,1.7-4.6,2.6-6.9c0.3-0.8,1-1.1,1.8-0.7
		c0.8,0.4,0.9,1.1,0.5,1.9c-0.4,0.9-0.8,1.8-1.4,3c0.9-0.2,1.6-0.3,2.2-0.5c0.8-0.2,1.5-0.1,2,0.6c0.6,0.7,1.2,1.4,1.8,2.1
		c0.5,0.7,0.6,1.4-0.1,1.9c-0.6,0.5-1.4,0.4-1.8-0.2c-1-1.7-2.4-1.9-4.2-1.3c-0.9,0.3-1.2,0.7-1,1.5c0.1,0.8,0.4,1.6,0.6,2.6
		c0.6-0.3,1.2-0.6,1.8-0.9c0.8-0.4,1.5-0.3,1.9,0.5c0.4,0.8,0.1,1.4-0.6,1.8c-0.1,0-0.1,0.1-0.2,0.1c-0.7,0.4-2.1,0.9-2.1,1.4
		c-0.1,1.3,0.4,2.7,0.6,4.1c0,0.2,0.4,0.3,0.6,0.4c1.1,0.5,1.3,1.5,0.5,2.2c-0.6,0.5-0.7,1-0.8,1.7c-1.4,11.1-0.6,22.2-1.1,33.3
		c0,0.3,0,0.7,0,1c-0.1,0.9-0.7,1.6-1.4,1.4c-0.9-0.1-1.2-0.7-1.2-1.5c0.1-3.1,0.2-6.3,0.2-9.4c0-4.2-0.1-8.3,0-12.5
		c0.2-4.2,0.7-8.4,0.9-12.6c0.1-1.5-0.2-3-0.4-4.7c-3.7,0.5-7.1,0.2-10.3-1.1c-2.6,6.9-5.2,13.6-7.6,20.5c-0.7,2-0.8,4.3-1,6.5
		c-0.2,3.4-0.2,6.9-0.1,10.3c0,0.7,0.4,1.4,0.7,2c0.6,1.1,1.3,2.2,1.9,3.3c0.5,1.1,0,2-1.2,2c-2,0-3.9,0-5.9-0.1
		c-0.9,0-1.6-0.4-1.5-1.5c0.1-0.9,0.7-1.2,1.9-1.1c1.1,0.1,2.2,0.1,3.4,0.2c-0.2-0.4-0.2-0.6-0.3-0.7c-1.3-1.5-1.6-3.2-1.7-5.1
		c-0.1-7.2-0.1-14.3,2.7-21.2c0.3-0.8,0.7-1.6,1-2.5c-0.4,0-0.8,0.1-1,0c-0.5-0.3-1.1-0.6-1.3-1.1c-0.3-0.7,0.2-1.2,1-1.4
		c0.1,0,0.1-0.1,0.2,0c2.1,0.2,2.9-1.1,3.4-2.9c0.1-0.4,0.3-0.8,0.5-1.3c-0.9-0.4-2.2-0.6-1.7-2c0.5-1.4,1.7-0.8,2.9-0.6
		c0.5-2,0.9-3.9,1.4-6.1c-0.9,0.3-1.5,0.4-2.1,0.6c0.1,0.6,0.2,1.1,0.4,1.5c0.2,0.9,0,1.5-0.9,1.7c-0.8,0.2-1.4-0.2-1.6-1
		c-0.2-0.9-0.5-1.8-0.7-2.6c-0.3-0.9,0.1-1.6,1-1.8C-218.9,512.7-217.8,512.4-216.4,512z"/>
	<path d="M-225.8,518.5c0.3,1.5,0.5,3.1,0.8,4.6c0,0.2,0.4,0.5,0.7,0.5c0.6,0,1.2-0.1,1.7-0.2c0.8-0.1,1.5,0.1,1.7,0.9
		c0.2,0.9-0.3,1.5-1.2,1.6c-0.9,0.2-1.7,0.2-2.6,0.4c-0.1,1.2-0.3,2.4-0.4,3.6c0,0.2,0.2,0.5,0.3,0.6c0.8,0.4,1.6,0.9,1.1,2
		c-0.5,1-1.4,0.8-2.3,0.4c0,0.4,0,0.8,0,1.1c-0.1,5-0.2,10-0.3,15c-0.1,2.6-0.2,5.3,0.7,7.8c0.3,0.8,0,1.5-0.8,1.7
		c-0.8,0.3-1.4-0.2-1.7-1c-1-2.9-0.9-5.8-0.8-8.8c0.1-5.1,0.2-10.3,0.3-15.4c0-0.4,0-0.9,0.1-1.3c1.9-4.9,1.2-9.7-0.4-14.5
		c-0.7-2.1-1.7-4-2.5-6.1c-0.3-0.8-0.9-1.7,0.1-2.4c0.9-0.7,1.6-0.1,2.2,0.7c0.4-0.5,0.7-0.9,1-1.3c0.6-0.7,1.3-0.8,2-0.2
		c1,0.9,1.9,1.8,2.9,2.7c0.6,0.6,0.7,1.3,0.1,1.9c-0.6,0.6-1.2,0.5-1.9,0c-0.6-0.6-1.2-1.1-1.8-1.7c-1,1.2-1.1,2.7-0.1,3.8
		c0.2,0.2,0.6,0.3,0.9,0.3c1.1,0.2,2.2,0.4,3.3,0.6c0.8,0.1,1.2,0.6,1.3,1.4c0.1,1,0.1,2,0.1,3.1c0,0.8-0.5,1.3-1.2,1.2
		c-0.5-0.1-0.9-0.6-1.3-1c-0.1-0.1-0.1-0.5-0.1-0.7C-224.1,518.5-224.1,518.5-225.8,518.5z"/>
	<path d="M-223,508.9c0.2-1.7,0.3-3.1,0.6-4.5c0.1-0.4,0.6-1,1-1.2c1.1-0.5,2.3-0.9,3.4-1.4c0.8-0.3,1.5-0.2,1.8,0.7
		c0.3,0.8,0,1.4-0.8,1.8c-0.4,0.2-0.8,0.4-1.2,0.5c-1.4,0.3-2.1,1.1-1.9,2.5c0,0.3,0.2,0.7,0.5,0.9c0.4,0.3,0.9,0.4,1.3,0.6
		c0.7,0.3,0.9,0.9,0.7,1.6c-0.3,0.7-0.9,1-1.6,0.8c-1-0.3-2.1-0.7-3-1.3C-222.7,509.7-222.9,509.1-223,508.9z"/>
	<path d="M-209.1,504.8c0-0.9,0-1.7,0-2.6c0-0.8,0.4-1.3,1.2-1.3c0.8-0.1,1.4,0.4,1.4,1.2c0.1,1.3,0.1,2.7,0,4.1
		c0,0.8-0.6,1.2-1.4,1.3c-1.3,0.1-2.6,0.2-3.8,0.2c-0.4,0-1-0.4-1.3-0.8c-0.5-0.9-0.9-1.9-1.3-2.9c-0.3-0.7-0.2-1.4,0.6-1.8
		c0.8-0.4,1.4-0.1,1.8,0.7c0.1,0.3,0.2,0.5,0.4,0.8C-210.9,505.1-210.9,505.1-209.1,504.8z"/>
	<path d="M-195.6,495.1c0.3-1,0.5-1.9,0.7-2.8c0.2-0.8,0.7-1.3,1.6-1.1c0.8,0.1,1.2,0.9,1,1.8c-0.3,1.4-0.7,2.8-1.1,4.2
		c-0.3,1.1-1,1.4-2.1,1c-0.8-0.4-1.7-0.8-2.5-1.2c-0.7-0.4-1.1-1-0.7-1.8c0.4-0.8,1-1,1.8-0.6C-196.4,494.7-196.1,494.9-195.6,495.1
		z"/>
	<path d="M-203.3,500.3c-0.3,0.3-0.5,0.8-0.9,0.9c-0.4,0.1-1.3-0.1-1.4-0.4c-0.8-1.8-1.9-1.8-3.4-0.9c-0.7,0.4-1.3,0-1.6-0.7
		c-0.3-0.7-0.1-1.3,0.6-1.7c1.1-0.5,2.1-1,3.2-1.4c0.4-0.1,1.1,0,1.3,0.3c0.8,1,1.4,2,2.1,3.1C-203.3,499.7-203.3,499.9-203.3,500.3
		z"/>
	<path d="M-200.6,497.2c1.5,0,3.9,2,4.2,3.1c0.2,0.6,0.3,1.2,0.5,1.8c0.2,0.8-0.1,1.4-0.9,1.6c-0.8,0.2-1.5-0.2-1.6-0.9
		c-0.2-1.6-1.2-2.4-2.5-3.2c-0.4-0.2-0.6-1-0.6-1.5C-201.4,497.7-200.8,497.4-200.6,497.2z"/>
	<path d="M-187.1,484.8c1.3,0,2,1,1.4,1.9c-1.1,1.7-2.5,3-4.4,3.6c-0.8,0.3-1.6,0.2-1.9-0.7c-0.3-0.8,0.2-1.3,1.1-1.8
		c1-0.6,1.9-1.4,2.8-2.2C-187.7,485.3-187.3,485-187.1,484.8z"/>
	<path d="M-189.1,483.1c-0.9-0.1-1.6-0.4-1.6-1.4c0-1,0.6-1.3,1.4-1.4c1.1-0.2,2.1-0.4,3.2-0.7c0.8-0.2,1.5-0.2,1.9,0.7
		c0.3,0.8,0,1.5-1,1.8C-186.5,482.4-187.8,482.7-189.1,483.1z"/>
	<path d="M-186.1,472c-0.2-0.2-0.8-0.5-0.9-0.9c-0.1-0.4,0.1-1,0.4-1.4c0.4-0.6,1-1,1.6-1.5c0.5-0.5,1.1-0.7,1.8-0.2
		c0.6,0.5,0.7,1.1,0.3,1.7C-183.4,470.7-185,472-186.1,472z"/>
	<path d="M-183.7,475.1c0,0.4-0.1,1-0.2,1.5c-0.1,0.8-0.6,1.4-1.5,1.2c-0.9-0.1-1.2-0.7-1.1-1.6c0.1-0.6,0.1-1.3,0.2-2
		c0-0.9,0.4-1.4,1.3-1.5c0.9,0,1.3,0.6,1.4,1.5C-183.7,474.6-183.7,474.8-183.7,475.1z"/>
	<path d="M-183,462.5c-0.2-0.2-0.7-0.6-0.9-1.1c-0.3-0.8,0.7-2.7,1.5-2.8c0.5-0.1,1.2,0.2,1.6,0.5c0.2,0.2,0.2,1,0,1.4
		C-181.4,461.2-181.4,462.5-183,462.5z"/>
	<path d="M-172,458.6c-0.7,0-1.2-0.4-1.3-1.2c-0.1-0.8,0.8-1.6,1.8-1.6c0.8,0,1.3,0.5,1.3,1.3C-170.2,457.9-171,458.6-172,458.6z"/>
	<path d="M-176.2,454.8c0.1-0.8,0.5-1.3,1.3-1.3c0.8,0,1.3,0.5,1.3,1.3c0,0.8-0.5,1.3-1.2,1.3C-175.6,456.1-176.1,455.7-176.2,454.8
		z"/>
</g>
<g>
	<path d="M-144.9,500.7c0.9-1.6,2.3-2,4-2.1c6.6-0.6,13.2-1.5,19.6-3.5c3.4-1.1,7.1-1,10.6-1.5c0.6-0.1,1.4-0.6,1.8-1.1
		c2-2.5,3.6-5.2,5.7-7.6c4.7-5.3,10.6-8.3,17.8-8.7c5.3-0.3,10.7-1,16-1.7c0.9-0.1,1.7-0.9,2.5-1.3c0.6-0.3,1.4-0.6,2-0.5
		c5.3,1.2,9,4.2,10.3,9.7c0,0.1,0.1,0.1,0.1,0.2c1.6,4.2,1.5,4.5-2.1,7.3c-0.5,0.4-1.2,0.4-1.8,0.5c-0.3,0-0.7-0.2-1-0.2
		c-3.4-0.2-7-0.9-9,3c-0.4,0.8-1.2,1.5-2,2c-2.4,1.9-2.6,4.3-1.3,6.9c0.3,0.6,1,0.9,1.4,1.4c0.5,0.5,1.2,1.1,1.1,1.6
		c-0.1,0.5-0.9,1.1-1.5,1.2c-2.2,0.3-4.3,0.2-5.5-2.3c-0.4-0.8-1.1-1.5-1.7-2.3c-2.5-3.3-2.5-3.2-6.4-2.3c-2.2,0.5-1.7,2.7-3,3.7
		c1.4,2.4,1,3.2-1.8,3.2c-16.5,0-33-0.1-49.5,0.1c-3.3,0-5.3-1-6.2-4.2C-144.9,501.8-144.9,501.3-144.9,500.7z M-68.3,477.5
		c-6.3,0.7-12.5,1.4-18.6,1.9c-4.2,0.3-7.7,1.9-10.9,4.5c-3.6,2.9-6.5,6.5-8.7,10.6c-0.3,0.6-0.7,1.4-0.4,1.9
		c1.1,2.3,2.4,4.6,3.7,6.8c0.2,0.3,0.9,0.4,1.4,0.4c3,0,6,0.1,9,0c0.8,0,1.7-0.4,2.3-1c2.8-2.7,2.8-5.4,0-8.1
		c-0.8-0.8-1.8-1.3-2.5-2.1c-0.5-0.6-1.2-1.7-1-2.2c0.5-1.2,1.6-0.8,2.6-0.2c2.7,1.7,4.8,3.9,5.9,7c1.8-0.5,3.5-0.9,5.4-1.4
		c-0.4-0.9-0.8-1.6-0.8-2.3c0-0.8,0-1.9,0.5-2.2c1-0.7,1.8,0.1,2.1,1.1c0.5,1.5,0.8,3.1,1.3,4.7c0.3,1,0.7,1.9,1.1,2.8
		c0.2,0,0.3-0.1,0.5-0.1c-0.2-2.8,1.4-4.7,3.2-6.5c0.7-0.7,1.5-1.4,2.1-2.2c0.3-0.4,0.3-1.1,0.3-1.7c-0.2-1.7-0.6-3.4-0.6-5.2
		c0-0.6,1-1.1,1.5-1.7c0.4,0.6,1.1,1.2,1.3,1.9c0.2,1.1,0.1,2.2,0.1,3.5c1.7-0.2,2.8-0.4,3.6-0.5c0.6-1.5,0.8-2.9,1.6-4
		c0.4-0.6,1.9-1.3,2.4-1c1.2,0.6,0.6,1.6,0,2.6c-0.3,0.6-0.6,1.8-0.2,2.1c0.5,0.4,1.6,0.6,2.2,0.3c0.7-0.3,1.7-1.4,1.5-1.9
		c-1-2.7-1.6-5.6-3.9-7.6c-0.6,0.2-1.3,0.6-1.6,0.5c-1-0.6-1.8-1.4-2.9-2.5c-0.1,1.1-0.1,2-0.3,2.8c-0.2,0.6-0.8,1.4-1.3,1.4
		c-0.5,0-1.1-0.7-1.5-1.2C-68.4,478.6-68.3,478-68.3,477.5z M-131.6,500.5c-3.5,0.4-6.8,0.8-10.2,1.1c-0.1,0.2-0.1,0.4-0.2,0.5
		c0.6,0.4,1.2,1.3,1.9,1.3c3,0.1,6,0.1,9.2,0.1C-131.2,502.4-131.4,501.5-131.6,500.5z M-112.4,496.6c0.5,1.6,0.8,3.1,1.3,4.5
		c1,2.7,1.1,2.7,4.2,2.3c-0.9-1.7-1.9-3.4-2.6-5.2C-109.9,496.9-110.6,496.3-112.4,496.6z M-117.7,497.1c0.4,1.7,0.7,3.1,1.1,4.5
		c0.4,1.8,1.4,2.5,3.2,1.7c-0.4-1.1-0.8-2.2-1.1-3.3c-0.3-1.1-0.5-2.2-0.8-3.4C-116.1,496.8-116.7,496.9-117.7,497.1z M-119.2,503.4
		c-0.3-1-0.6-1.9-0.8-2.8c-0.2-0.9-0.4-1.8-0.6-2.8c-1,0.4-1.8,0.7-2.5,1.1C-122.3,503.7-122.3,503.7-119.2,503.4z M-128.5,500
		c0.3,3.5,0.6,3.8,3.4,3.3c-0.3-1.2-0.6-2.5-0.9-3.9C-126.9,499.7-127.6,499.8-128.5,500z"/>
</g>
<g>
	<path d="M-161.3,636.2c2,0,3.9,0,6,0c-0.4-0.6-0.6-1.2-1.1-1.6c-1.1-1-1.4-2.4-1.4-3.8c0-2.7,0.7-5.4,1.6-7.9
		c0.3-0.7,0.8-1.2,1.2-1.8c1.9-2.5,3.6-5.2,4-8.4c0.4-2.9-0.3-5.6-1.3-8.3c-0.1-0.3-0.3-0.6-0.4-0.9c-0.2-0.6-0.1-1.1,0.5-1.4
		c0.6-0.3,1.1,0,1.3,0.6c0.6,1.7,1.2,3.3,1.6,5c0.6,2.8,0.5,5.5-0.5,8.2c-0.1,0.2,0,0.6,0.1,0.8c2.8,2.6,5.9,5,9.8,5.6
		c2.2,0.3,4.5,0.2,6.8,0.1c2.3-0.2,4.5-0.7,6.8-1.1c0.2,0,0.3-0.1,0.6-0.2c-0.7-1.1-1.3-2.1-2-3.1c-0.1-0.2-0.3-0.4-0.4-0.6
		c-0.3-0.5-0.2-1,0.2-1.3c0.5-0.3,1-0.3,1.3,0.1c2,3,4.2,5.9,4.1,9.8c-0.1,2.3,0.3,4.7,0.8,7c0.3,1.1,0,2.3-0.1,3.5
		c0,0.2-0.1,0.5-0.1,0.9c2.2,0.1,4.4,0.2,6.8,0.3c-0.4-0.6-0.6-1.1-0.9-1.5c-1.9-2-2.1-4.5-1.7-7.1c0.3-1.6,1-3.2,1.6-4.8
		c0.9-2.1,1.8-4.1,2.8-6.1c0.2-0.3,0.7-0.7,1-0.6c0.3,0.1,0.6,0.6,0.9,0.9c0.1,0.1,0,0.3,0,0.5c2.7,0.1,4.6-1.7,4.6-4.3
		c0-0.8-0.1-1.6-0.2-2.4c-0.1-0.6,0.1-1.1,0.8-1.2c0.7-0.1,1.1,0.3,1.2,0.9c0.3,2.1,0.5,4.1-0.6,6.1c-0.1,0.2-0.1,0.5,0,0.8
		c1.2,3,2.6,5.8,5.4,7.7c0.5,0.3,0.7,0.8,0.3,1.4c-0.4,0.6-1,0.7-1.4,0.2c-1.2-1.1-2.4-2.1-3.4-3.4c-0.9-1.2-1.6-2.7-2.3-4.1
		c-0.1-0.2-0.2-0.5-0.2-0.5c-1.6,0.4-3.1,0.7-4.5,1c-0.2,0.1-0.5,0.2-0.6,0.4c-0.9,1.8-1.8,3.7-2.6,5.5c-0.7,1.6-0.9,3.3-0.7,5
		c0.1,0.8,0.6,1.7,1,2.4c0.6,1.1,1.3,2,1.8,3.1c0.4,0.9,0.1,1.5-0.9,1.6c-2.9,0.4-5.8,0.4-8.7-0.2c-1.1-0.2-1.3-0.6-1.3-1.7
		c0-0.2,0-0.4,0-0.6c0.3-1.7,0.2-3.4-0.1-5.1c-0.4-2.2-0.4-4.4-0.6-6.6c-0.1-0.7-0.2-1.3-0.3-2.1c-1.5,0.3-2.9,0.6-4.3,0.8
		c-3.3,0.5-6.7,0.9-10,0.6c-2.3-0.2-4.4-1-6.3-2.1c-1.9-1.2-3.7-2.5-5.5-3.8c-1.1,1.5-2.5,3.1-3.4,4.9c-0.7,1.4-1,3.1-1.3,4.7
		c-0.2,1.1-0.3,2.3-0.2,3.5c0,0.5,0.3,1,0.6,1.3c0.9,1,1.5,2.1,1.8,3.4c0.2,1.2-0.1,1.7-1.4,1.7c-2.6,0-5.2,0-7.8,0
		c-1.1,0-1.4-0.5-1.1-1.6c0.2-0.7,0.3-1.4,0.5-2.2c0.2-1.1,0-2.1-0.8-3c-1.5-1.8-1.9-3.9-1.1-6.2c0.5-1.5,0.8-3.1,1.2-4.6
		c0.1-0.5,0-1-0.1-1.5c-0.2-1.6-0.4-3.1-0.8-4.7c0,1.3,0,2.5,0,3.8c0,1.5-0.1,3-0.3,4.5c-0.1,0.5-0.3,1.1-0.7,1.5
		c-0.2,0.3-0.9,0.4-1.2,0.2c-0.3-0.1-0.6-0.9-0.4-1.1c0.8-1.7,0.7-3.4,0.6-5.2c-0.3-4,0.3-8,1.2-11.9c0.8-3.5,2.5-6.3,5.2-8.6
		c2.1-1.8,4.5-2.9,7.3-3.3c2.8-0.4,5.5-1,8.3-1.4c3.5-0.5,7,0.3,10.4,1.2c3.7,1,7.5,1.1,11.3,0.7c5.5-0.6,10.8-0.1,15.9,2.1
		c1,0.5,2,1,3,1.6c0.6,0.3,0.9,0.8,0.5,1.4c-0.4,0.6-0.9,0.6-1.5,0.2c-4.9-3-10.4-3.9-16.1-3.5c-1.6,0.1-3.2,0.3-4.7,0.4
		c-3.1,0.2-6.2-0.2-9.2-1c-4.9-1.4-9.8-1.3-14.7-0.2c-1.1,0.3-2.3,0.4-3.4,0.6c-4.9,1.1-8.3,4-10.1,8.7c-0.9,2.3-0.4,4.7,0.1,7
		c0.5,2.6,1,5.3,1.2,7.9c0.1,1.5-0.5,3-0.8,4.6c-0.1,0.5-0.3,1-0.4,1.4c-0.6,1.6-0.3,3.1,0.8,4.3c1.4,1.6,1.5,3.4,1.2,5.3
		C-161.2,635.7-161.2,635.9-161.3,636.2z"/>
	<path d="M-91.2,616.4c-1.2-0.2-2.2-0.4-3.1-0.6c-2-0.5-3-1.8-3.2-3.9c-0.1-1.4-0.2-2.8-0.4-4.2c-0.1-0.6,0.1-1.1,0.8-1.2
		c0.7-0.1,1.1,0.3,1.1,0.9c0.1,1.3,0.3,2.6,0.3,3.8c0.1,1.7,0.5,2.3,2.2,2.7c0.9,0.2,1.9,0.3,2.8,0.3c1.1,0.1,1.5,0.4,1.4,1.5
		c-0.1,1.1-0.4,2.1-0.7,3.3c1.3,0.1,2.7,0.3,4,0.3c1.4,0.1,2.8,0.1,4.2,0.2c0.4,0,0.9,0.3,1.1,0.5c0.1,0.3,0,1-0.2,1.2
		c-0.8,0.8-1.6,1.7-2.6,2.3c-2.1,1.3-4.3,2.4-6.4,3.6c-0.4,0.2-0.7,0.5-0.9,0.8c-1.8,3.4-5,3.8-7.9,2.6c-0.6-0.3-0.9-0.7-0.7-1.4
		c0.3-0.7,0.8-0.7,1.4-0.5c0.4,0.1,0.7,0.3,1.1,0.3c2,0.4,3.5-0.3,4.4-2.3c0.3-0.7,0.7-1.1,1.4-1.4c2-1,3.9-2,5.8-3
		c0.4-0.2,0.9-0.6,1.3-1c-0.3,0-0.6,0-0.9-0.1c-1.8-0.2-3.7-0.3-5.5-0.5c-0.4,0-0.8-0.1-1.1-0.3c-0.8-0.3-1-0.8-0.7-1.6
		C-91.9,618.2-91.6,617.3-91.2,616.4z"/>
	<path d="M-101,601.7c-0.7,1.4-0.5,2.7,0.3,4c0.2,0.3,0.4,0.6,0.3,0.8c-0.1,0.3-0.4,0.9-0.6,0.9c-0.4,0.1-1-0.1-1.2-0.4
		c-1.3-1.7-1.5-3.6-0.9-5.6c0-0.1,0-0.1,0.1-0.2c0.8-2.2,1.9-2.4,3.7-0.9c1.2,1.1,1.8,3.5,1,5c-0.2,0.3-0.8,0.6-1.1,0.5
		c-0.3-0.1-0.6-0.6-0.7-1c-0.1-0.5,0.1-1.1,0.1-1.6C-100,602.5-100.3,602.1-101,601.7z"/>
	<path d="M-108.1,613.8c-0.1,0.6-0.2,1.9-0.5,3.1c-0.1,0.7-0.7,1.1-1.2,0.9c-0.6-0.2-0.8-0.7-0.7-1.3c0.9-3.6,0.2-7.2-1-10.6
		c-0.4-1.2-0.3-1.6,0.3-1.9c0.7-0.3,1.1,0.1,1.5,1.2C-108.7,607.7-108.1,610.4-108.1,613.8z"/>
	<path d="M-94.6,627.6c0,0.5-0.4,0.9-1,0.9c-0.6,0-1.3-0.7-1.3-1.3c0-0.6,0.4-1,1-1C-95.4,626.2-94.6,627-94.6,627.6z"/>
	<path d="M-97.9,619.8c-0.6,0-1.2-0.5-1.1-1.2c0.1-0.7,0.4-1,1.1-1.1c0.6,0,1.1,0.5,1.1,1.1C-96.7,619.3-97.2,619.8-97.9,619.8z"/>
</g>
<g>
	<path d="M176.6,607.3c0.3,0.4,0.9,0.7,1,1.1c0.2,0.7-0.5,1-1.1,1.2c0,2,0,3.9,0,5.9c0,0.2,0.1,0.5,0.2,0.7c0.3,0.8,0.6,1.6,0.8,2.4
		c0.1,0.6-0.2,1.1-0.7,1.1c-0.4,0-1-0.3-1.1-0.6c-0.5-1.6-1.1-3.2-1.1-5c0-3.7-0.5-7.3-0.8-11c-0.1-0.9-0.3-1.7-0.4-2.6
		c-2,0.2-3.8,0.6-5.7,0.6c-2.4,0-4.9-0.1-7.3-0.5c-1.2-0.2-2.5-0.8-3.5-1.5c-2-1.3-3.9-2.7-5.8-4.1c-0.8-0.6-1.5-0.3-1.8,0.7
		c-0.4,1.4-0.8,2.8-1.4,4.1c-1.6,3.6-4.2,6.3-7.8,8.1c-2,1-3.9,2.1-5.8,3.3c-0.3,0.2-0.6,0.6-0.7,1c-0.4,1.8-0.1,3.5,0.3,5.2
		c0,0.2,0.3,0.4,0.5,0.5c1.7,0.5,2.5,1.5,2.4,3.2c0,0.6-0.3,1.1-0.8,1.2c-1.8,0.2-3.7,0.3-5.5,0.3c-0.3,0-0.7-0.6-0.7-1
		c0-0.5,0.4-0.9,1-0.9c1.1,0,2.1,0,3.2,0c0.3,0,0.5-0.1,0.8-0.1c-0.3-0.7-0.8-0.7-1.3-0.6c-0.6,0.1-1.1-0.2-1.2-0.7
		c-0.7-2.5-1.1-4.9-0.7-7.5c0.2-1.2,0.9-1.8,1.9-2.3c0.4-0.2,0.7-0.4,0.5-0.9c-0.2-0.6-0.2-1.2,0.5-1.4c0.7-0.3,1.1,0.1,1.4,0.7
		c0,0,0.1,0.1,0.1,0.1c1.5-0.8,3-1.5,4.4-2.4c4.8-3.1,6.9-7.6,7.3-13.2c-0.7-0.2-1.5-0.3-1.4-1.1c0.1-0.4,0.6-0.8,1-1.2
		c0.1,0,0.3,0.1,0.4,0.1c-0.5-1.3-0.9-2.6-1.4-3.8c-0.3-0.6-0.4-1.2,0.3-1.6c0.6-0.3,1.1-0.1,1.5,0.7c1.1,2,1.5,4.2,1.6,6.5
		c0,0.2,0,0.5,0,0.9c1.3-0.4,2,0.5,2.9,1.1c1.2,0.9,2.4,1.7,3.6,2.6c2.6,1.9,5.5,2.9,8.7,2.8c2.6-0.1,5.1-0.4,7.7-0.6
		c0.5,0,0.9-0.3,1.1-0.8c1-1.9,1.3-4,1.3-6.2c0-0.2-0.3-0.4-0.4-0.6c-0.2-0.3-0.7-0.6-0.7-0.9c0-0.3,0.4-0.6,0.6-0.9
		c0.1-0.2,0.3-0.4,0.3-0.6c0-0.5-0.1-1-0.1-1.5c-0.1-0.6,0.2-1,0.8-1.1c0.7-0.1,1.1,0.3,1.1,0.9c0.1,1.4,0.2,2.8,0.3,4.2
		c0,0.3,0.2,0.6,0.4,0.8c0.6,0.6,0.6,1.3-0.1,1.7c-0.2,0.2-0.4,0.4-0.5,0.7c-0.5,1.4-0.9,2.9-1.3,4.3c-0.1,0.2-0.1,0.4-0.1,0.6
		c0.4,2.7,0.8,5.4,1.2,8.1C176.5,607.4,176.6,607.3,176.6,607.3z"/>
	<path d="M189,577.3c-1.5,0-3.1,0.2-4.7,0.1c-1.5,0-2.9,0.1-4.2,0.8c-1.4,0.7-2.8,1.4-4.2,2.2c-1.9,1.2-3.9,1.7-6.1,2
		c-3.7,0.5-7.3,0.4-11-0.4c-0.1,0.2,0,0.5-0.2,0.6c-0.3,0.3-0.6,0.7-1,0.7c-0.3,0-0.8-0.4-0.9-0.6c-0.2-0.9-0.8-1.1-1.5-1.1
		c-2.8-0.2-5.6-0.6-8.4-0.6c-3.2,0-6.3,0.8-9.4,1.6c-1.4,0.4-2.5,1.3-3.4,2.5c-2.3,3-3.8,6.5-5,10c-1.1,3.1-2,6.2-3.2,9.2
		c-1.1,2.8-2.6,5.4-5,7.4c-1,0.8-2.1,1.4-3.2,2.1c-0.6,0.3-1.2,0.3-1.5-0.4c-0.3-0.7,0-1.1,0.6-1.4c2.9-1.3,4.9-3.5,6.2-6.3
		c1.3-2.9,2.3-5.9,3.3-8.9c1.1-3.2,2.2-6.4,3.8-9.4c0.4-0.7,0.9-1.5,1.3-2.2c1.7-2.7,4-4.3,7.1-5c3.8-0.8,7.6-1.6,11.5-1.2
		c3.2,0.3,6.4,0.7,9.6,1.2c4,0.7,8,0.7,12-0.1c0.8-0.2,1.6-0.5,2.4-0.9c1.7-0.9,3.3-1.8,5-2.7c1.7-0.8,3.4-1,5.3-1
		c1.6,0,3.2-0.2,4.8-0.4c0.4-0.1,0.7-0.5,1.1-0.7c0.7-0.6,1.4-1.3,2.1-1.7c0.2-0.1,1,0.2,1.1,0.5c0.1,0.3-0.1,1-0.3,1.2
		c-1.2,0.6-1.6,1.7-1.9,2.8c-0.2,0.5-0.3,1.1-1,1.1C189.9,578,189.5,577.5,189,577.3z"/>
	<path d="M180.6,617.5c2.3,0.3,3.3,1.4,3.4,3.4c0,0.7-0.2,1.2-0.9,1.3c-1.9,0.1-3.8,0.2-5.8,0.2c-0.6,0-0.9-0.5-0.8-1.1
		c0.1-0.6,0.5-0.8,1-0.8c1.4,0,2.7,0,4.2,0c-0.1-0.8-0.6-0.9-1.2-0.8c-1.2,0.2-1.5,0.1-1.7-1.1c-0.2-1.5-0.4-3-0.6-4.5
		c0-0.4,0-0.8-0.5-1c-0.3-0.1-0.6-0.7-0.5-0.9c0.1-0.4,0.6-0.8,0.9-1.1c0.1,0,0.1,0.1,0.2,0.1c0.2-1.7,0.3-3.4,0.5-5.1
		c-0.3,0-0.5,0-0.7-0.1c-0.3-0.3-0.7-0.6-0.7-0.9c0-0.3,0.4-0.9,0.7-0.9c1,0,1.1-0.6,1.1-1.4c0-0.4,0.1-0.8,0.1-1.1
		c-0.1-0.1-0.1-0.2-0.1-0.2c-0.7,0-1.3-0.2-1.3-1c0-0.8,0.6-0.9,1.2-1.1c0.8-0.3,1.6-0.8,2.3-1.4c1-0.8,1.8-1.8,2.8-2.6
		c0.9-0.8,1.4-1.6,1.6-2.8c0.2-0.9,0.5-1.9,0.8-2.8c0.7-1.8,2-3,3.7-3.9c0.9-0.4,1.6-1.1,2.5-1.4c1.5-0.4,3-0.5,4.7-0.8
		c0.9-1.3,0.9-2.1-0.4-3.5c-0.4-0.5-0.5-1,0-1.5c0.5-0.5,1-0.3,1.5,0.1c1.4,1.3,1.9,2.9,1.2,4.7c-0.1,0.4-0.3,0.8-0.5,1.3
		c0.3,0,0.7,0,0.8-0.1c0.6-0.7,1.2-1.5,1.7-2.2c0.1-0.1,0-0.4-0.1-0.5c-0.4-0.5-0.7-1.1-1.2-1.5c-0.5-0.4-0.7-0.8-0.7-1.5
		c0-0.9-0.4-1.5-1.1-2c-1.1-0.7-2.4-1-3.7-1.1c-0.9,0-1.5-0.8-1-1.4c0.2-0.3,0.7-0.6,1.1-0.6c1.9,0,3.6,0.6,5.2,1.7
		c0.8,0.6,1.3,1.5,1.5,2.5c0.1,0.5,0.4,0.9,0.6,1.3c0.1,0.2,0.3,0.3,0.4,0.5c1.4,1.9,1.4,2.7,0.1,4.6c-0.2,0.2-0.3,0.4-0.5,0.7
		c-1.4,1.7-2.4,2.1-4.4,1.2c-1.4-0.6-2.7-0.5-4.1,0.1c-0.8,0.4-1.5,0.7-2.3,1.1c-1.9,0.7-3,2.2-3.6,4.1c0,0.2-0.1,0.3-0.1,0.5
		c-0.2,2.6-1.8,4.3-3.8,5.8c-1,0.7-1.8,1.7-2.6,2.6c-0.1,0.1-0.2,0.4-0.2,0.6c-0.4,3.8-0.8,7.6-1.1,11.5
		C180.2,614.2,180.5,615.9,180.6,617.5z"/>
	<path d="M133.9,591.7c-0.4,0.7-0.7,1.2-0.9,1.8c-1.5,3.8-3,7.6-4.5,11.5c-1.2,3.1-2.7,6-5.1,8.3c-2.6,2.5-5.8,3.7-9.4,3.4
		c-1.2-0.1-2.3-0.6-2.9-1.8c-0.4-0.7-0.2-1.4,0.3-1.6c0.7-0.3,1.1,0.1,1.5,0.7c0.2,0.4,0.9,0.7,1.4,0.7c2.9,0.3,5.5-0.7,7.6-2.7
		c2-1.8,3.4-4.1,4.3-6.6c1.4-3.6,2.7-7.3,4.2-10.9c0.8-1.9,1.6-3.8,3.2-5.3c0.2-0.2,0.1-0.7,0.2-1.1c0.1-0.4,0.1-0.9,0.3-1.1
		c0.2-0.2,0.7-0.4,0.9-0.2c0.3,0.2,0.6,0.6,0.7,1c0.2,1.4,0.3,2.8,0.5,4.2c0.1,0.4,0.2,0.7,0.7,0.8c0.8,0.1,1.1,1.1,0.5,1.6
		c-0.4,0.4-0.3,0.6-0.2,1c1.1,3.3,0.1,6.3-1.6,9.1c-0.7,1.2-1.9,2.1-3.1,2.8c-2.1,1.3-2.7,3.1-2.3,5.4c0.4,1.9,0.6,3.9,0.8,5.8
		c0,0.3,0.1,0.6,0.1,0.8c0,0.6-0.4,1-0.9,0.9c-0.4-0.1-0.9-0.5-1-0.8c-0.4-2.9-0.8-5.7-1.1-8.6c-0.2-1.7,0.6-3.1,1.9-4.2
		c1.1-0.9,2.2-1.7,3.2-2.6c0.6-0.5,1.1-1.2,1.3-1.9c0.5-1.4,0.7-2.9,1-4.4c0-0.2,0-0.4,0-0.6C135,595.3,134.5,593.6,133.9,591.7z"/>
	<path d="M144.6,586.2c0.5,0.1,0.9,0.4,0.9,1c0,0.8-0.8,1.7-1.4,1.7c-0.6,0-1-0.4-1-1C143.1,587.1,144,586.1,144.6,586.2z"/>
	<path d="M145.7,597.5c0,0.8-0.8,1.8-1.4,1.8c-0.6,0-1-0.4-1-1c0-0.7,0.8-1.7,1.4-1.7C145.3,596.6,145.6,597,145.7,597.5z"/>
	<path d="M139.9,600.9c0,1-0.4,1.7-1.1,1.7c-0.6,0-1-0.5-1-1c0-0.9,0.5-1.6,1.1-1.6C139.5,600,139.8,600.4,139.9,600.9z"/>
	<path d="M160.2,590.6c-0.8,0-1.3-0.3-1.3-1c0-0.7,0.5-1,1.3-1c0.8,0,1.3,0.4,1.3,1C161.6,590.2,161.1,590.6,160.2,590.6z"/>
	<path d="M142.5,591c0-0.6,0.9-1.5,1.5-1.4c0.6,0.1,0.9,0.4,0.9,1c0,0.6-0.9,1.4-1.5,1.4C143,592.1,142.5,591.6,142.5,591z"/>
	<path d="M184.1,585.9c-0.5,0-0.9-0.4-0.9-1c0-0.6,0.7-1.2,1.6-1.2c0.6,0,1,0.4,1,1C185.8,585.3,185.1,585.9,184.1,585.9z"/>
	<path d="M182.4,583.3c-0.6,0-1.1-0.3-1.1-1c-0.1-0.7,0.5-1.1,1.5-1.1c0.6,0,1,0.3,1.1,1C183.9,582.9,183.3,583.3,182.4,583.3z"/>
	<path d="M176,583.5c0,0.8-0.6,1.2-1.5,1.2c-0.6,0-1-0.3-1-0.9c0-0.7,0.6-1.1,1.6-1.1C175.6,582.6,176,583,176,583.5z"/>
	<path d="M140.6,591.6c0,0.9-0.5,1.5-1.1,1.5c-0.7-0.1-1-0.5-0.9-1.1c0.1-0.9,0.5-1.5,1.1-1.4C140.3,590.5,140.6,590.9,140.6,591.6z
		"/>
	<path d="M185.4,590.7c0,0.7-0.7,1.2-1.6,1.1c-0.6,0-1-0.4-1-1c0-0.7,0.7-1.1,1.6-1.1C185,589.7,185.4,590.1,185.4,590.7z"/>
	<path d="M159.2,585.6c0.7,0,1.3,0.5,1.3,1.1c-0.1,0.6-0.5,0.9-1.1,0.9c-0.9-0.1-1.5-0.5-1.5-1.1
		C157.9,585.9,158.3,585.6,159.2,585.6z"/>
	<path d="M148,584c-0.8,0-1.2-0.4-1.2-1c0-0.6,0.5-1,1.4-1c0.8,0,1.2,0.4,1.2,1C149.3,583.7,148.9,584,148,584z"/>
	<path d="M142.4,601c0.5,0,0.9,0.4,0.9,1c0,0.6-0.9,1.4-1.5,1.4c-0.6,0-0.9-0.4-1-1C140.9,601.8,141.7,601.1,142.4,601z"/>
	<path d="M158.5,595.5c-0.8,0-1.3-0.4-1.3-1c0-0.6,0.5-1,1.3-1c0.9,0,1.4,0.4,1.3,1.1C159.7,595.3,159.2,595.5,158.5,595.5z"/>
	<path d="M170.8,591.5c-0.5,0-0.9-0.3-0.9-1c0-0.6,0.5-1,1.4-1.1c0.7,0,1.1,0.3,1.1,0.9C172.4,591.1,171.8,591.5,170.8,591.5z"/>
	<path d="M169.8,585.8c-0.8,0-1.2-0.4-1.2-1c0-0.7,0.4-1,1.2-1c0.9,0,1.3,0.4,1.3,1C171.1,585.5,170.6,585.9,169.8,585.8z"/>
	<path d="M152.9,589.6c-0.9,0-1.3-0.3-1.3-1c0-0.6,0.4-1,1.2-1c0.8,0,1.3,0.3,1.3,1C154.2,589.2,153.7,589.6,152.9,589.6z"/>
	<path d="M179.2,589.9c-0.5-0.1-0.9-0.3-1-1c0-0.6,0.6-1.2,1.4-1.2c0.6,0,1,0.3,1.1,0.9C180.8,589.3,180.1,589.9,179.2,589.9z"/>
	<path d="M139.1,588.4c0,0.7-0.5,1.3-1.2,1.2c-0.6-0.1-0.9-0.5-0.9-1.1c0-0.9,0.5-1.5,1.1-1.4C138.8,587.1,139.1,587.5,139.1,588.4z
		"/>
	<path d="M142.5,587c0,0.6-0.8,1.5-1.4,1.5c-0.6,0-1-0.4-1-1c0-0.6,0.8-1.3,1.4-1.3C142.1,586.1,142.4,586.5,142.5,587z"/>
	<path d="M178,597.9c-0.5-0.1-0.8-0.4-0.8-1c0-0.6,0.8-1.3,1.4-1.3c0.6,0,1,0.4,1,1C179.5,597.2,178.7,598,178,597.9z"/>
	<path d="M161.9,583.6c0.9,0,1.4,0.4,1.3,1.1c-0.1,0.7-0.5,0.9-1.1,0.9c-0.9,0-1.4-0.4-1.4-1.1C160.8,584,161.2,583.6,161.9,583.6z"
		/>
	<path d="M165.3,597c-0.5-0.1-0.9-0.4-0.9-1c0-0.7,0.6-1.1,1.5-1.1c0.6,0,1,0.4,1,1C166.9,596.5,166.2,597,165.3,597z"/>
	<path d="M183.9,580.4c-0.4,0-0.8-0.3-0.9-0.9c0-0.7,0.5-1.1,1.4-1.1c0.7,0,1,0.3,1.1,1C185.5,580,184.9,580.4,183.9,580.4z"/>
	<path d="M150.9,586.5c-0.8,0-1.3-0.4-1.2-1c0-0.6,0.5-1,1.3-1c0.7,0,1.1,0.3,1.2,1C152.2,586.2,151.7,586.5,150.9,586.5z"/>
	<path d="M141.5,598.1c0.6,0.1,0.9,0.4,0.9,1.1c0,0.9-0.5,1.4-1.1,1.4c-0.6,0-1-0.5-1-1.1C140.3,598.6,140.8,598,141.5,598.1z"/>
	<path d="M191.6,581.6c-0.6-0.1-0.9-0.4-1-1c0-0.5,0.8-1.2,1.4-1.2c0.6,0,1,0.4,1,1C193.1,580.9,192.3,581.6,191.6,581.6z"/>
	<path d="M152.3,581.8c1.1,0,1.7,0.5,1.7,1.1c0,0.6-0.5,1-1.1,1c-0.9,0-1.5-0.5-1.4-1.1C151.5,582.1,151.9,581.8,152.3,581.8z"/>
	<path d="M140.5,583.1c0.5,0,0.9,0.3,0.9,0.9c0,0.6-0.6,1.2-1.4,1.2c-0.6,0-1-0.4-1-1C138.9,583.7,139.6,583.2,140.5,583.1z"/>
	<path d="M140.1,596.7c0,0.6-0.4,1.1-1,1.1c-0.6,0-1-0.6-1-1.4c0-0.7,0.3-1.1,1-1.1C139.7,595.2,140.1,595.8,140.1,596.7z"/>
	<path d="M178.9,581.2c0.5,0,0.9,0.3,0.9,0.9c0.1,0.6-0.6,1.2-1.4,1.2c-0.6,0-1-0.3-1-0.9C177.3,581.8,178,581.2,178.9,581.2z"/>
	<path d="M194.7,581.2c0.5,0.1,0.9,0.4,0.9,1c0,0.6-0.8,1.2-1.5,1.2c-0.6,0-0.9-0.4-0.9-1C193.2,581.8,194,581.2,194.7,581.2z"/>
	<path d="M172.8,587.9c-0.6,0-1.1-0.4-1.1-1c0-0.6,0.6-1,1.4-1.1c0.7,0,1.1,0.3,1.1,1C174.2,587.4,173.7,587.8,172.8,587.9z"/>
	<path d="M155.4,586.4c-0.8,0-1.2-0.4-1.2-1c0-0.6,0.5-1,1.3-0.9c0.7,0,1.1,0.3,1.2,1C156.7,586,156.2,586.4,155.4,586.4z"/>
	<path d="M168.2,588.8c-0.4,0-0.8-0.3-0.8-1c0-0.6,0.5-1,1.3-1c0.7,0,1,0.3,1.1,1C169.9,588.4,169.3,588.8,168.2,588.8z"/>
	<path d="M188.3,580.6c-0.6,0-1-0.3-1-0.9c-0.1-0.6,0.7-1.2,1.5-1.1c0.6,0,1,0.4,1,1C189.7,580.1,189.1,580.5,188.3,580.6z"/>
	<path d="M166,586.1c-0.8,0-1.3-0.4-1.2-1c0-0.6,0.5-1,1.3-1c0.7,0,1.1,0.2,1.2,1C167.3,585.7,166.8,586.1,166,586.1z"/>
	<path d="M162.5,591.8c0.7,0,1.1,0.3,1.2,1c0.1,0.6-0.5,1-1.2,1c-0.7,0-1.1-0.3-1.2-1C161.3,592.1,161.8,591.8,162.5,591.8z"/>
	<path d="M165.7,591.4c-0.7,0-1.1-0.3-1.2-1c0-0.6,0.5-1,1.2-1c0.7,0,1.1,0.3,1.2,1C166.9,591,166.4,591.4,165.7,591.4z"/>
	<path d="M187.8,581.7c0,0.7-0.6,1.2-1.4,1.2c-0.6,0-1-0.4-1-1c0-0.6,0.7-1.2,1.4-1.1C187.5,580.8,187.8,581.1,187.8,581.7z"/>
	<path d="M139.4,604.5c0,0.7-0.7,1.4-1.3,1.4c-0.6,0-1-0.4-1-1c0-0.6,0.8-1.3,1.3-1.3C139.1,603.6,139.4,604,139.4,604.5z"/>
	<path d="M185.8,586.5c0.5,0,0.9,0.3,1,1c0.1,0.6-0.6,1.2-1.3,1.2c-0.6,0-1-0.3-1-0.9C184.3,587.1,184.9,586.6,185.8,586.5z"/>
	<path d="M145.9,593.8c0,0.7-0.7,1.4-1.3,1.4c-0.6,0-1-0.4-1-1c0-0.6,0.7-1.3,1.3-1.3C145.5,593,145.8,593.3,145.9,593.8z"/>
	<path d="M195.3,578.1c0,0.7-0.6,1.2-1.4,1.2c-0.6,0-1-0.3-1-1c0-0.6,0.6-1.1,1.4-1.1C194.9,577.2,195.2,577.6,195.3,578.1z"/>
	<path d="M163.5,588.7c-0.8,0-1.3-0.4-1.2-1c0-0.7,0.5-1,1.1-1c0.8,0,1.3,0.4,1.2,1C164.6,588.4,164.2,588.7,163.5,588.7z"/>
	<path d="M179.6,593.2c0-0.8,0.6-1.5,1.2-1.4c0.6,0.1,0.9,0.4,0.9,1.1c0,0.7-0.6,1.3-1.2,1.3C180,594.1,179.7,593.8,179.6,593.2z"/>
	<path d="M189.6,584.9c-0.5,0-0.9-0.3-0.9-1c0-0.6,0.5-1.1,1.3-1.1c0.6,0,1,0.3,1.1,0.9C191.2,584.3,190.6,584.9,189.6,584.9z"/>
	<path d="M154.6,590.8c0.7,0,1.4,0.5,1.4,1.1c0,0.6-0.4,1-1,1c-0.7,0.1-1.3-0.5-1.3-1.1C153.7,591.2,154.1,590.9,154.6,590.8z"/>
	<path d="M142.8,594.1c0,0.7-0.4,1.2-1,1.2c-0.6,0-1-0.5-1-1.2c0-0.7,0.4-1.2,1-1.2C142.4,593,142.8,593.4,142.8,594.1z"/>
	<path d="M169.4,593c0,0.6-0.6,1-1.3,1c-0.6,0-1-0.4-1-1c0-0.6,0.6-1.1,1.3-1.1C169,592,169.4,592.5,169.4,593z"/>
	<path d="M173.8,594.1c0,0.7-0.7,1.1-1.4,1c-0.6-0.1-0.9-0.4-0.9-1c0-0.6,0.7-1.1,1.4-1C173.5,593.2,173.7,593.6,173.8,594.1z"/>
	<path d="M157.7,589.2c-0.1,0.5-0.4,0.9-1,0.9c-0.6,0-1.2-0.6-1.2-1.1c0-0.6,0.4-0.9,1-1C157.1,588,157.7,588.6,157.7,589.2z"/>
	<path d="M180.8,584.4c0.7,0,1.3,0.5,1.2,1.1c-0.1,0.6-0.4,0.9-1.1,0.9c-0.7,0-1.1-0.3-1.2-1C179.7,584.8,180.2,584.4,180.8,584.4z"
		/>
	<path d="M145.2,583.6c0,0.6-0.6,1.2-1.2,1.1c-0.6,0-1-0.4-1-1c0-0.6,0.6-1.1,1.2-1.1C144.9,582.6,145.2,583,145.2,583.6z"/>
	<path d="M136.7,586.4c-0.5,0-0.9-0.4-0.9-1c0-0.6,0.6-1.1,1.2-1.1c0.6,0,1,0.4,1,1C138,585.9,137.4,586.4,136.7,586.4z"/>
</g>
<g>
	<path d="M17.2,714.4c-0.3,3.7-0.6,7.5-0.7,11.2c-0.1,1.8,0.2,2,2,2.5c1.5,0.4,2.7,1.1,3.1,2.7c0.3,1.1-0.1,1.5-1.2,1.6
		c-2.2,0.2-4.4-0.1-6.3-1.3c-0.9,1.3-1.4,1.5-2.5,1.1c-1-0.4-1.5-1.3-1.3-2.6c0.5-3.9,1.1-7.7,1.6-11.6c0.3-2.2,0.5-4.4,0.7-6.5
		c0.1-0.6-0.1-0.9-0.6-1c-0.3-0.1-0.5-0.2-0.7-0.3c-2.1-1.1-2.6-2.5-1.6-4.7c-0.8,0.1-1.5,0.4-1.9,1.1c-0.5,0.9-1.1,1.1-1.9,0.9
		c-0.7-0.2-1-0.7-1.1-1.7c0-0.1,0-0.1,0-0.2c-1.4-0.2-1.8-1.5-2.3-2.5c-0.4-0.7,0-1.4,0.4-2.1c1.2-1.7,2.3-3.5,3.6-5.4
		c-0.5-0.1-0.9-0.1-1.3-0.2c-0.8-0.2-1.7-0.3-2.4-0.7c-1.2-0.5-1.7-1.7-1.7-3c-0.5,0-0.9,0-1.4-0.1c-1.1-0.2-2.2-0.2-3.3-0.5
		c-1-0.3-1.3-0.9-1.2-2c0-0.2-0.1-0.5-0.2-0.6c-0.6-0.5-1.2-0.9-1.9-1.4c-0.2-0.1-0.5-0.2-0.8-0.2c-1.1-0.3-2.2-0.4-3.3-0.8
		c-0.9-0.3-1.6-0.8-2-1.8c-0.1-0.2-0.3-0.4-0.5-0.6c-0.6-0.7-1.3-1.3-1.7-2c-0.8-1.2-0.7-2.5,0-3.8c0.2-0.3,0.2-0.7,0.2-1
		c-0.1-1.4-0.1-2.7,1.1-3.8c0.2-0.2,0.2-0.5,0.3-0.7c0.4-1.8,1.2-3.3,3-3.9c0.2-0.1,0.3-0.3,0.5-0.5c0.7-0.5,1.4-1.2,2.2-1.6
		c1.1-0.6,2.2-0.4,3,0.5c1.7,1.7,3.1,3.6,3.9,5.9c0.7,2.2,1.2,4.4,1.9,6.6c0,0.1,0.1,0.1,0.1,0.3c0.1,0,0.2,0,0.3-0.1
		c4.8-2.9,10-4.3,15.4-5.3c2.2-0.4,4.5-0.7,6.8-0.8c4.1-0.3,7.5,1.2,10.5,4c1.4,1.3,3.1,2.5,4.7,3.6c1.3,0.9,2.7,1.3,4.3,1.2
		c2-0.1,3.4-1.2,3.9-3.1c0.5-1.8,0.2-3.6-0.3-5.3c-0.9-3.1-2-6.2-2.9-9.3c-1.1-3.7-0.7-7.3,0.2-11c0.1-0.3,0.2-0.7,0.4-1
		c0.7-1.3,1.5-1.8,2.9-1.5c1,0.2,1.9,0.6,2.9,1c0.7,0.3,1.4,0.6,2.1,0.8c0.7,0.3,1.2,0.7,1.2,1.5c0,0.8-0.5,1.3-1.2,1.5
		c-0.8,0.2-1.6,0.3-2.4,0.3c-0.7,0.1-1,0.4-1.2,1c-0.7,2.3-0.8,4.7,0.1,7c1,2.7,2,5.4,3,8.2c1,2.8,1.3,5.7,0.7,8.6
		c-0.7,3.5-2.7,6.1-5.4,8.3c-1.5,1.2-3,2.3-4.4,3.6c-0.6,0.5-1.2,1.3-1.5,2c-1.7,3.5-4.6,5.1-8.3,5.1c-2.4,0-4.8-0.3-7.3-0.5
		c-0.1,0-0.2,0-0.3,0c-1-0.2-1.7,0-2.2,1c-1.3,2.6-2.6,5.2-4,7.7c-0.2,0.4-0.2,0.8,0.3,1.1c2.9,2.1,5.9,4.3,8.8,6.4
		c0.1,0,0.1,0.1,0.2,0.1c1.8,0.9,2.7,2.3,2.8,4.4c0,1.9,0.8,3.6,2.1,5c0.1,0.1,0.1,0.2,0.2,0.2c0.9,1.1,1,1.8,0.4,2.6
		c-0.7,0.9-2,1.2-3,0.7c-0.3-0.1-0.6-0.3-0.9-0.6c-2-2-3.6-4.2-4-7.1c0-0.2-0.2-0.4-0.3-0.6c-1.3-1.1-2.6-2.3-3.9-3.4
		c-1.3-1-2.6-2-3.9-3.1C17.4,714.4,17.3,714.4,17.2,714.4z M-6.7,678.9c0.1,0.6,0.5,1.2,0.3,1.6c-0.2,0.4-0.9,0.6-1.4,1
		c0.1,0.3,0.3,0.6,0.5,1c0.5,0.9,0.3,1.3-0.6,1.7c-0.4,0.1-0.7,0.4-1,0.5c0.9,0.4,1.8,0.4,2.5,0.7c0.8,0.3,1.4,1,2.1,1.5
		c0.2,0.1,0.4,0.3,0.6,0.4c1.2,0.8,1.2,0.8,0.7,2.2c0.4,0.1,0.8,0.2,1.2,0.2c1,0.1,1.9,0,2.9,0.2c1.6,0.3,1.6,0.4,1.7,2
		c0,0.1,0,0.2,0,0.2c0.1,0.9,0.8,1.3,2.1,1.5c0.8,0.1,1.5,0.2,2.3,0.5c0.4,0.1,0.6,0.1,0.9-0.2c0.8-0.8,1.7-1.6,2.5-2.4
		c0.3-0.3,0.5-0.6,0.6-1c0.5-2.2,1.3-4.3,3-5.9c0.2-0.2,0.3-0.5,0.4-0.7c0.7-2.2,2.5-3.8,4.7-3.7c2.8,0.1,5.5,0.3,8.3,0.7
		c0.8,0.1,1.6,0.6,2.4,1c0.5,0.3,0.5,0.9,0.1,1.3c-0.4,0.4-0.8,0.4-1.3,0.2c-0.4-0.2-0.9-0.6-1.4-0.6c-2.6-0.3-5.3-0.5-8-0.7
		c-1-0.1-2.1,0.4-2.5,1.4c-0.6,1.6-1.7,2.8-2.7,4.1c-0.1,0.1-0.2,0.3-0.2,0.4c-0.5,1.6-1.1,3.2-1.5,4.8c-0.4,1.7-0.5,3.5-0.8,5.2
		c0,0,0.1-0.1,0.3-0.1c0.9-0.6,1.8-1.3,2.8-1.9c0.8-0.5,1.5-0.3,1.8,0.4c0.4,0.9,0.7,1,1.7,0.7c0.3-0.1,0.6-0.2,0.9-0.3
		c0.9-0.1,1.6,0.3,1.7,1.2c0,0.2,0.1,0.3,0.1,0.5c0.2,0,0.4,0,0.5-0.1c1.4-0.7,2.9-0.6,4.5-0.5c2.2,0.2,4.5,0.4,6.7,0.5
		c3.2,0,5.6-1.3,6.9-4.4c0.3-0.7,0.8-1.3,1.3-1.8c0.8-0.7,1.6-1.4,2.4-2.1c1.5-1.3,3.2-2.6,4.6-4.1c1.3-1.3,2.1-2.9,2.5-4.8
		c-0.6-0.3-1.2-0.6-1.8-0.9c-1.5,3.1-3.5,4.3-6.5,4.1c-1.5-0.1-3-0.5-4.3-1.4c-1.8-1.2-3.5-2.5-5.1-3.9c-2.7-2.5-5.8-3.8-9.5-3.5
		c-1.9,0.2-3.7,0.3-5.6,0.7c-5.5,1-10.9,2.3-15.7,5.3c-0.2,0.1-0.4,0.2-0.6,0.3c-1,0.3-1.8,0-2.3-1c-0.2-0.4-0.3-0.8-0.3-1.2
		c-0.1-0.7-0.5-1.1-1.1-1.5c0,0.6-0.1,1-0.1,1.5c0,0.5-0.2,1-0.7,1.1c-0.4,0-0.8-0.2-1.1-0.5c-0.5-0.5-0.8-1-1.2-1.6
		C-6,678.7-6.4,678.8-6.7,678.9z M-8.9,679.7c-0.1,0-0.2-0.1-0.2-0.1c0.1-0.6,0-1.4,0.3-1.6c1-0.6,2.1-1.1,3.2-1.4
		c0.4-0.1,0.9,0.4,1.5,0.6c0.2-0.9,0.8-1.4,1.9-1.3c-0.6-2.7-2-4.9-3.8-6.9c-0.7-0.8-1.1-0.9-2-0.2c-1,0.7-1.5,1.9-2.9,2.2
		c-0.3,0.1-0.6,0.6-0.8,1c-0.2,0.5-0.3,1.1-0.4,1.6c-0.1,0.3-0.1,0.7-0.3,0.9c-1.3,0.7-1,1.8-0.8,2.9c0.1,0.6,0.1,1-0.3,1.4
		c-0.8,0.9-0.8,1.7,0,2.7c0.3,0.4,0.7,0.8,1.1,1.1c0.5,0.4,1.1,0.7,1.1,1.4c0,0.2,0.3,0.3,0.4,0.4c0.5-0.5,0.9-0.9,1.2-1.3
		c0.2-0.2,0.3-0.6,0.2-0.8C-9.9,681.2-9.8,680.3-8.9,679.7z M10.5,694.6c-0.1,0-0.2-0.1-0.3-0.1c-1.5,1.5-2.9,3.1-3.9,4.9
		c-0.5,0.9-1.2,1.8-1.8,2.7c-0.1,0.2-0.1,0.6,0,0.7c0.2,0.3,0.3,1,0.9,0.8c0.9-0.3,1.4,0,1.7,0.9c1.7-0.9,3-1.2,5.4-1.3
		c2.9-0.1,4.9-1.7,7-3.3c-0.2-0.4-0.4-0.8-0.6-1.1c-1.5,0.8-2.7,0-3.9-0.6c-1,0.6-1.9,1.3-2.8,1.8c-0.5,0.3-1.1,0.6-1.7,0.7
		c-1.2,0.2-2-0.7-1.5-1.9c0.2-0.4,0.5-0.8,0.6-1.3C9.8,696.5,10.1,695.5,10.5,694.6z M31.8,727.4c0-0.1,0.1-0.1,0.1-0.2
		c-0.1-0.2-0.3-0.4-0.4-0.6c-1.6-1.8-2.4-3.9-2.6-6.3c-0.1-1.2-0.5-1.9-1.5-2.5c-4.2-2.4-7.8-5.5-11.5-8.5c-1.4-1.1-2-2.6-1.5-4.4
		c-1.5-0.2-2.6,0.2-3.2,1.7c-0.3,0.6-0.2,1,0.2,1.4c0.3,0.2,0.6,0.4,0.9,0.5c1.2,0.7,2.5,1.3,3.6,2.2c3,2.3,5.9,4.7,8.9,7.1
		c0.5,0.4,1,0.9,1.6,1.2c0.7,0.4,1.1,1,1.2,1.8c0.3,2.5,1.7,4.3,3.3,6C31.1,727.2,31.5,727.3,31.8,727.4z M50.7,678.2
		c0.1-1.4-0.2-2.8-0.7-4.2c-1-2.8-2-5.5-3-8.2c-0.9-2.4-1.2-4.9-0.6-7.4c0.4-2,1-3.8,3.5-3.9c-0.7-0.4-1.4-0.8-2.1-1
		c-1.5-0.5-1.8-0.4-2.1,1.1c-0.8,3.3-1,6.7-0.1,10c1.3,4.5,3.4,8.8,3.4,13.5C49.5,678.1,50,678.1,50.7,678.2z M14.6,712.2
		c-0.8,6-1.6,11.9-2.4,17.9c0.8-1,1.2-1.1,2.3-0.7c0.7,0.2,1.4,0.6,2.1,0.8c0.8,0.2,1.6,0.3,2.3,0.4c0-0.1,0-0.2,0.1-0.3
		c-0.6-0.2-1.2-0.4-1.8-0.5c-1.4-0.4-2.3-1.3-2.5-2.8c-0.1-1.1-0.3-2.1-0.2-3.2c0.3-3.3,0.6-6.6,1-9.9
		C15.7,713,15.4,712.5,14.6,712.2z M17,707.7c0.8-1.8,1.7-3.6,2.6-5.5c-1.3,0.8-2.5,1.6-3.1,3C16.1,706.2,16.2,706.9,17,707.7z"/>
</g>
<g>
	<path d="M53.8,497.4c-0.1-1-0.4-2.1-0.4-3.1c0-6.3,0-12.5-0.1-18.8c-0.1-6.1-3.4-10.5-9-11.5c-1.7-0.3-3.8,0-5.4,0.6
		c-2.2,0.8-3.2,2.1-1.6,4.8c1.2,2.1,1.6,4.9,1.8,7.5c0.4,5.5,0.1,11.1,0.7,16.5c0.7,6.2,3.3,8.5,9.5,9.2c2.5,0.3,2.3,1.8,2.5,3.5
		c0.2,2-0.9,2.5-2.7,2.5c-2.6-0.1-5.1,0-8.1,0c0.3-1.7,0.5-2.8,0.7-3.6c-2.9-1.9-6.1-3.3-8.5-5.6c-2-1.8-3-4.7-4.5-7
		c-0.4-0.7-1.2-1.6-1.8-1.5c-0.7,0.1-1.6,1-1.8,1.7c-1.3,4.7-2.3,9.5-3.6,14.2c-0.2,0.7-1.2,1.3-1.9,1.9c-0.1,0.1-0.4,0-0.6,0
		c-4.5,0-9,0.1-13.4-0.1c-3.6-0.1-5.4-1.7-6.1-5.4c-0.7-3.7-1.3-7.4-2-11.1c-0.8-4-1.4-7.9-4.2-11.5c-2-2.7-2.2-6.7-3.2-10.3
		c-0.4,0.1-1.6,0.7-2.2,0.3c-1.9-1-3.9-2.2-5.3-3.7c-0.5-0.5,0.3-2.5,0.8-3.7c0.7-1.5,1.8-2.6,1.1-4.7c-0.8-2.4,3.9-6.9,7.5-7.4
		c2.3-0.3,4.9-0.2,7,0.5c10.6,3.7,21.1,7.7,31.7,11.7c1.3,0.5,2.6,1.3,3.7,1.2c3.1-0.8,6.1-2.4,9.2-2.4c6.4,0,11.8,5.7,12,12.2
		c0.2,7.1,0.1,14.2,0,21.3c0,0.7-0.4,1.5-0.6,2.2C54.4,497.5,54.1,497.5,53.8,497.4z M-1.8,457.3c3.1,0.5,3.4,2.6,3.1,4.6
		c-0.6,4.8-4,6.4-8.4,6.5c-0.6,5.2-0.3,9.8,3.7,13.5c0.7,0.6,1,1.8,1.2,2.7c1.1,5.7,2.1,11.5,3.3,17.2c0.3,1.4,1.2,2.7,1.8,4
		c0.3-0.1,0.6-0.2,0.9-0.3c0-8.3,0.2-16.6-0.1-24.8c-0.1-2.8-2.3-4.6-5-5.3c-0.9-0.2-1.7-0.6-2.5-1c0.1-0.4,0.2-0.8,0.3-1.2
		c1.5,0.3,3.1,0.2,4.4,0.8c4.4,2,5.4,6,5,10.6c2.9,0,5.3-0.1,7.6,0c1.7,0.1,2.6-0.4,3.1-2.2c1.3-4,4.3-6.3,8.4-7.1
		c0.9-0.2,1.8,0.3,2.7,0.4c-0.6,1.1-1.1,1.4-1.7,1.5c-5.8,1.4-7.8,3.8-7.9,9.8c-0.1,4.7,0,9.4,0,14.1c0,0.8,0.2,1.7,0.3,2.5
		c0.3,0,0.6,0.1,0.9,0.1c1.2-4,2.4-8,3.5-12.1c0.5-2.1,1.5-3,3.8-3.3c5.1-0.7,8.6-4.2,9.8-9.1c-6.8-2.7-7.7-7.3-3.7-12.7
		c-2-0.9-4-1.8-6-2.6c-9.6-3.6-19.1-7.1-28.7-10.6c-4.9-1.8-8.9-0.5-10.9,3.6c0.6,0.1,1.3,0.3,1.8,0.2c2.6-0.2,3.6,0.7,2.4,3.3
		c-0.2,0.5-0.3,1-0.4,1.5c-0.8,3,0.9,4.8,4,4.3c3-0.5,4.7-3.4,3.9-6.4C-1.2,459-1.5,458.1-1.8,457.3z M16,486.9c-3.4,0-6.5,0-9.7,0
		c0,5.7,0,11.1,0,16.8c3.4,0.1,6.5,0.3,9.7,0.4C16,497.9,16,492.6,16,486.9z M39.5,501.1c-1-5.4-2-10.8-3-16c-1.6,1.2-3.5,2.5-5.2,4
		c-0.5,0.5-1,1.6-0.8,2.3C32.2,496.1,35.3,499.6,39.5,501.1z M-11.3,459.6c-0.3,0-0.5-0.1-0.8-0.1c-0.8,1.2-1.7,2.3-2.4,3.5
		c-0.7,1.2-2.3,2.4-0.5,4c1.6,1.5,3.2,1.7,4.3,0.7C-10.9,464.7-11.1,462.1-11.3,459.6z M36,477c0.5-0.3,1-0.7,1.5-1
		c-0.8-2.4-1.6-4.8-2.4-7.2c-0.5,0-0.9,0-1.4,0c-0.4,1.4-1.3,3.1-0.9,4.2C33.3,474.4,34.9,475.6,36,477z"/>
</g>
<g>
	<path d="M89.9,51.6c-0.4,1.7-0.6,3.3-1.1,4.9c-0.5,1.5-1.1,3.1-2,4.5c-1.5,2.3-4.1,2.9-6.4,1.5c-2.1-1.2-2.3-4.3-0.3-5.7
		c0.5-0.4,1-0.4,1.4,0c0.4,0.4,0.5,1,0.1,1.4c-0.6,0.6-1.1,1.3-0.5,2.2c0.5,0.7,2.1,0.9,2.9,0.4c0.6-0.5,1.3-1.1,1.6-1.7
		c0.7-1.9,1.3-3.9,1.9-5.8c0.1-0.4,0.1-0.9,0.2-1.3c0.5-1.6,0-2.7-1.4-3.6c-0.1,1.2-0.1,2.4-0.2,3.6c-0.3,1.9-0.7,3.8-1,5.7
		c-0.1,0.3-0.2,0.7-0.4,1c-0.5,1.1-1,1.4-1.7,1.1c-0.7-0.3-0.6-0.8-0.3-2c0.5-1.9,0.9-3.8,1.3-5.8c0.1-0.5,0.1-1.1,0.1-1.6
		c0.2-2.9,0.2-5.7-1.5-8.4c-1.1-1.8-1.6-3.9-2.3-5.9c-0.2-0.5-0.4-0.9-1-1.1c-0.4-0.1-0.9-0.4-1.1-0.7c-0.2-0.4-0.4-1-0.2-1.3
		c0.2-0.3,0.9-0.5,1.3-0.4c1.7,0.5,3.4,1.1,5.1,1.7c0.7,0.2,1,0.6,0.9,1.3c-0.2,0.7-0.7,0.9-1.4,0.8c-0.4-0.1-0.8-0.2-1.4-0.3
		c1.3,4,3,7.5,5.7,10.9c0.1-0.9,0.1-1.6,0.2-2.3c0.7-8.7-1.5-16.9-5.2-24.7c-0.7-1.5-1.4-3-2.2-4.4c-1.5-2.9-4.3-4.1-7.3-3.1
		c-3.7,1.3-7.5,1.6-11.4,1.2c-7-0.8-14-0.6-20.9-0.7c-1.6,0-3.2,0.1-4.8,0.3c-5.9,0.6-11.3,2.9-16.5,5.6c-2.3,1.2-4.3,2.7-6,4.7
		c-1,1.2-2,2.5-2.9,3.8c-1.5,2.3-2.2,4.8-2.2,7.6c0,5.8,0.7,11.5,2,17.1c0.9,4,1.1,7.9-0.1,11.9c0,0.1-0.1,0.2-0.1,0.3
		c-0.2,0.6-0.6,1.1-1.3,0.9c-0.7-0.2-0.9-0.7-0.8-1.5c0.3-1.2,0.6-2.5,0.7-3.7c0.4-3.4-0.4-6.7-1.1-10c-1.2-5.1-1.6-10.4-1.5-15.6
		c0.1-2.7,0.8-5.2,2.2-7.5c2.4-4.2,5.8-7.4,10-9.7c5-2.7,10.2-4.9,15.9-5.7c1.8-0.3,3.6-0.4,5.4-0.4c6,0,12,0.2,17.9,0.3
		c1.7,0,3.5,0.3,5.2,0.5c3.2,0.3,6.2-0.1,9.2-1.1c4.5-1.5,8.2,0.1,10.4,4.4c2.9,5.6,5.3,11.3,6.6,17.4c1,4.4,0.9,8.9,0.7,13.4
		c0,0.9-0.2,1.8-0.2,2.7c0,0.3,0.2,0.7,0.4,0.8c1.3,0.8,2.6,1.5,4,2.2c0.6,0.3,1.1,0.6,0.9,1.3c-0.1,0.6-0.8,1-1.5,0.7
		c-1.1-0.4-2.2-1-3.3-1.5C90.4,52,90.1,51.8,89.9,51.6z"/>
	<path d="M31,49.6c-0.7,1.2-1.5,2.4-2.2,3.7c-1.2,1.9-2,3.9-2,6.2c0,2.7-0.2,5.4-0.3,8c0,0.7,0.1,1.2,0.7,1.7c0.8,0.7,1.5,1.5,2,2.3
		c0.7,1.2,0.2,2-1.2,2c-3.6,0-7.1-0.1-10.7-0.2c-0.2,0-0.4,0-0.5-0.1c-0.7-0.2-1.1-0.5-0.9-1.3c0.1-0.7,0.6-0.9,1.3-0.8
		c2.7,0.1,5.5,0.3,8.2,0.4c0.3,0,0.6,0,1.2-0.1c-0.7-0.6-1.2-1-1.6-1.4c-0.3-0.4-0.6-0.9-0.6-1.3c0.1-3.7,0.2-7.4,0.4-11
		c0.1-2,0.9-3.8,2.1-5.4c2.5-3.2,3.1-6.9,3.3-10.8c0.1-1.5,0.1-3.1,0.1-4.6c0-0.7,0.2-1.3,1-1.4c0.6-0.1,1.2,0.4,1.1,1.3
		c-0.2,3.2-0.4,6.3-0.7,9.5c0,0.3-0.1,0.6-0.2,0.9c5.8,1.2,11.5,0.8,17.1-0.6c-0.4-1.3-0.9-2.6-1.1-3.9c-0.5-2.8,0.2-5.6,1-8.3
		c0.9-3.3,1.9-6.7,2.8-10c0.1-0.5,0.1-1.1,0.2-1.7c0.1-0.7,0.4-1.2,1.1-1.1c0.8,0,1.1,0.6,1,1.3c-0.4,2-0.7,4-1.2,6
		c-0.8,3.2-1.8,6.4-2.6,9.6c-0.4,1.7-0.4,3.4,0.1,5.1c0.3,1.3,0.9,2.4,2,3.3c1.2,1,1.9,2.5,2.4,4c1.2,3.4,1.6,7,1.8,10.6
		c0.2,3.3,0.2,6.5,0.3,9.8c0,0.6,0.2,0.8,0.8,0.9c2.1,0.4,4.1,0.2,6.3-0.1c-0.1-0.2-0.1-0.3-0.2-0.4c-1.4-1.3-1.5-2.9-1.4-4.7
		c0.8-10.1,2.1-20.2,4.3-30.2c0.2-0.9,0-1.4-0.5-2.2c-0.7-1-1.1-2.3-1.4-3.5c-0.2-0.8,0.2-1.4,0.9-1.4c0.8,0,1.1,0.4,1.2,1.1
		c0.1,0.6,0.3,1.2,0.5,1.7c0.2,0.5,0.5,1.1,1,1.3c0.4,0.2,1-0.1,1.5-0.1c1.2,0,2.5-0.2,3.6,0.1c2,0.7,3.9,1.7,5.9,2.6
		c0.6,0.3,0.8,0.8,0.5,1.5c-0.4,0.7-1,0.6-1.6,0.3c-1.5-0.7-2.9-1.5-4.4-2.1c-1.2-0.5-2.4-0.6-3.6-0.3c-0.8,0.2-1.3,0.6-1.4,1.5
		c-1.4,7.4-2.9,14.7-3.4,22.2c-0.2,2.9-0.5,5.8-0.7,8.6c0,0.4,0.1,1,0.4,1.4c0.5,0.8,1.1,1.5,1.7,2.3c0.7,1,0.4,1.8-0.7,2
		c-3.1,0.6-6.2,1-9.3,0.2c-1.6-0.4-1.6-0.6-1.7-2.2c-0.2-4.8-0.3-9.5-0.7-14.3c-0.2-2.1-0.9-4.2-1.4-6.3c-0.1-0.5-0.4-1-0.7-1.5
		c-0.7-1.2-0.7-1.2-2-1c-2.9,0.5-5.9,1.2-8.8,1.3C37.4,50.2,34.2,49.8,31,49.6z"/>
	<path d="M18,62.2c0,2.1,0,4.2,0,6.3c0,0.9-0.4,1.4-1.2,1.3c-0.8-0.1-1-0.7-1-1.4c0.1-3.8,0.3-7.7,0.3-11.5c0-0.5-0.2-1.1-0.4-1.6
		c-2.4-4.3-4.5-8.6-5.5-13.5c-0.2-0.9-0.2-1.9-0.3-2.8c0-0.7,0.3-1.1,0.9-1.1c0.7,0,1.1,0.4,1.2,1.1c0.3,5.8,2.9,10.7,5.7,15.6
		c0.3,0.6,0.5,1.4,0.5,2.1c0.1,1.9,0,3.7,0,5.6C18.2,62.2,18.1,62.2,18,62.2z"/>
	<path d="M70.8,26.3c0.7-1.8,1.3-3.4,1.9-5c0.1-0.2,0.1-0.5,0.2-0.7c0.4-0.3,0.8-0.7,1.2-0.6c0.3,0.1,0.8,0.7,0.8,1
		c-0.6,2.8-1.4,5.4-3.5,7.5c-0.6,0.6-1.2,0.5-1.7-0.1c-1.3-1.4-2.5-2.9-3.8-4.3c-1.6-1.8-2.1-5.4-0.8-7.5c0.4-0.6,1.1-1.2,1.7-1.4
		c2-0.5,4.1-0.7,6.2-1.1c0.7-0.1,1.2,0.2,1.2,0.9c0.1,0.7-0.4,1.1-1,1.2c-1.8,0.3-3.5,0.6-5.3,0.8c-0.7,0.1-1,0.5-1.2,1.1
		c-0.3,1.8-0.2,3.6,1.3,5C68.8,24.1,69.7,25.1,70.8,26.3z"/>
	<path d="M82.1,22.9c0,0.7-0.6,1.2-1.3,1.2c-0.7,0-1.2-0.6-1.1-1.3c0-0.6,0.6-1.2,1.2-1.1C81.6,21.7,82.2,22.3,82.1,22.9z"/>
</g>
</svg>
