<?xml version="1.0" encoding="utf-8"?>
<!-- Generator: Adobe Illustrator 21.0.2, SVG Export Plug-In . SVG Version: 6.00 Build 0)  -->
<svg version="1.1" id="Layer_1" xmlns="http://www.w3.org/2000/svg" xmlns:xlink="http://www.w3.org/1999/xlink" x="0px" y="0px"
	 viewBox="0 0 144.1 180" style="enable-background:new 0 0 144.1 180;" xml:space="preserve">
<style type="text/css">
	.st0{fill:#FFFFFF;}
</style>
<path d="M-765.1-217.8c-12-22.2-23.5-43.4-35-64.6c-3.2-5.8-5.3-13.6-10.3-16.6c-4.8-2.9-12.6-1-19.1-0.8
	c-36.5,1.2-64.3-21.9-73.6-48.7c-3-8.6-4.8-18.1-4.9-27.3c-0.5-44.8-0.4-89.7-0.2-134.5c0.2-42.9,32.8-75.7,75.6-76
	c45.2-0.3,90.3-0.3,135.5,0c42.4,0.3,75,32.9,75.3,75.2c0.4,45.3,0.4,90.7,0,136c-0.3,42.3-33.1,74.7-75.4,75.2
	c-6.2,0.1-12.3,0.2-18.5-0.1c-3.5-0.2-5.3,1-7,4.1c-13,24.2-26.1,48.3-39.2,72.5C-762.8-221.8-763.7-220.2-765.1-217.8z
	 M-802.1-358.9c0-2.2,0-4,0-5.8c0-25.5,0-51,0-76.5c0-2.6,0.1-4.5,3.1-5.8c13.4-5.8,21.5-16.4,26-30c4.7-14.3,2.3-29,2.9-43.7
	c-8.6,0-16.7,0-24.6,0c-2.1,15,3.4,30.8-6.1,44.2c-0.5,0-1-0.1-1.5-0.1c0-14.7,0-29.4,0-44c-8.5,0-16.4,0-24.8,0c0,15,0,29.7,0,44.4
	c-11-13.5-4.9-29.7-7.4-44.5c-8.1,0-16.1,0-24.4,0c0,10.4-0.7,20.6,0.2,30.6c1.7,19.5,10.4,35,28.9,43.4c2.8,1.3,2.8,3.1,2.8,5.5
	c0,25.7,0,51.3,0,77c0,1.8,0,3.5,0,5.4C-818.5-358.9-810.7-358.9-802.1-358.9z M-703.2-359c0.1-1.5,0.2-2.8,0.2-4.1
	c0-22.3,0-44.7,0.1-67c0-1.7,1.2-4.4,2.5-5c28.3-11.9,39.2-52.3,19-80.2c-10.6-14.6-27.7-21.2-43.8-17c-19.1,5-32.6,22.7-34.6,45.4
	c-1.9,21.2,9.6,42.5,27.7,50.8c3.4,1.5,4.2,3.3,4.2,6.7c-0.1,21.7-0.1,43.3-0.1,65c0,1.8,0,3.5,0,5.4
	C-719.3-359-711.4-359-703.2-359z"/>
<path d="M-696-480.8c-0.2,5.7-2.3,12.8-8.1,18.5c-6.7,6.6-15.4,6.7-22.3,0.3c-11.1-10.2-11.2-31.5-0.2-41.9
	c6.9-6.5,15.9-6.4,22.7,0.4C-699-498.5-696-490.9-696-480.8z"/>
<circle cx="72.4" cy="73" r="57.8"/>
<g>
	<path class="st0" d="M62.3,102.1c-2.7,0-5.1,0-7.8,0c0-0.6,0-1.1,0-1.7c0-8,0-16,0-24c0-0.7,0-1.3-0.9-1.7c-5.8-2.6-8.5-7.5-9-13.6
		c-0.3-3.1,0-6.3,0-9.6c2.6,0,5.1,0,7.6,0c0.8,4.6-1.1,9.7,2.3,13.9c0-4.6,0-9.2,0-13.9c2.6,0,5.1,0,7.8,0c0,4.6,0,9.2,0,13.7
		c0.2,0,0.3,0,0.5,0c3-4.2,1.3-9.1,1.9-13.8c2.5,0,5,0,7.7,0c-0.2,4.6,0.6,9.2-0.9,13.6c-1.4,4.2-3.9,7.6-8.1,9.4c-1,0.4-1,1-1,1.8
		c0,8,0,15.9,0,23.9C62.3,100.9,62.3,101.4,62.3,102.1z"/>
	<path class="st0" d="M93.2,102.1c-2.6,0-5,0-7.7,0c0-0.6,0-1.1,0-1.7c0-6.8,0-13.5,0-20.3c0-1.1-0.2-1.6-1.3-2.1
		c-5.7-2.6-9.2-9.2-8.6-15.8c0.6-7.1,4.8-12.6,10.8-14.2c5-1.3,10.4,0.7,13.7,5.3c6.3,8.7,2.9,21.3-5.9,25c-0.4,0.2-0.8,1-0.8,1.6
		c-0.1,7,0,13.9,0,20.9C93.3,101.2,93.2,101.6,93.2,102.1z M95.4,64.1c0-3.2-0.9-5.5-2.5-7.1c-2.1-2.1-4.9-2.1-7.1-0.1
		c-3.4,3.2-3.4,9.9,0.1,13.1c2.2,2,4.9,2,7-0.1C94.7,68.1,95.4,65.9,95.4,64.1z"/>
</g>
</svg>
