<?xml version="1.0" encoding="utf-8"?>
<!-- Generator: Adobe Illustrator 21.0.2, SVG Export Plug-In . SVG Version: 6.00 Build 0)  -->
<svg version="1.1" id="Layer_1" xmlns="http://www.w3.org/2000/svg" xmlns:xlink="http://www.w3.org/1999/xlink" x="0px" y="0px"
	 viewBox="0 0 100 125" style="enable-background:new 0 0 100 125;" xml:space="preserve">
<polygon points="89.1,-62.6 91.2,-62.4 89.1,-64.7 "/>
<path d="M50.2-31.2c0.6,0,1.1-0.5,1.1-1.1c0-0.6-0.5-1.1-1.1-1.1h-5.4c-0.6,0-1.1,0.5-1.1,1.1c0,0.6,0.5,1.1,1.1,1.1H50.2z"/>
<path d="M93.9-66.5c-0.1-0.1-2.9-3-6-3.7L87.2-74c0,0,0,0,0,0c-0.2-0.9-1-0.8-1.2-0.8l-0.1,0c-0.2,0-3.6,0.8-5.6,3.9
	c-1.1,0.2-4,0.8-7.2,0.8c-2.1,0-3.9-0.2-5.4-0.7c-1.3-0.4-2.3-0.6-3.5-0.6c-0.9,0-1.7,0.1-2.6,0.2c-1.2,0.2-2.5,0.3-4.5,0.3
	c-3.1,0-7-0.5-11.8-1.4c-1.9-0.4-3.7-0.6-5.4-0.6c-12.9,0-17,10.5-17.2,11c-0.1,0.2-6.7,17.2-17.3,14c-0.2-0.1-1.3-0.4-2.3,0.2
	c-0.6,0.3-1,0.8-1.2,1.5c-0.3,0.9,0,1.5,0.2,1.9c0.5,0.9,1.5,1.1,1.9,1.2c0.4,0.1,2,0.6,4.1,0.6c3,0,7.2-0.9,10.9-4.7
	c2.9-3,4.6-5.3,5.7-7c0.5,3.5,0.4,7.4-2.3,9.5l0,0c0,0-0.6,0.5-0.4,1.6l1.3,9.6h-2.9h-0.8c-0.6,0-1.1,0.5-1.1,1.1
	c0,0.6,0.5,1.1,1.1,1.1h0.8h3.2h11.4h5.1h0.5c0.6,0,1.1-0.5,1.1-1.1c0-0.6-0.5-1.1-1.1-1.1h-0.5h-5c-0.1-1-0.4-2-1.2-3
	c-1-1.1-2.6-1.6-4.5-1.3c-0.3-1.2-0.6-3.3,1.5-4.6c3.5-2.2,5.2-4.5,6.7-8.8c2.4,1.5,8.2,4.4,15.6,4.4c3.9,0,7.7-0.8,11.4-2.4
	c-0.1,3.5,0.2,10.8,4.2,15.6h-3.5h-0.5c-0.6,0-1.1,0.5-1.1,1.1c0,0.6,0.5,1.1,1.1,1.1h0.5h4h2.1h10.2h4.3h3.3h1.1
	c0.6,0,1.1-0.5,1.1-1.1c0-0.6-0.5-1.1-1.1-1.1h-1.1h-3.3h-4.5c-0.4-1.9-1.7-4.4-4.8-4.4c-0.5,0-1.1,0.1-1.6,0.2
	c-0.5-1.8-1-4.6,0-5.6c1.9-1.9,6-8.1,6.9-12c0.2,0,0.4,0,0.6,0c1.8,0,6.2,0.2,8.7,2.2l0.3,0.3l0.4,0c1.7-0.1,5-1.4,5.6-5.1l0.1-0.3
	L94-66.4L93.9-66.5z M17.5-48.7C11.9-42.9,5-45,4.7-45.1l-0.2,0c-0.2,0-0.4-0.1-0.5-0.2c0,0,0,0,0-0.1c0.1-0.3,0.5-0.2,0.7-0.2
	c9.9,3,16.4-7.6,18.9-12.7c0.1,0.2,0.1,0.5,0.2,0.8C23.8-56.9,22.7-54,17.5-48.7z M31.2-45.2c-0.4-0.5-0.9-1.1-1.5-1.6
	c-0.3-0.1-0.9-0.3-1.3,0.4c-0.5,1,0.3,1.6,0.3,1.6s0,0,0,0c0.3,0.3,0.5,0.6,0.7,0.9c-3.3,2.3-2.6,6.3-1.7,8.1l0.4,0.8l0.9-0.2
	c1.6-0.4,2.7-0.3,3.3,0.4c0.4,0.4,0.6,0.8,0.6,1.5h-7.3l-1.3-9.8c2.4-2.2,3.1-5.5,2.9-8.7c0.7,0.5,1.5,1.2,2.2,2v0
	c0,0,0.6,0.8,1.5,0.3h0c0.9-0.5,0.3-1.5,0.2-1.6c-1.4-1.8-3.3-2.9-4.2-3.4c-0.5-3.1-1.5-5.7-1.9-6.7c0.5-1.1,2.1-4.3,5.7-6.6
	c-0.6,2.2-0.9,5.4,1,8.5c2.4,3.7,3.1,7.8,3.2,8.8C34.1-48.2,33-46.7,31.2-45.2z M74.3-45.9c-0.4-0.5-1-1-1.8-1.4
	c-0.1,0-1-0.4-1.3,0.6l0,0c-0.3,0.9,0.3,1.3,0.6,1.5c0,0,0.1,0,0.1,0c0,0,0,0,0,0s0,0,0,0c0.5,0.3,0.8,0.7,1,0.9
	c-0.5,0.8-0.7,1.7-0.7,2.7l-1.2,0.1l0.1,0c0,0-0.9,0.1-0.8,1.1c0.1,0.9,0.8,1.1,1,1.1l1-0.1c0.3,1.7,0.8,3.1,0.9,3.4l0.4,1.1
	l1.1-0.4c0.7-0.3,1.4-0.4,1.9-0.4c1.5,0,2.2,1.2,2.5,2.2h-7c-6.4-4.8-5.2-17.2-5.2-17.3l0-0.5c0,0,0,0,0,0c0.3-1.6-1.4-0.8-1.4-0.8
	l-0.2,0.1c-3.9,2-8,3-12.1,3c-9,0-15.5-4.8-15.6-4.8l-1.1-0.8c-0.5-1.8-1.4-4-2.8-6.2c-2.4-3.7-0.3-8.2,0-8.7c0.9-0.4,2-0.6,3.1-0.8
	c-0.6,1.8-1.1,5.3,1.6,9.1c1.8,2.5,2.5,4.8,2.8,6.1l0,0c0,0,0.3,1,1.3,0.8c0.9-0.2,0.9-1.1,0.8-1.2c-0.4-1.7-1.2-4.1-3.2-6.8
	c-3-4.2-1-7.9-0.9-8.1c0.2,0,0.5,0,0.7,0c0.8,0,1.7,0.1,2.6,0.2c0.3,1.1,1.1,4.5,1.4,7.7l0,0c0,0,0,1.1,1.2,1c1.1,0,1-1.1,1-1.1
	c-0.2-2.6-0.8-5.6-1.2-7.2c0,0,0,0,0,0c1.1,0.2,2.2,0.4,3.2,0.6c0.3,0.6,2.8,5.5,3,12.5l0,0c0,0,0,0,0,0c0,0,0,0,0,0
	c0,0.2,0.1,0.8,1.1,0.8l0,0c1,0,1.1-0.7,1.1-0.9c-0.1-5.6-1.6-9.9-2.5-12.1c1.9,0.2,3.5,0.5,5.1,0.5c0.5,1.5,1.5,5.8,1.6,13.2v0
	c0,0,0,0.9,1.1,0.9c1,0,1.1-0.7,1.1-0.9c-0.1-6.8-0.9-11.1-1.5-13.2c1.6,0,2.8-0.2,3.7-0.4c0.8-0.1,1.6-0.2,2.3-0.2
	c-0.3,1.7-0.8,5.6-0.1,8.4c0.1,0.1,0.5,0.8,1.4,0.4l0,0c1-0.4,0.7-1.2,0.7-1.2l0,0c-0.5-2.2-0.1-5.6,0.2-7.4c0.2,0,0.4,0.1,0.6,0.1
	c1.1,0.4,2.4,0.6,3.8,0.7c0.3,1.5,0.6,4.3-0.4,8.4c-1.4,6,3.4,10.1,5.3,11.5C75.3-47.3,74.8-46.5,74.3-45.9z M92.1-55.1
	c-2.9-2.1-7.2-2.4-9.7-2.4c-1,0-1.6,0.1-1.6,0.1l-0.2,0c-0.5,0-0.8,0.7-0.8,0.7l0,0.3c0,0.3-0.1,0.7-0.2,1.1l-0.9-0.8
	c0,0-0.8-0.6-1.5,0.3c-0.7,0.8,0.3,1.6,0.3,1.6l0,0l1.3,1.1c-0.5,1-1,2.1-1.7,3.1c-1.6-1.2-5.4-4.5-4.4-9.1c0.9-4,0.8-6.9,0.5-8.8
	c1.4,0,2.7-0.1,3.9-0.2c-0.2,1.3-0.3,3.4,0.3,6.2c0,0.1,0.3,0.8,1.2,0.6c1-0.2,0.9-1.1,0.9-1.1h0c-0.6-3.2-0.3-5.1-0.1-6
	c1.1-0.2,1.8-0.4,1.9-0.4l0.5-0.1l0.2-0.4c0.7-1.2,1.8-2,2.5-2.5v0c0,0,0.9-0.4,1,0.4l0.6,3.2l0.9,0.1c2.3,0.2,4.7,2.4,5.3,3l3,7.1
	C94.7-55.9,92.9-55.2,92.1-55.1z"/>
<g>
	<path d="M483.5,221.2c2.4-1.4,4-2.4,5.5-3.3c-12.1-10.4-24.3-20.3-35.8-30.9c-16.6-15.2-36.5-21.3-58.3-23.1
		c-8.2-0.7-8.2-0.6-11.3,7c-3.5,8.5-4.1,17.4-4.1,26.5c0,8.7-0.3,17.3-0.3,26c0,1.9,0.5,3.9,1.2,5.8c6.7,18.3,11,37,9.6,56.7
		c-0.1,1.3-0.2,2.7-0.4,4c-0.6,3.9-2.5,6.7-6.9,6.2c-4.4-0.6-5.4-3.7-5-7.7c1.3-12.2,0.2-24.2-3.3-37.3c-3.1,14.3-3.2,27.6-2,40.8
		c1.2,13.6,3.5,27.1,5.3,40.6c0.1,0.7,0.2,1.3,0.3,2c0.5,3.9-0.9,6.8-4.9,7.4c-4,0.7-6.3-1.8-7-5.5c-5.8-33.1-9.5-66.1-1.4-99.6
		c2.8-11.8,3-24.5,2.7-36.7c-0.8-33.6,14.3-59.2,39.1-79.9c11.3-9.4,25.1-13.6,39.7-14.1c27.1-1,53.3,4.9,79.5,10.5
		c23.7,5,47.3,5.4,70.7-1.7c7.7-2.3,15.1-6,22.2-10c9.1-5.2,17.7-11.3,26.4-17.1c1-0.7,2.2-2.3,2.1-3.3c-0.4-3.5,0.2-7,3.8-7.6
		c2.6-0.5,5.6,1.1,8.2,2.3c4-0.7,6.9-2.5,5.7-7.8c-0.3-1.6,2-4.8,3.8-5.5c1.8-0.6,4.4,0.9,6.5,1.9c0.8,0.4,1.2,1.8,1.9,3.1
		c3-1.3,5.8-2.6,9-4c-0.6-3.1-1.3-6-1.8-8.9c-0.7-3.8,0.5-6.8,4.4-7.7c3.9-0.9,6.4,1.2,7.3,5c0.5,1.9,0.9,3.9,1.4,6.4
		c3.4-1.2,6.6-2.4,10.2-3.7c-1.2-4.2-2.4-8.1-3.4-12.1c-1.3-5.1,0.1-8.5,3.7-9.5c3.6-1,6.5,1.3,7.9,6.3c0.8,3,1.7,6.1,2.6,9.1
		c0.1,0.4,0.5,0.8,1,1.6c3.5-1.2,7-2.4,11-3.8c-0.6-3.9-1.1-7.6-1.7-11.3c-0.6-4,0.5-7,4.7-8c3.5-0.8,6.3,1.8,7.2,6.5
		c0.5,2.8,1,5.5,1.6,8.9c4.8-1.5,9.1-2.8,13.7-4.3c-1.1-3.8-2.1-7.1-3-10.4c-1-3.7-0.2-6.8,3.8-7.9c3.9-1.1,6.4,0.7,7.6,4.5
		c0.5,1.7,1.1,3.5,1.9,5.6c9.2-6.9,19.4-9.8,30.5-10c6.6-0.1,9,3.5,6.7,9.7c-2.1,5.4-6.2,11-5.9,16.2c0.3,4.9,5.6,9.3,8.2,14.3
		c2.7,5.1,5.1,10.5,7,16c5.3,15.5,11.8,30.3,21.8,43.6c6.2,8.2,8.8,17.6,5.4,27.8c-3.3,9.8-10.3,14.5-20.5,13.7
		c-8.9-0.7-16.8-3.8-24.6-8.7c-13.8-8.7-28.3-16.2-42.7-24.3c-12.8,12.8-25.7,25-37.9,37.9c-10,10.6-15.1,24-20.3,37.5
		c-3.4,8.8-7.6,17.4-12.7,25.2c-9.7,14.7-15.8,30.7-19.5,47.8c-6.1,27.8-11.9,55.7-13.1,84.3c0,0.3,0,0.7-0.1,1
		c-1.2,10.3-0.1,19.9,7.2,28c1.3,1.5,2.3,3.3,3.2,5.1c2.2,4.1,1,7.7-3.4,9.1c-8.4,2.7-16.9,3.6-25.6,1.3c-4.1-1.1-6.7-3.2-5.8-7.7
		c0.7-3.7,3.9-4.8,8.7-3.9c3.5,0.7,7.1,0.7,11.6,1.2c-4.3-7.9-7.3-15.4-17.5-14.6c-0.4,0.9-0.8,2.2-1.6,3.2
		c-2.3,3.2-7.1,3.8-8.9,0.5c-3-5.4-6.6-11.4-4.1-17.8c6.1-15.7,7.3-32,7-48.6c-0.2-11.3,0.6-22.7,0.5-34c-0.1-12.3-0.7-24.5-1-37.1
		c-40.7,2.7-79.1,0.8-112.6-27.3c-8.5,5.3-17.8,11-27,16.9c-1.5,1-2.8,2.4-3.8,3.9c-11.2,15.9-22.3,31.9-33.5,47.9
		c-6.5,9.3-9.9,19.4-9.9,30.8c0,13.8-0.8,27.7-0.4,41.5c0.1,4.4,2,9.2,4.4,13c4.8,7.6,10.5,14.6,15.8,21.8
		c4.7,6.5,2.8,11.4-5.2,11.9c-7.9,0.5-15.9,0.4-23.9,0c-5.1-0.3-7.8-3.5-7.3-7.1c0.6-3.8,3.6-5.4,8.9-4.7c3,0.4,6,0.7,8.9,0.9
		c0.9,0.1,1.9-0.1,3.4-0.2c-4.5-6.7-8.4-13.2-13.1-19.1c-1.6-2-5.3-2.3-8.1-3.4c-2.3-1-4.6-2-7.1-3.1c-2,3.5-1.5,6.3,1.5,9.2
		c5.2,5.1,6,8.4,3.1,11.4c-3,3.2-6.2,1.9-11.8-3c-5.7-4.9-6.3-10.1-5.8-17.5c1.4-23.6,1.8-47.3,1.6-70.9c-0.1-9.6,0.6-18.9,4.9-27.2
		c9.4-18.2,7-35.3-2.2-52.8c-4.9-9.3-7.6-19.8-10.8-29.9c-1.1-3.4-1-7.4-0.3-10.9c0.4-2.1,2.7-4.8,4.7-5.4c1.7-0.5,4.2,1.6,6.2,2.7
		c1.5,0.8,2.7,2.2,4.2,2.6c5,1.1,10.2,1.7,15.3,2.5c11.4,1.9,21.6,6.5,30.9,13.2C460.8,205.2,472.1,213.1,483.5,221.2z M649.9,99.9
		c-7.2,2.3-7.4,2.7-6.3,9c3.3,18.6,4.9,37.3,2.4,56.2c-1.7,12.7-5.3,24.7-13.6,34.9c-2.6,3.1-5.7,4.4-9.1,1.7
		c-3.4-2.7-2.4-5.7-0.4-9.3c3.6-6.3,7.5-12.7,9.3-19.6c5.3-20.4,3-40.9-0.4-61.5c-5.5,1.7-7.3,4.5-6.5,10.4
		c2.7,20.5,1.3,40.5-8.6,59.3c-3,5.7-5.6,11.7-8.4,17.6c-6.1,12.8-3.8,25.9-2.4,39.6c3.4-0.4,6.3-0.7,9.4-1.1
		c-0.3-2.2-0.5-3.8-0.8-5.4c-0.9-4.7-1.9-9.5-2.6-14.2c-0.5-4.2,2.4-8.2,5.6-7c6.3,2.4,10.3-1.5,14.4-4.2
		c5.8-3.8,11.6-7.9,16.1-13.1c4.8-5.6,6.5-6.7,12.4-2c6.8,5.4,13.5,11.1,20.3,16.7c5.1-11.1,5.4-11.5-2.9-17.9
		c-15-11.5-21.5-26.9-23-45.2C653.6,129.6,651.6,114.8,649.9,99.9z M510.3,203.1c0.9-8.2-1.6-14.4-6.1-18.9
		c-6.8-6.9-14-13.8-22.1-19.2c-22.7-15-48.6-20.1-75.3-21.9c-8-0.5-8.8,0.2-12.3,8.3c0.1,0.1,0.2,0.3,0.3,0.3
		c3.1,0.4,6.3,0.8,9.4,1.2c20.2,2.6,38.7,9.2,54.3,23c9.7,8.6,19.5,17.1,29.4,25.5c3,2.6,6.5,4.6,10.8,7.7
		c-1.2-6.2-5.8-11.7,0.9-14.7C506.3,191.3,507.6,197.9,510.3,203.1z M411.8,131.3c5.5,0.7,9.7,1.1,14,1.7
		c26.9,3.6,51.7,12.4,73.4,29.1c7.8,6.1,14.8,13,19.4,21.9c4.8,9.2,6,18.8,1.6,28.4c-1.9,4.2-0.3,6,3.3,7.7
		c2.3-6.4,4.5-12.7,6.8-18.9c5.7-15.5,2.3-29.1-9.8-39.9c-6.7-6.1-14.3-11.6-22.2-16c-17.1-9.3-34.7-17.5-52.2-26.2
		c-1-0.5-2.2-1-3.3-0.8C431.6,119.6,421.4,123.2,411.8,131.3z M477.3,119.3c-0.1,0.5-0.3,1-0.4,1.5c3.5,1.7,7.1,3.5,10.6,5.2
		c13.6,6.7,27,13.7,38.4,24c18.6,16.6,23.1,34.8,14.6,58c-1.8,5-3.6,10-5,15.1c-0.4,1.4,0.2,4,1.2,4.6c3.1,1.6,6.6,2.6,10.4,4
		c-0.5-16.1,3.4-30.5,7-45.1c1.2-4.8,1.1-10.3,0.2-15.2c-2.1-11.7-8.5-21.5-15.1-31.2c-4.7-7.1-10.3-11.8-19.3-13
		C505.6,125.2,491.5,122,477.3,119.3z M586.1,130.3c-4.8-0.7-6.8,0.9-8.4,5.2c-3.2,8.3-7.5,16.3-11.1,24.4c-0.8,1.8-1.5,4.2-1,6
		c2.4,9.5,1.5,18.6-0.6,28c-2.7,11.9-4.1,24.1-5.8,36.3c-0.2,1.5,0.7,4.2,1.7,4.5c3.8,1.2,7.9,1.6,11,2.2c0-8.8-1.2-17.1,0.3-24.9
		c2.2-12,5.7-23.9,9.6-35.5C586.7,161.3,586,145.8,586.1,130.3z M599,126.9c-1,14.2-1.1,28-3.1,41.4c-1.4,9.4-5.6,18.4-8.4,27.6
		c-3.7,12.1-6.1,24.3-3,36.9c1.6,6.5,2,6.7,9.2,5.4c-0.1-1.1-0.1-2.2-0.3-3.3c-2.4-17.8-1.1-34.9,8.4-50.7c2-3.4,3.4-7.2,5.2-10.8
		c8.1-15.8,8.3-32.7,6.7-49.8c-0.1-0.6-0.5-1.1-0.9-1.7C607.9,123.7,603.2,125.4,599,126.9z M689.3,78.4c-2.5,1.1-4.1,2.1-5.8,2.6
		c-3.7,1.1-4.7,3.2-3.7,7c1.4,5.6,2,11.5,3.3,17.1c3.9,16.5,7.9,33,12.2,49.4c1,3.9,3.6,7.5,5.7,11.6c2.9-3.5,4.9-6.2,7.3-8.5
		c2.4-2.2,3-4.2,2-7.4c-3.1-10.3-5.8-20.8-8.9-31.2C697.5,105.7,693.4,92.4,689.3,78.4z M667.2,89.2c-2.7,1.7-6.8,1.6-6.1,7.1
		c2.2,16.5,4.2,33,5.8,49.5c1.5,16.5,9.1,29.1,24.2,38.5c0.6-3.6,2.8-8,1.5-9.6c-6.9-8.8-10.2-19-12.6-29.6
		C675.7,126.6,671.5,108,667.2,89.2z M721.3,144.2c6.5-4.7,6.4-4.7,6.7-11.6c1-22.7-8.6-42.7-16.2-63.6c-4,1.6-7.6,3-11.4,4.5
		C707.5,97.3,714.3,120.6,721.3,144.2z M472.7,228.5c-10.4-7.5-20.7-14.8-30.8-22.3c-12-8.9-25.9-11.3-41.1-12.9
		c1.5,4.3,2.9,8,4,11.7c0.8,3,2.6,4.2,5.5,4.7c20.8,3.5,40.5,9.3,56,25C468.5,232.4,470.6,230.4,472.7,228.5z M807.5,96.8
		c-5.4-11.5-10.1-22.3-15.5-32.6c-2.8-5.2-10.8-5.3-14.8-0.9c-0.6,0.6-0.9,1.7-0.9,2.6c0.2,7.2,0.3,14.5,0.8,21.7
		c0.1,1.6,1.2,3.8,2.6,4.5C787.8,96.8,796.5,98.2,807.5,96.8z M459.2,245.1c-12.1-14.5-28.6-19-46.4-22.8c1.6,4.2,2.8,7.5,4.2,10.6
		c0.6,1.4,1.5,3.2,2.7,3.8c10.1,4.9,20.4,9.5,30.6,14.4c2.8,1.4,4.6,0.8,6.1-1.9C457,247.9,458,246.8,459.2,245.1z M675.4,219.5
		c-6.6-5.8-12.7-11.2-18.1-15.9c-11,7.2-21.2,13.9-31.9,20.9c0.4,1.9,0.9,4.6,1.5,7.6c13.9-7,27.2-15.6,42.5-4.1
		C671.3,225.3,673.1,222.8,675.4,219.5z M755.9,119.1c0.6,0,1.3,0.1,1.9,0.1c6-21.9,13.2-43.7,0.9-66.2c-4.4,1.4-8.8,2.8-13.8,4.4
		c2.6,7.5,5.1,14.6,7.5,21.6c9.1-0.9,11.5,2.6,8.3,10.5c-2.2,5.4-4.2,10.9-5.2,16.6C754.8,110.2,755.8,114.7,755.9,119.1z
		 M723.1,64.8c7.6,20.1,15.6,39.3,17.9,60.6c1.5-2.2,2.7-4.5,2.9-6.8c0.6-7,0.8-14.1,1.1-21.2c0.1-1.6,0.7-3.4,0.2-4.7
		c-3.8-10.4-7.9-20.8-11.9-31.4C730.1,62.3,726.9,63.5,723.1,64.8z M655.1,254.7c0.1-0.1,1.4-0.9,2-2.1c1.7-3.4,2.8-7.1,4.6-10.5
		c1.4-2.7,0.6-4.8-1.6-5.8c-2.3-1.1-5.4-2.3-7.4-1.6c-7.4,2.8-14.6,6.1-21.5,9.8c-1.2,0.6-1.1,4.4-0.9,6.6c0.1,0.9,2.2,2,3.5,2.1
		C640.4,253.9,647,254.2,655.1,254.7z M647.6,287.1c1.6-6.8,3.1-13.2,4.8-20.5c-7.1-0.5-13.7-0.9-20.5-1.3c0,4.8-0.1,8.6,0.1,12.4
		c0.1,1.1,0.8,2.6,1.7,3.1C638.2,283,642.7,284.9,647.6,287.1z M420.7,251.2c-0.6,3.6-1.3,6.5-1.4,9.5c-0.1,1.2,0.6,3,1.5,3.5
		c5.7,3.3,11.6,6.2,17.8,9.5c2.7-3.9,5.1-7.3,7.6-10.9C437.6,258.9,429.3,255.1,420.7,251.2z M789,131.9
		c7.6-6.3,15.1-12.5,22.5-18.8c0.7-0.6,1.3-2.1,1-2.7c-0.4-0.8-1.7-1.5-2.7-1.5c-3.8,0-7.6,0-11.4,0.6c-1.5,0.2-3.5,1.6-3.9,2.9
		C792.4,118.9,790.8,125.5,789,131.9z M414.4,274.6c-1.6,4.8-3.1,9.2-4.7,13.8c5.4,1.2,10.2,2.4,15.1,3.3c1,0.2,2.5-0.6,3.2-1.4
		c1.5-2,2.5-4.2,3.9-6.6C426,280.7,420.6,277.9,414.4,274.6z M774.5,103.4c-1.5,5.6-2.9,10.6-4.1,15.7c-2,8.2-1.7,8.7,6.6,11.3
		c2.1-7.8,4.1-15.5,6.2-23.6C780.3,105.7,777.6,104.7,774.5,103.4z M788.5,34.7c-5.4,2.9-10.3,5.2-14.7,8.1
		c-3.3,2.1-4.2,5.3-1.7,8.5C780.9,50,788,46.7,788.5,34.7z M559.1,148.7c2.5-5.7,4.8-10.9,7.3-16.5c-6.5,0-12,0-17.8,0
		c3.2,5.2,6.1,9.9,9.1,14.7C557.9,147.3,558.2,147.6,559.1,148.7z M797.2,141.5c0.4,0.5,0.8,0.9,1.2,1.4
		c6.2-0.2,21.2-11.4,22.5-16.9c0.2-1-0.6-2.2-1.5-4.9C811.3,128.5,804.3,135,797.2,141.5z M643.1,308.5c2.6-8.1-1.5-13.3-12-14.8
		c0,3.4-0.2,6.7,0.1,9.9c0.1,1.1,1.3,2.7,2.3,3C636.6,307.5,639.9,307.9,643.1,308.5z M418.8,364.2c1.5-13.6,0.3-15.8-9.5-17.1
		C408.1,360.2,408.4,360.8,418.8,364.2z M409.3,300.7c0,4.2,0,7.8,0,11.8c3.8,0.2,7.3,0.4,11,0.6c0.6-3.5,1-6.4,1.6-9.7
		C417.8,302.5,413.8,301.6,409.3,300.7z M812.6,150.9c4.7,0.7,9.2,3.6,13.3-0.2c3.8-3.6,4.1-8.2,2.5-13.1
		C823.1,142.1,818.1,146.3,812.6,150.9z M409.7,324.7c-1,8.8,0.5,10.6,9.4,11.8c0-3.7,0-7.4,0-11.4
		C415.8,325,412.9,324.8,409.7,324.7z M641.2,320.6c-3.4-0.7-6.4-1.4-9.7-2c0,4.1,0,7.6,0,11.3c3,0.1,5.6,0.3,8.3,0.4
		C640.3,326.9,640.7,324,641.2,320.6z M635.7,372.7c1.4-8.6,0.4-9.9-8.5-11.4c-0.8,2.4-1.6,4.9-2.5,7.8
		C628.6,370.3,632,371.5,635.7,372.7z M637.3,351.7c0.3-3.4,0.6-6.2,0.9-9.4c-2.8-0.1-4.9-0.2-7.3-0.4c-0.3,2.4-0.5,4.5-0.8,6.7
		C632.4,349.6,634.4,350.5,637.3,351.7z"/>
	<path d="M789.9,76.1c3.7-0.1,7,3.2,7,6.9c0,3.7-3.4,7.1-7.1,6.9c-4-0.3-6.4-2.6-6.7-6.6C782.8,79.5,786.2,76.1,789.9,76.1z"/>
</g>
<g>
	<path d="M18.8,85.1c-0.5,3.1-0.3,6.2,0.3,9.2c0.3,1.5,0.5,2.9,0.8,4.4c0.1,0.8-0.1,1.5-1,1.6c-0.9,0.2-1.4-0.3-1.6-1.2
		c-0.8-4.1-1.8-8.1-1.4-12.3c0.2-1.7,0.5-3.5,0.6-5.2c0.2-2,0.3-3.9,0.3-5.9c0.1-2.8-0.2-5.6,0.2-8.3c0.7-4.7,3.3-8.2,7.5-10.5
		c3.8-2,7.9-3.1,12.1-4.2c2.6-0.7,5.2-1.4,7.8-2.2c2.3-0.7,4.2-2.1,6-3.6c0.2-0.2,0.3-0.5,0.3-0.8c0.2-1,0.8-1.5,1.8-1.2
		c0.8,0.2,1.3,0.1,1.4-0.9c0.1-1.1,0.7-1.5,2.2-1.2c0.2-0.4,0.5-0.9,0.8-1.3c-0.9-1.6-0.7-2,1-2.6c0.6-0.2,0.8-0.6,0.4-1.3
		c-0.7-1.1-0.4-1.8,0.9-2.2c0.7-0.2,1.1-1.3,0.7-1.9c-0.7-1-0.5-1.7,0.7-2.2c0.7-0.3,0.9-0.8,0.4-1.4c-0.8-1-0.6-1.7,0.6-2.2
		c0.6-0.3,0.8-0.5,0.3-1.1c-0.9-1.1-0.6-1.9,0.7-2.2c0.7-0.2,0.7-0.4,0.4-0.9c-0.6-1.1-0.4-1.7,0.8-2.1c0.8-0.3,0.8-0.6,0.3-1.3
		c-0.8-1-0.4-2,0.9-2.2c0.9-0.2,0.9-0.5,0.6-1.3c-0.2-0.4-0.2-1.1,0-1.5c0.2-0.3,0.8-0.4,1.3-0.6c0.4-0.1,0.9-0.2,1.5-0.4
		c-0.3-0.4-0.5-0.5-0.5-0.7c-0.1-0.6-0.3-1.2-0.1-1.7c0.3-0.7,1-0.7,1.7-0.4c0.3,0.1,0.8,0,1.4,0c-0.4-0.6-0.6-0.9-0.8-1.1
		c-0.5-0.7-0.5-1.3,0.2-1.9c0.6-0.5,1.3-0.4,1.9,0.2c0.8,0.8,1.5,1.6,2.3,2.3c0.6,0.6,0.9,1.2,0.4,1.9c-0.5,0.7-1.2,0.7-1.9,0.3
		c-0.1-0.1-0.2-0.1-0.3-0.1c-2.3,2.3-4.4,4.7-5.4,7.8c-0.2,0.6-0.2,1,0.2,1.5c0.4,0.4,0.7,0.9,0.9,1.4c0.6,1.1,0.4,2-0.4,2.4
		c-0.8,0.4-1.5,0-2.3-1.3c-0.9,3.1-1.7,6.3-2.6,9.5c0.3,0,0.6,0,0.8,0.1c0.4,0.4,1,0.8,1,1.2c0,0.5-0.6,1.3-1,1.3
		c-2-0.1-2.5,1.3-3,2.7c-0.4,1-0.9,2-1.4,2.9c0.9,0.4,1.7,0.7,2.4,1.1c0.7,0.4,1.1,1,0.6,1.8c-0.4,0.8-1.1,0.9-1.9,0.4
		c-1.4-0.9-2.8-1-4.1,0.3c-0.2,0.2-0.4,0.7-0.4,1c0.2,0.9,0.4,1.8,0.7,2.7c0.3,1.1,0,1.8-0.8,2.1c-0.8,0.2-1.4-0.3-1.7-1.4
		c-0.2-0.7-0.4-1.5-0.6-2.2c0-0.1-0.1-0.1-0.2-0.2c-0.4,0.3-0.9,0.6-1.4,1c0.4,0.8,0.7,1.6,1.2,2.3c0.4,0.7,0.4,1.4-0.2,2
		c-0.7,0.8-1.3,1.6-2,2.3c-0.5,0.6-1.2,0.7-1.8,0.2c-0.6-0.5-0.6-1.2-0.2-1.9c0.3-0.4,0.5-0.7,0.8-1c0.8-0.7,0.8-1.5,0-2.3
		c-0.8,0.4-1.5,0.9-2.4,1.4c0,0.1,0.1,0.3,0.1,0.4c-0.1,0.5,0,1.3-0.3,1.5c-0.3,0.3-1.1,0.2-1.6,0.1c-0.7-0.1-1.4-0.6-2.1-0.5
		C42,54,41.3,54.9,41,56.5c-0.8,3.6-0.3,3-4,3.5c-0.4,0.1-0.9,0.3-1.2,0.1c-0.5-0.2-1.1-0.6-1.3-1.1c-0.3-0.7,0.2-1.3,0.9-1.5
		c0.4-0.1,0.9-0.2,1.3-0.2c1.6-0.2,1.6-0.2,1.7-2.1c-2.4,0.6-4.7,1.3-7.2,1.9c0.5,0.8,1,1.4,1.4,2c0.5,0.7,0.4,1.4-0.3,1.9
		c-0.7,0.5-1.3,0.2-1.8-0.4c-0.6-0.8-1.2-1.7-1.8-2.5c-2.1,0.9-4.2,1.8-5.8,3.5c0.3,0.3,0.5,0.8,0.8,0.9c0.6,0.2,1.2,0.4,1.8,0.4
		c0.2,0,0.5-0.6,0.5-1c0.2-0.9,0.6-1.5,1.6-1.3c0.9,0.1,1.2,0.8,1.1,1.6c-0.1,0.7-0.2,1.4-0.3,2.1c-0.1,0.7-0.6,1.2-1.3,1.2
		c-1.2,0.1-2.4,0.1-3.6,0.1c-0.4,0-0.8-0.3-1.1-0.6c-0.4-0.3-0.7-0.8-1-1.2c-1,1.3-1.6,2.7-1.6,4.2c-0.1,3.6,0,7.2,0,10.7
		c0,0.4,0.2,0.8,0.4,1.1c1.4,3.3,2.1,6.8,2,10.4c0,1.1-0.5,1.8-1.4,1.7c-1-0.1-1.2-0.8-1.3-1.7c-0.1-1.7-0.2-3.5-0.3-5.2
		C19,85.1,18.9,85.1,18.8,85.1z"/>
	<path d="M54,120c-0.1-0.2-0.1-0.4-0.1-0.4c-2-2.5-2.4-5.3-2.2-8.4c0.3-4.7,0.2-9.5,1-14.2c0.6-3.5,0.1-7.1,0.8-10.6
		c0.4-2.2,0.6-4.4,0.9-6.6c0-0.3-0.1-0.8-0.3-1c-0.6-0.4-1.2-0.9-0.8-1.7c0.3-0.5,1-0.8,1.6-1.1c0.5-2.2,2.3-3.7,3.8-5.5
		c1.3-1.5,2.6-3.1,3.9-4.6c0.7-0.8,0.8-1.8,0.5-2.8c-0.7,0-1.4,0-2.2,0c0,0.6-0.1,1.3-0.1,1.9c-0.1,0.9-0.4,1.5-1.4,1.5
		c-0.9,0-1.3-0.7-1.2-1.6c0.1-0.9,0-1.9,0.1-2.8c0.1-1.2,0.5-1.6,1.7-1.6c0.8,0,1.7,0,2.7,0c-0.4-1.5-0.8-2.9-1.3-4.3
		c-0.3-1.2-0.1-1.8,0.7-2.1c0.8-0.2,1.4,0.2,1.8,1.3c0.1,0.3,0.2,0.7,0.4,1c1.2-1.3,1.3-1.8,0.7-3.3c-0.1-0.1-0.1-0.3-0.2-0.4
		c-0.5-0.8-0.8-1.7,0.2-2.3c1-0.6,1.6,0.1,2.2,1.1c0.3-0.6,0.6-1.1,0.7-1.6c0.7-3.7,1.4-7.4,1.9-11.1c0.6-4.2,0.9-8.3,1.4-12.7
		c0,0-0.3,0-0.5-0.2c-0.3-0.4-0.7-0.9-0.7-1.2c0.1-0.4,0.7-1.2,0.9-1.1c1.6,0.2,1.9-0.9,2.3-2c0.2-0.5,0.5-1,0.7-1.5
		c-0.1-0.1-0.1-0.2-0.2-0.3c-0.6-0.7-1-1.5-0.2-2.2c0.8-0.7,1.4-0.2,2.2,0.4c0.6,0.5,1.5,0.7,2.3,0.8c2.6,0.3,5.2,0.4,7.9,0.6
		c0.9,0.1,1.8,0.2,2.5-0.8c-0.6-0.4-1.1-0.8-1.6-1.1c-2.5-1.2-4.7-2.8-6.7-4.7c-0.9-0.9-2-1.4-3.4-1.3c-0.5,0-1.1-0.4-1.4-0.8
		c-0.5-0.9-0.9-1.9-1.2-2.9c-0.3-0.8-0.2-1.6,0.8-1.9c0.9-0.3,1.5,0.2,1.7,1c0.3,1.2,0.9,1.9,2.2,2.2c1.1,0.3,2.2,1.2,3.2,1.8
		c1.9,1.3,3.7,2.6,5.5,3.9c0.6,0.4,1.4,0.7,2,1.2c0.9,0.7,1.8,1.6,1.5,2.8c-0.3,1.4-1.1,2.5-2.5,2.8C87,22,85.5,22,84,21.9
		c-2.5-0.1-4.9-0.4-7.4-0.5c-0.3,0-0.6,0.4-0.8,0.7c-2.1,3.8-2.7,8-3.1,12.2c-0.4,4.3-1,8.6-1.5,12.8c-0.6,4.6-3.3,8.3-5.6,12.2
		c-0.2,0.4-0.3,1-0.3,1.5c0,0.3,0.1,0.6,0.2,0.9c0.7,2.7,0.2,5.1-1.8,7.2c-1.4,1.4-2.6,3.1-4,4.5c-1.5,1.5-2.2,3.3-2.5,5.3
		c-0.4,3.7-1,7.4-1.4,11.1c-0.2,1.7,0.2,3.6-0.2,5.2c-1.3,6.1-1,12.3-1.3,18.5c-0.1,1.4,0.5,2.6,1.2,3.8c0.7,1.1,1.4,2.2,2.1,3.4
		c0.5,1,0.1,2-1,2c-1.9,0-3.8-0.1-5.7-0.2c-0.9-0.1-1.4-0.6-1.2-1.5c0.1-0.9,0.8-1.2,1.7-1.1C52.2,119.9,53,119.9,54,120z"/>
	<path d="M36.2,71.7c-0.3-1.6-0.6-3.2-0.9-4.7c-0.2-1,0.1-1.8,0.9-2c0.8-0.2,1.4,0.3,1.7,1.3c0.3,1,0.5,2.1,0.7,3.3
		c0.6-0.2,1.2-0.4,1.8-0.7c0.8-0.4,1.4-0.3,1.9,0.4c0.4,0.7,0.2,1.5-0.7,1.9c-0.8,0.4-1.7,0.7-2.6,1c-0.1,2.6-0.4,2.1,1.9,2.9
		c2.4,0.9,5.6,1.1,7.7,0.5c-0.3-1.4-0.5-2.7-0.8-4.1c-1,0-1.6,0.5-2,1.3c-0.1,0.3-0.3,0.5-0.5,0.7c-0.5,0.7-1.1,0.8-1.8,0.4
		c-0.7-0.4-0.8-1.1-0.4-1.7c0.8-1.5,1.5-3,3.5-3.2c0.3,0,0.7-0.6,0.9-1c0.9-2.3,1.7-4.6,2.6-6.9c0.3-0.8,1-1.1,1.8-0.7
		c0.8,0.4,0.9,1.1,0.5,1.9c-0.4,0.9-0.8,1.8-1.4,3c0.9-0.2,1.6-0.3,2.2-0.5c0.8-0.2,1.5-0.1,2,0.6c0.6,0.7,1.2,1.4,1.8,2.1
		c0.5,0.7,0.6,1.4-0.1,1.9c-0.6,0.5-1.4,0.4-1.8-0.2c-1-1.7-2.4-1.9-4.2-1.3c-0.9,0.3-1.2,0.7-1,1.5c0.1,0.8,0.4,1.6,0.6,2.6
		c0.6-0.3,1.2-0.6,1.8-0.9c0.8-0.4,1.5-0.3,1.9,0.5c0.4,0.8,0.1,1.4-0.6,1.8c-0.1,0-0.1,0.1-0.2,0.1c-0.7,0.4-2.1,0.9-2.1,1.4
		c-0.1,1.3,0.4,2.7,0.6,4.1c0,0.2,0.4,0.3,0.6,0.4c1.1,0.5,1.3,1.5,0.5,2.2c-0.6,0.5-0.7,1-0.8,1.7c-1.4,11.1-0.6,22.2-1.1,33.3
		c0,0.3,0,0.7,0,1c-0.1,0.9-0.7,1.6-1.4,1.4c-0.9-0.1-1.2-0.7-1.2-1.5c0.1-3.1,0.2-6.3,0.2-9.4c0-4.2-0.1-8.3,0-12.5
		c0.2-4.2,0.7-8.4,0.9-12.6c0.1-1.5-0.2-3-0.4-4.7c-3.7,0.5-7.1,0.2-10.3-1.1c-2.6,6.9-5.2,13.6-7.6,20.5c-0.7,2-0.8,4.3-1,6.5
		c-0.2,3.4-0.2,6.9-0.1,10.3c0,0.7,0.4,1.4,0.7,2c0.6,1.1,1.3,2.2,1.9,3.3c0.5,1.1,0,2-1.2,2c-2,0-3.9,0-5.9-0.1
		c-0.9,0-1.6-0.4-1.5-1.5c0.1-0.9,0.7-1.2,1.9-1.1c1.1,0.1,2.2,0.1,3.4,0.2c-0.2-0.4-0.2-0.6-0.3-0.7c-1.3-1.5-1.6-3.2-1.7-5.1
		c-0.1-7.2-0.1-14.3,2.7-21.2c0.3-0.8,0.7-1.6,1-2.5c-0.4,0-0.8,0.1-1,0c-0.5-0.3-1.1-0.6-1.3-1.1c-0.3-0.7,0.2-1.2,1-1.4
		c0.1,0,0.1-0.1,0.2,0c2.1,0.2,2.9-1.1,3.4-2.9c0.1-0.4,0.3-0.8,0.5-1.3c-0.9-0.4-2.2-0.6-1.7-2c0.5-1.4,1.7-0.8,2.9-0.6
		c0.5-2,0.9-3.9,1.4-6.1c-0.9,0.3-1.5,0.4-2.1,0.6c0.1,0.6,0.2,1.1,0.4,1.5c0.2,0.9,0,1.5-0.9,1.7c-0.8,0.2-1.4-0.2-1.6-1
		c-0.2-0.9-0.5-1.8-0.7-2.6c-0.3-0.9,0.1-1.6,1-1.8C33.7,72.4,34.9,72.1,36.2,71.7z"/>
	<path d="M26.8,78.2c0.3,1.5,0.5,3.1,0.8,4.6c0,0.2,0.4,0.5,0.7,0.5c0.6,0,1.2-0.1,1.7-0.2c0.8-0.1,1.5,0.1,1.7,0.9
		c0.2,0.9-0.3,1.5-1.2,1.6c-0.9,0.2-1.7,0.2-2.6,0.4c-0.1,1.2-0.3,2.4-0.4,3.6c0,0.2,0.2,0.5,0.3,0.6c0.8,0.4,1.6,0.9,1.1,2
		c-0.5,1-1.4,0.8-2.3,0.4c0,0.4,0,0.8,0,1.1c-0.1,5-0.2,10-0.3,15c-0.1,2.6-0.2,5.3,0.7,7.8c0.3,0.8,0,1.5-0.8,1.7
		c-0.8,0.3-1.4-0.2-1.7-1c-1-2.9-0.9-5.8-0.8-8.8c0.1-5.1,0.2-10.3,0.3-15.4c0-0.4,0-0.9,0.1-1.3c1.9-4.9,1.2-9.7-0.4-14.5
		c-0.7-2.1-1.7-4-2.5-6.1c-0.3-0.8-0.9-1.7,0.1-2.4c0.9-0.7,1.6-0.1,2.2,0.7c0.4-0.5,0.7-0.9,1-1.3c0.6-0.7,1.3-0.8,2-0.2
		c1,0.9,1.9,1.8,2.9,2.7c0.6,0.6,0.7,1.3,0.1,1.9c-0.6,0.6-1.2,0.5-1.9,0c-0.6-0.6-1.2-1.1-1.8-1.7c-1,1.2-1.1,2.7-0.1,3.8
		c0.2,0.2,0.6,0.3,0.9,0.3c1.1,0.2,2.2,0.4,3.3,0.6c0.8,0.1,1.2,0.6,1.3,1.4c0.1,1,0.1,2,0.1,3.1c0,0.8-0.5,1.3-1.2,1.2
		c-0.5-0.1-0.9-0.6-1.3-1c-0.1-0.1-0.1-0.5-0.1-0.7C28.6,78.3,28.6,78.3,26.8,78.2z"/>
	<path d="M29.6,68.6c0.2-1.7,0.3-3.1,0.6-4.5c0.1-0.4,0.6-1,1-1.2c1.1-0.5,2.3-0.9,3.4-1.4c0.8-0.3,1.5-0.2,1.8,0.7
		c0.3,0.8,0,1.4-0.8,1.8c-0.4,0.2-0.8,0.4-1.2,0.5c-1.4,0.3-2.1,1.1-1.9,2.5c0,0.3,0.2,0.7,0.5,0.9c0.4,0.3,0.9,0.4,1.3,0.6
		c0.7,0.3,0.9,0.9,0.7,1.6c-0.3,0.7-0.9,1-1.6,0.8c-1-0.3-2.1-0.7-3-1.3C30,69.4,29.8,68.9,29.6,68.6z"/>
	<path d="M43.5,64.5c0-0.9,0-1.7,0-2.6c0-0.8,0.4-1.3,1.2-1.3c0.8-0.1,1.4,0.4,1.4,1.2c0.1,1.3,0.1,2.7,0,4.1c0,0.8-0.6,1.2-1.4,1.3
		c-1.3,0.1-2.6,0.2-3.8,0.2c-0.4,0-1-0.4-1.3-0.8c-0.5-0.9-0.9-1.9-1.3-2.9c-0.3-0.7-0.2-1.4,0.6-1.8c0.8-0.4,1.4-0.1,1.8,0.7
		c0.1,0.3,0.2,0.5,0.4,0.8C41.8,64.8,41.8,64.8,43.5,64.5z"/>
	<path d="M57.1,54.8c0.3-1,0.5-1.9,0.7-2.8c0.2-0.8,0.7-1.3,1.6-1.1c0.8,0.1,1.2,0.9,1,1.8c-0.3,1.4-0.7,2.8-1.1,4.2
		c-0.3,1.1-1,1.4-2.1,1c-0.8-0.4-1.7-0.8-2.5-1.2c-0.7-0.4-1.1-1-0.7-1.8c0.4-0.8,1-1,1.8-0.6C56.2,54.4,56.6,54.6,57.1,54.8z"/>
	<path d="M49.4,60c-0.3,0.3-0.5,0.8-0.9,0.9c-0.4,0.1-1.3-0.1-1.4-0.4c-0.8-1.8-1.9-1.8-3.4-0.9C43,60,42.4,59.7,42,59
		c-0.3-0.7-0.1-1.3,0.6-1.7c1.1-0.5,2.1-1,3.2-1.4c0.4-0.1,1.1,0,1.3,0.3c0.8,1,1.4,2,2.1,3.1C49.3,59.4,49.3,59.6,49.4,60z"/>
	<path d="M52.1,56.9c1.5,0,3.9,2,4.2,3.1c0.2,0.6,0.3,1.2,0.5,1.8c0.2,0.8-0.1,1.4-0.9,1.6c-0.8,0.2-1.5-0.2-1.6-0.9
		c-0.2-1.6-1.2-2.4-2.5-3.2c-0.4-0.2-0.6-1-0.6-1.5C51.3,57.4,51.9,57.1,52.1,56.9z"/>
	<path d="M65.6,44.5c1.3,0,2,1,1.4,1.9c-1.1,1.7-2.5,3-4.4,3.6c-0.8,0.3-1.6,0.2-1.9-0.7c-0.3-0.8,0.2-1.3,1.1-1.8
		c1-0.6,1.9-1.4,2.8-2.2C65,45,65.4,44.7,65.6,44.5z"/>
	<path d="M63.6,42.8c-0.9-0.1-1.6-0.4-1.6-1.4c0-1,0.6-1.3,1.4-1.4c1.1-0.2,2.1-0.4,3.2-0.7c0.8-0.2,1.5-0.2,1.9,0.7
		c0.3,0.8,0,1.5-1,1.8C66.2,42.1,64.9,42.4,63.6,42.8z"/>
	<path d="M66.6,31.7c-0.2-0.2-0.8-0.5-0.9-0.9c-0.1-0.4,0.1-1,0.4-1.4c0.4-0.6,1-1,1.6-1.5c0.5-0.5,1.1-0.7,1.8-0.2
		c0.6,0.5,0.7,1.1,0.3,1.7C69.3,30.4,67.7,31.7,66.6,31.7z"/>
	<path d="M69,34.8c0,0.4-0.1,1-0.2,1.5c-0.1,0.8-0.6,1.4-1.5,1.2c-0.9-0.1-1.2-0.7-1.1-1.6c0.1-0.6,0.1-1.3,0.2-2
		c0-0.9,0.4-1.4,1.3-1.5c0.9,0,1.3,0.6,1.4,1.5C69,34.3,69,34.5,69,34.8z"/>
	<path d="M69.6,22.3c-0.2-0.2-0.7-0.6-0.9-1.1c-0.3-0.8,0.7-2.7,1.5-2.8c0.5-0.1,1.2,0.2,1.6,0.5c0.2,0.2,0.2,1,0,1.4
		C71.3,21,71.3,22.2,69.6,22.3z"/>
	<path d="M80.6,18.3c-0.7,0-1.2-0.4-1.3-1.2c-0.1-0.8,0.8-1.6,1.8-1.6c0.8,0,1.3,0.5,1.3,1.3C82.5,17.6,81.7,18.3,80.6,18.3z"/>
	<path d="M76.5,14.5c0.1-0.8,0.5-1.3,1.3-1.3c0.8,0,1.3,0.5,1.3,1.3c0,0.8-0.5,1.3-1.2,1.3C77,15.8,76.6,15.4,76.5,14.5z"/>
</g>
</svg>
