<svg xmlns="http://www.w3.org/2000/svg" xmlns:xlink="http://www.w3.org/1999/xlink" version="1.1" x="0px" y="0px" viewBox="0 0 144.083 180" enable-background="new 0 0 144.083 144" xml:space="preserve"><path d="M90.124,61.513c3.172,0,5.752-2.58,5.752-5.752c0-3.171-2.58-5.75-5.752-5.75c-3.17,0-5.75,2.579-5.75,5.75  C84.374,58.933,86.954,61.513,90.124,61.513z"/><path d="M54.123,61.513c3.172,0,5.752-2.58,5.752-5.752c0-3.171-2.58-5.75-5.752-5.75c-3.17,0-5.749,2.579-5.749,5.75  C48.374,58.933,50.953,61.513,54.123,61.513z"/><polygon points="54.124,91.854 62.113,74.61 46.135,74.61 "/><polygon points="82.135,95.989 98.114,95.989 90.124,78.746 "/><path d="M72.372,15.165c-31.94,0-57.833,25.895-57.833,57.834s25.893,57.836,57.833,57.836c31.941,0,57.835-25.896,57.835-57.836  S104.313,15.165,72.372,15.165z M54.123,44.011c6.48,0,11.752,5.271,11.752,11.75c0,6.48-5.271,11.752-11.752,11.752  c-6.479,0-11.749-5.271-11.749-11.752C42.374,49.282,47.645,44.011,54.123,44.011z M69.531,72.871L56.846,100.25  c-0.491,1.061-1.553,1.739-2.722,1.739s-2.23-0.679-2.722-1.739L38.717,72.871c-0.431-0.929-0.357-2.013,0.193-2.876  c0.552-0.862,1.505-1.385,2.528-1.385H66.81c1.023,0,1.977,0.522,2.528,1.385C69.889,70.858,69.962,71.942,69.531,72.871z   M90.124,44.011c6.48,0,11.752,5.271,11.752,11.75c0,6.48-5.271,11.752-11.752,11.752c-6.479,0-11.75-5.271-11.75-11.752  C78.374,49.282,83.645,44.011,90.124,44.011z M102.829,101.989c-0.004,0.001-0.012,0.001-0.02,0H77.438  c-1.023,0-1.977-0.522-2.527-1.385c-0.551-0.863-0.625-1.947-0.193-2.876L87.403,70.35c0.49-1.061,1.553-1.739,2.721-1.739  c1.17,0,2.23,0.679,2.723,1.739l12.549,27.084c0.275,0.453,0.434,0.986,0.434,1.556  C105.829,100.646,104.487,101.989,102.829,101.989z"/></svg>