<svg xmlns="http://www.w3.org/2000/svg" xmlns:xlink="http://www.w3.org/1999/xlink" version="1.1" x="0px" y="0px" viewBox="0 0 100 125" enable-background="new 0 0 100 100" xml:space="preserve"><polygon fill="#000000" points="89.136,40.699 91.222,40.978 89.136,38.613 "/><path fill="#000000" d="M50.168,72.137c0.615,0,1.113-0.498,1.113-1.113s-0.498-1.113-1.113-1.113h-5.407  c-0.615,0-1.113,0.498-1.113,1.113s0.499,1.113,1.113,1.113H50.168z"/><path fill="#000000" d="M93.869,36.828c-0.126-0.131-2.878-2.959-5.962-3.688l-0.682-3.836c0-0.001,0-0.002,0-0.003  c-0.157-0.884-0.983-0.8-1.227-0.755l-0.07,0.015c-0.152,0.031-3.621,0.791-5.649,3.93c-1.072,0.234-3.984,0.8-7.157,0.8  c-2.086,0-3.903-0.243-5.401-0.722c-1.271-0.405-2.343-0.586-3.478-0.586c-0.862,0-1.65,0.103-2.563,0.222  c-1.188,0.155-2.534,0.33-4.477,0.33c-3.134,0-6.994-0.467-11.8-1.429c-1.879-0.376-3.705-0.566-5.426-0.566  c-12.86,0-16.959,10.522-17.155,11.049c-0.066,0.172-6.692,17.206-17.329,13.973c-0.21-0.065-1.312-0.363-2.312,0.166  c-0.574,0.305-0.986,0.819-1.19,1.487c-0.268,0.876-0.036,1.521,0.206,1.907c0.54,0.863,1.537,1.136,1.899,1.208  c0.387,0.121,1.951,0.561,4.102,0.561c3.017,0,7.189-0.865,10.892-4.686c2.91-3.004,4.635-5.309,5.657-6.98  c0.538,3.471,0.375,7.4-2.298,9.542l0.005,0.001c0,0-0.568,0.53-0.427,1.559l1.314,9.585h-2.916h-0.795  c-0.615,0-1.113,0.498-1.113,1.113s0.499,1.113,1.113,1.113h0.795h3.221h11.42h5.082h0.477c0.615,0,1.113-0.498,1.113-1.113  s-0.499-1.113-1.113-1.113h-0.477h-5.027c-0.102-0.954-0.403-2.036-1.25-2.959c-1.026-1.118-2.579-1.566-4.526-1.269  c-0.332-1.158-0.583-3.306,1.481-4.622c3.492-2.229,5.247-4.473,6.7-8.777c2.445,1.505,8.168,4.437,15.624,4.437  c3.894,0,7.729-0.808,11.423-2.413c-0.096,3.496,0.233,10.832,4.235,15.604h-3.529h-0.478c-0.614,0-1.113,0.498-1.113,1.113  s0.499,1.113,1.113,1.113h0.478h3.976h2.082h10.197h4.262h3.341h1.113c0.614,0,1.113-0.498,1.113-1.113s-0.499-1.113-1.113-1.113  h-1.113h-3.341h-4.483c-0.418-1.908-1.733-4.407-4.77-4.407c-0.514,0-1.058,0.071-1.629,0.22c-0.524-1.844-0.954-4.598,0.034-5.624  c1.867-1.938,6.034-8.083,6.887-12.014c0.166-0.004,0.354-0.006,0.557-0.006c1.796,0,6.234,0.215,8.65,2.212l0.347,0.285  l0.447-0.034c1.661-0.128,4.963-1.366,5.578-5.132l0.052-0.319l-3.454-8.115L93.869,36.828z M17.493,54.655  c-5.621,5.802-12.485,3.633-12.771,3.538l-0.167-0.041c-0.18-0.033-0.418-0.141-0.457-0.175c0,0-0.003-0.034,0.021-0.114  c0.096-0.315,0.542-0.226,0.722-0.176c9.875,3.003,16.396-7.584,18.908-12.71c0.074,0.239,0.149,0.492,0.223,0.755  C23.767,46.45,22.686,49.296,17.493,54.655z M31.182,58.086c-0.366-0.527-0.863-1.135-1.462-1.626  c-0.323-0.148-0.931-0.3-1.302,0.407c-0.523,0.998,0.26,1.634,0.26,1.634s-0.004,0.002-0.011,0.007  c0.261,0.271,0.499,0.577,0.698,0.866c-3.302,2.336-2.6,6.271-1.731,8.07l0.396,0.821l0.883-0.227  c1.562-0.401,2.685-0.268,3.314,0.41c0.367,0.396,0.554,0.824,0.644,1.461h-7.283l-1.337-9.75c2.418-2.21,3.064-5.486,2.946-8.676  c0.708,0.492,1.515,1.171,2.182,2.036l0-0.002c0,0,0.564,0.815,1.522,0.265h0.001c0.875-0.505,0.32-1.481,0.218-1.646  c-1.416-1.826-3.266-2.938-4.201-3.421c-0.487-3.07-1.451-5.709-1.857-6.735c0.478-1.085,2.136-4.318,5.72-6.649  c-0.594,2.195-0.897,5.449,1.04,8.471c2.398,3.742,3.08,7.811,3.219,8.823C34.089,55.106,32.983,56.664,31.182,58.086z   M74.317,57.407c-0.412-0.468-1.004-0.956-1.849-1.361c-0.086-0.037-0.961-0.386-1.298,0.646l-0.001,0.001  c-0.28,0.861,0.332,1.34,0.598,1.502c0.026,0.015,0.054,0.03,0.079,0.045c0.022,0.012,0.036,0.019,0.036,0.019  s-0.001,0.001-0.001,0.002c0.526,0.32,0.826,0.665,0.99,0.92c-0.475,0.771-0.682,1.706-0.727,2.673l-1.246,0.134l0.103,0.024  c0,0-0.859,0.068-0.75,1.094c0.096,0.89,0.828,1.052,1.022,1.079l1.003-0.107c0.255,1.7,0.768,3.136,0.882,3.439l0.399,1.063  l1.054-0.42c0.724-0.288,1.373-0.431,1.93-0.431c1.499,0,2.171,1.229,2.47,2.183h-6.977c-6.373-4.771-5.189-17.163-5.176-17.289  l0.009-0.462c0,0,0,0,0-0.001c0.318-1.588-1.354-0.783-1.354-0.783l-0.245,0.134c-3.904,1.982-7.979,2.986-12.13,2.986  c-9.039,0-15.498-4.799-15.561-4.847l-1.103-0.838c-0.531-1.811-1.39-4.04-2.78-6.209c-2.392-3.732-0.266-8.202,0.01-8.746  c0.941-0.356,1.973-0.642,3.101-0.83c-0.583,1.848-1.09,5.304,1.604,9.076c1.797,2.516,2.54,4.817,2.837,6.102l0,0  c0,0,0.295,1.006,1.307,0.772c0.933-0.215,0.855-1.111,0.838-1.25c-0.352-1.663-1.189-4.071-3.166-6.839  c-2.988-4.183-1.033-7.92-0.931-8.106c0.226-0.008,0.45-0.017,0.683-0.017c0.83,0,1.69,0.096,2.571,0.192  c0.279,1.08,1.147,4.508,1.387,7.689l0,0c0,0,0.05,1.063,1.163,1.023c1.072-0.038,1.049-1.055,1.046-1.13  c-0.218-2.597-0.844-5.567-1.227-7.195c0.016,0.004,0.032-0.026,0.048-0.023c1.115,0.223,2.176,0.4,3.197,0.571  c0.321,0.599,2.85,5.533,2.97,12.506l0.001-0.001c0,0-0.001,0.013-0.001,0.029c0.001,0.011,0.001,0.021,0.001,0.032  c0.008,0.197,0.106,0.819,1.076,0.829l0,0c1.009,0.011,1.132-0.721,1.147-0.902c-0.088-5.59-1.59-9.92-2.537-12.105  c1.851,0.248,3.544,0.478,5.08,0.532c0.479,1.54,1.55,5.822,1.628,13.243v-0.001c0,0-0.038,0.862,1.096,0.862  c0.994,0,1.112-0.732,1.127-0.914c-0.074-6.784-0.949-11.107-1.526-13.186c1.563-0.05,2.756-0.24,3.742-0.369  c0.846-0.109,1.577-0.199,2.297-0.195c-0.286,1.685-0.803,5.584-0.055,8.442c0.063,0.116,0.457,0.75,1.351,0.401l0.002,0.036  c0.981-0.384,0.726-1.215,0.726-1.215l0,0c-0.496-2.227-0.122-5.598,0.184-7.353c0.187,0.049,0.375,0.081,0.572,0.144  c1.137,0.363,2.429,0.586,3.835,0.71c0.296,1.478,0.564,4.311-0.374,8.373c-1.395,6.03,3.446,10.129,5.345,11.475  C75.318,56.066,74.795,56.795,74.317,57.407z M92.051,48.26c-2.886-2.085-7.247-2.406-9.66-2.406c-0.966,0-1.589,0.051-1.614,0.053  l-0.229,0.02c-0.535,0.039-0.772,0.744-0.772,0.744l-0.018,0.278c-0.02,0.321-0.097,0.697-0.211,1.104l-0.944-0.776  c-0.002-0.001-0.785-0.59-1.478,0.253c-0.693,0.843,0.262,1.628,0.262,1.628l0,0l1.318,1.083c-0.465,1.008-1.046,2.084-1.669,3.133  c-1.594-1.162-5.425-4.499-4.365-9.086c0.916-3.966,0.775-6.937,0.48-8.772c1.379-0.002,2.696-0.101,3.857-0.233  c-0.202,1.334-0.27,3.38,0.27,6.224c0.026,0.067,0.33,0.78,1.248,0.579c0.962-0.212,0.915-1.121,0.915-1.121h0.002  c-0.578-3.181-0.316-5.107-0.097-6.028c1.128-0.199,1.847-0.374,1.912-0.391l0.463-0.115l0.173-0.414  c0.676-1.198,1.833-1.985,2.47-2.488v0.001c0,0,0.866-0.388,1.008,0.413l0.598,3.187l0.854,0.083  c2.264,0.223,4.702,2.449,5.297,3.026l3.032,7.115C94.66,47.464,92.854,48.086,92.051,48.26z"/></svg>