<?xml version="1.0" encoding="utf-8"?>
<!-- Generator: Adobe Illustrator 21.0.2, SVG Export Plug-In . SVG Version: 6.00 Build 0)  -->
<svg version="1.1" id="Layer_1" xmlns="http://www.w3.org/2000/svg" xmlns:xlink="http://www.w3.org/1999/xlink" x="0px" y="0px"
	 viewBox="0 0 100 125" style="enable-background:new 0 0 100 125;" xml:space="preserve">
<polygon points="89.1,-62.6 91.2,-62.4 89.1,-64.7 "/>
<path d="M50.2-31.2c0.6,0,1.1-0.5,1.1-1.1c0-0.6-0.5-1.1-1.1-1.1h-5.4c-0.6,0-1.1,0.5-1.1,1.1c0,0.6,0.5,1.1,1.1,1.1H50.2z"/>
<path d="M93.9-66.5c-0.1-0.1-2.9-3-6-3.7L87.2-74c0,0,0,0,0,0c-0.2-0.9-1-0.8-1.2-0.8l-0.1,0c-0.2,0-3.6,0.8-5.6,3.9
	c-1.1,0.2-4,0.8-7.2,0.8c-2.1,0-3.9-0.2-5.4-0.7c-1.3-0.4-2.3-0.6-3.5-0.6c-0.9,0-1.7,0.1-2.6,0.2c-1.2,0.2-2.5,0.3-4.5,0.3
	c-3.1,0-7-0.5-11.8-1.4c-1.9-0.4-3.7-0.6-5.4-0.6c-12.9,0-17,10.5-17.2,11c-0.1,0.2-6.7,17.2-17.3,14c-0.2-0.1-1.3-0.4-2.3,0.2
	c-0.6,0.3-1,0.8-1.2,1.5c-0.3,0.9,0,1.5,0.2,1.9c0.5,0.9,1.5,1.1,1.9,1.2c0.4,0.1,2,0.6,4.1,0.6c3,0,7.2-0.9,10.9-4.7
	c2.9-3,4.6-5.3,5.7-7c0.5,3.5,0.4,7.4-2.3,9.5l0,0c0,0-0.6,0.5-0.4,1.6l1.3,9.6h-2.9h-0.8c-0.6,0-1.1,0.5-1.1,1.1
	c0,0.6,0.5,1.1,1.1,1.1h0.8h3.2h11.4h5.1h0.5c0.6,0,1.1-0.5,1.1-1.1c0-0.6-0.5-1.1-1.1-1.1h-0.5h-5c-0.1-1-0.4-2-1.2-3
	c-1-1.1-2.6-1.6-4.5-1.3c-0.3-1.2-0.6-3.3,1.5-4.6c3.5-2.2,5.2-4.5,6.7-8.8c2.4,1.5,8.2,4.4,15.6,4.4c3.9,0,7.7-0.8,11.4-2.4
	c-0.1,3.5,0.2,10.8,4.2,15.6h-3.5h-0.5c-0.6,0-1.1,0.5-1.1,1.1c0,0.6,0.5,1.1,1.1,1.1h0.5h4h2.1h10.2h4.3h3.3h1.1
	c0.6,0,1.1-0.5,1.1-1.1c0-0.6-0.5-1.1-1.1-1.1h-1.1h-3.3h-4.5c-0.4-1.9-1.7-4.4-4.8-4.4c-0.5,0-1.1,0.1-1.6,0.2
	c-0.5-1.8-1-4.6,0-5.6c1.9-1.9,6-8.1,6.9-12c0.2,0,0.4,0,0.6,0c1.8,0,6.2,0.2,8.7,2.2l0.3,0.3l0.4,0c1.7-0.1,5-1.4,5.6-5.1l0.1-0.3
	L94-66.4L93.9-66.5z M17.5-48.7C11.9-42.9,5-45,4.7-45.1l-0.2,0c-0.2,0-0.4-0.1-0.5-0.2c0,0,0,0,0-0.1c0.1-0.3,0.5-0.2,0.7-0.2
	c9.9,3,16.4-7.6,18.9-12.7c0.1,0.2,0.1,0.5,0.2,0.8C23.8-56.9,22.7-54,17.5-48.7z M31.2-45.2c-0.4-0.5-0.9-1.1-1.5-1.6
	c-0.3-0.1-0.9-0.3-1.3,0.4c-0.5,1,0.3,1.6,0.3,1.6s0,0,0,0c0.3,0.3,0.5,0.6,0.7,0.9c-3.3,2.3-2.6,6.3-1.7,8.1l0.4,0.8l0.9-0.2
	c1.6-0.4,2.7-0.3,3.3,0.4c0.4,0.4,0.6,0.8,0.6,1.5h-7.3l-1.3-9.8c2.4-2.2,3.1-5.5,2.9-8.7c0.7,0.5,1.5,1.2,2.2,2v0
	c0,0,0.6,0.8,1.5,0.3h0c0.9-0.5,0.3-1.5,0.2-1.6c-1.4-1.8-3.3-2.9-4.2-3.4c-0.5-3.1-1.5-5.7-1.9-6.7c0.5-1.1,2.1-4.3,5.7-6.6
	c-0.6,2.2-0.9,5.4,1,8.5c2.4,3.7,3.1,7.8,3.2,8.8C34.1-48.2,33-46.7,31.2-45.2z M74.3-45.9c-0.4-0.5-1-1-1.8-1.4
	c-0.1,0-1-0.4-1.3,0.6l0,0c-0.3,0.9,0.3,1.3,0.6,1.5c0,0,0.1,0,0.1,0c0,0,0,0,0,0s0,0,0,0c0.5,0.3,0.8,0.7,1,0.9
	c-0.5,0.8-0.7,1.7-0.7,2.7l-1.2,0.1l0.1,0c0,0-0.9,0.1-0.8,1.1c0.1,0.9,0.8,1.1,1,1.1l1-0.1c0.3,1.7,0.8,3.1,0.9,3.4l0.4,1.1
	l1.1-0.4c0.7-0.3,1.4-0.4,1.9-0.4c1.5,0,2.2,1.2,2.5,2.2h-7c-6.4-4.8-5.2-17.2-5.2-17.3l0-0.5c0,0,0,0,0,0c0.3-1.6-1.4-0.8-1.4-0.8
	l-0.2,0.1c-3.9,2-8,3-12.1,3c-9,0-15.5-4.8-15.6-4.8l-1.1-0.8c-0.5-1.8-1.4-4-2.8-6.2c-2.4-3.7-0.3-8.2,0-8.7c0.9-0.4,2-0.6,3.1-0.8
	c-0.6,1.8-1.1,5.3,1.6,9.1c1.8,2.5,2.5,4.8,2.8,6.1l0,0c0,0,0.3,1,1.3,0.8c0.9-0.2,0.9-1.1,0.8-1.2c-0.4-1.7-1.2-4.1-3.2-6.8
	c-3-4.2-1-7.9-0.9-8.1c0.2,0,0.5,0,0.7,0c0.8,0,1.7,0.1,2.6,0.2c0.3,1.1,1.1,4.5,1.4,7.7l0,0c0,0,0,1.1,1.2,1c1.1,0,1-1.1,1-1.1
	c-0.2-2.6-0.8-5.6-1.2-7.2c0,0,0,0,0,0c1.1,0.2,2.2,0.4,3.2,0.6c0.3,0.6,2.8,5.5,3,12.5l0,0c0,0,0,0,0,0c0,0,0,0,0,0
	c0,0.2,0.1,0.8,1.1,0.8l0,0c1,0,1.1-0.7,1.1-0.9c-0.1-5.6-1.6-9.9-2.5-12.1c1.9,0.2,3.5,0.5,5.1,0.5c0.5,1.5,1.5,5.8,1.6,13.2v0
	c0,0,0,0.9,1.1,0.9c1,0,1.1-0.7,1.1-0.9c-0.1-6.8-0.9-11.1-1.5-13.2c1.6,0,2.8-0.2,3.7-0.4c0.8-0.1,1.6-0.2,2.3-0.2
	c-0.3,1.7-0.8,5.6-0.1,8.4c0.1,0.1,0.5,0.8,1.4,0.4l0,0c1-0.4,0.7-1.2,0.7-1.2l0,0c-0.5-2.2-0.1-5.6,0.2-7.4c0.2,0,0.4,0.1,0.6,0.1
	c1.1,0.4,2.4,0.6,3.8,0.7c0.3,1.5,0.6,4.3-0.4,8.4c-1.4,6,3.4,10.1,5.3,11.5C75.3-47.3,74.8-46.5,74.3-45.9z M92.1-55.1
	c-2.9-2.1-7.2-2.4-9.7-2.4c-1,0-1.6,0.1-1.6,0.1l-0.2,0c-0.5,0-0.8,0.7-0.8,0.7l0,0.3c0,0.3-0.1,0.7-0.2,1.1l-0.9-0.8
	c0,0-0.8-0.6-1.5,0.3c-0.7,0.8,0.3,1.6,0.3,1.6l0,0l1.3,1.1c-0.5,1-1,2.1-1.7,3.1c-1.6-1.2-5.4-4.5-4.4-9.1c0.9-4,0.8-6.9,0.5-8.8
	c1.4,0,2.7-0.1,3.9-0.2c-0.2,1.3-0.3,3.4,0.3,6.2c0,0.1,0.3,0.8,1.2,0.6c1-0.2,0.9-1.1,0.9-1.1h0c-0.6-3.2-0.3-5.1-0.1-6
	c1.1-0.2,1.8-0.4,1.9-0.4l0.5-0.1l0.2-0.4c0.7-1.2,1.8-2,2.5-2.5v0c0,0,0.9-0.4,1,0.4l0.6,3.2l0.9,0.1c2.3,0.2,4.7,2.4,5.3,3l3,7.1
	C94.7-55.9,92.9-55.2,92.1-55.1z"/>
<g>
	<path d="M30.5,52.2c0.4-0.3,0.7-0.4,1-0.6c-2.2-1.9-4.3-3.6-6.4-5.5c-2.9-2.7-6.5-3.8-10.4-4.1c-1.5-0.1-1.5-0.1-2,1.2
		c-0.6,1.5-0.7,3.1-0.7,4.7c0,1.5-0.1,3.1-0.1,4.6c0,0.3,0.1,0.7,0.2,1c1.2,3.3,2,6.6,1.7,10.1c0,0.2,0,0.5-0.1,0.7
		c-0.1,0.7-0.4,1.2-1.2,1.1c-0.8-0.1-1-0.7-0.9-1.4c0.2-2.2,0-4.3-0.6-6.6c-0.6,2.6-0.6,4.9-0.4,7.3c0.2,2.4,0.6,4.8,0.9,7.2
		c0,0.1,0,0.2,0,0.4c0.1,0.7-0.2,1.2-0.9,1.3c-0.7,0.1-1.1-0.3-1.2-1C8.6,66.8,8,60.9,9.4,55c0.5-2.1,0.5-4.4,0.5-6.5
		c-0.1-6,2.5-10.5,7-14.2c2-1.7,4.5-2.4,7.1-2.5c4.8-0.2,9.5,0.9,14.1,1.9c4.2,0.9,8.4,1,12.6-0.3c1.4-0.4,2.7-1.1,3.9-1.8
		c1.6-0.9,3.1-2,4.7-3c0.2-0.1,0.4-0.4,0.4-0.6c-0.1-0.6,0-1.2,0.7-1.4c0.5-0.1,1,0.2,1.5,0.4c0.7-0.1,1.2-0.4,1-1.4
		c-0.1-0.3,0.4-0.9,0.7-1c0.3-0.1,0.8,0.2,1.2,0.3c0.1,0.1,0.2,0.3,0.3,0.5c0.5-0.2,1-0.5,1.6-0.7c-0.1-0.6-0.2-1.1-0.3-1.6
		c-0.1-0.7,0.1-1.2,0.8-1.4c0.7-0.2,1.1,0.2,1.3,0.9c0.1,0.3,0.2,0.7,0.3,1.1c0.6-0.2,1.2-0.4,1.8-0.7c-0.2-0.7-0.4-1.4-0.6-2.2
		c-0.2-0.9,0-1.5,0.7-1.7c0.6-0.2,1.2,0.2,1.4,1.1c0.2,0.5,0.3,1.1,0.5,1.6c0,0.1,0.1,0.1,0.2,0.3c0.6-0.2,1.3-0.4,2-0.7
		c-0.1-0.7-0.2-1.4-0.3-2c-0.1-0.7,0.1-1.3,0.8-1.4c0.6-0.1,1.1,0.3,1.3,1.2c0.1,0.5,0.2,1,0.3,1.6c0.8-0.3,1.6-0.5,2.4-0.8
		c-0.2-0.7-0.4-1.3-0.5-1.9c-0.2-0.7,0-1.2,0.7-1.4c0.7-0.2,1.1,0.1,1.3,0.8c0.1,0.3,0.2,0.6,0.3,1c1.6-1.2,3.5-1.7,5.4-1.8
		c1.2,0,1.6,0.6,1.2,1.7c-0.4,1-1.1,1.9-1,2.9c0.1,0.9,1,1.7,1.5,2.5c0.5,0.9,0.9,1.9,1.3,2.8c1,2.8,2.1,5.4,3.9,7.8
		c1.1,1.5,1.6,3.1,1,4.9c-0.6,1.8-1.8,2.6-3.7,2.4c-1.6-0.1-3-0.7-4.4-1.6c-2.4-1.5-5-2.9-7.6-4.3c-2.3,2.3-4.6,4.5-6.7,6.7
		c-1.8,1.9-2.7,4.3-3.6,6.7c-0.6,1.6-1.3,3.1-2.3,4.5c-1.7,2.6-2.8,5.5-3.5,8.5c-1.1,4.9-2.1,9.9-2.3,15c0,0.1,0,0.1,0,0.2
		c-0.2,1.8,0,3.5,1.3,5c0.2,0.3,0.4,0.6,0.6,0.9c0.4,0.7,0.2,1.4-0.6,1.6c-1.5,0.5-3,0.6-4.6,0.2c-0.7-0.2-1.2-0.6-1-1.4
		c0.1-0.7,0.7-0.9,1.6-0.7c0.6,0.1,1.3,0.1,2.1,0.2c-0.8-1.4-1.3-2.7-3.1-2.6c-0.1,0.2-0.1,0.4-0.3,0.6c-0.4,0.6-1.3,0.7-1.6,0.1
		c-0.5-1-1.2-2-0.7-3.2c1.1-2.8,1.3-5.7,1.3-8.6c0-2,0.1-4,0.1-6c0-2.2-0.1-4.4-0.2-6.6c-7.2,0.5-14.1,0.1-20-4.9
		c-1.5,0.9-3.2,2-4.8,3c-0.3,0.2-0.5,0.4-0.7,0.7c-2,2.8-4,5.7-6,8.5c-1.2,1.6-1.8,3.5-1.8,5.5c0,2.5-0.1,4.9-0.1,7.4
		c0,0.8,0.4,1.6,0.8,2.3c0.9,1.3,1.9,2.6,2.8,3.9c0.8,1.1,0.5,2-0.9,2.1c-1.4,0.1-2.8,0.1-4.2,0c-0.9,0-1.4-0.6-1.3-1.3
		c0.1-0.7,0.6-1,1.6-0.8c0.5,0.1,1.1,0.1,1.6,0.2c0.2,0,0.3,0,0.6,0c-0.8-1.2-1.5-2.4-2.3-3.4c-0.3-0.4-1-0.4-1.4-0.6
		c-0.4-0.2-0.8-0.4-1.3-0.6c-0.4,0.6-0.3,1.1,0.3,1.6c0.9,0.9,1.1,1.5,0.6,2c-0.5,0.6-1.1,0.3-2.1-0.5c-1-0.9-1.1-1.8-1-3.1
		c0.3-4.2,0.3-8.4,0.3-12.6c0-1.7,0.1-3.4,0.9-4.8c1.7-3.2,1.2-6.3-0.4-9.4c-0.9-1.7-1.4-3.5-1.9-5.3c-0.2-0.6-0.2-1.3-0.1-1.9
		c0.1-0.4,0.5-0.8,0.8-1c0.3-0.1,0.7,0.3,1.1,0.5c0.3,0.1,0.5,0.4,0.7,0.5c0.9,0.2,1.8,0.3,2.7,0.5c2,0.3,3.8,1.1,5.5,2.4
		C26.5,49.4,28.5,50.8,30.5,52.2z M60.2,30.6c-1.3,0.4-1.3,0.5-1.1,1.6c0.6,3.3,0.9,6.6,0.4,10c-0.3,2.3-0.9,4.4-2.4,6.2
		c-0.5,0.6-1,0.8-1.6,0.3c-0.6-0.5-0.4-1-0.1-1.6c0.6-1.1,1.3-2.3,1.7-3.5c0.9-3.6,0.5-7.3-0.1-10.9c-1,0.3-1.3,0.8-1.2,1.8
		c0.5,3.6,0.2,7.2-1.5,10.6c-0.5,1-1,2.1-1.5,3.1c-1.1,2.3-0.7,4.6-0.4,7.1c0.6-0.1,1.1-0.1,1.7-0.2c-0.1-0.4-0.1-0.7-0.1-1
		c-0.2-0.8-0.3-1.7-0.5-2.5c-0.1-0.7,0.4-1.5,1-1.2c1.1,0.4,1.8-0.3,2.6-0.8c1-0.7,2.1-1.4,2.9-2.3c0.9-1,1.2-1.2,2.2-0.4
		c1.2,1,2.4,2,3.6,3c0.9-2,1-2-0.5-3.2c-2.7-2.1-3.8-4.8-4.1-8C60.8,35.9,60.4,33.3,60.2,30.6z M35.3,49c0.2-1.5-0.3-2.6-1.1-3.4
		c-1.2-1.2-2.5-2.5-3.9-3.4c-4-2.7-8.6-3.6-13.4-3.9c-1.4-0.1-1.6,0-2.2,1.5c0,0,0,0,0.1,0.1c0.6,0.1,1.1,0.1,1.7,0.2
		c3.6,0.5,6.9,1.6,9.7,4.1c1.7,1.5,3.5,3,5.2,4.5c0.5,0.5,1.2,0.8,1.9,1.4c-0.2-1.1-1-2.1,0.2-2.6C34.6,46.9,34.8,48.1,35.3,49z
		 M17.8,36.2c1,0.1,1.7,0.2,2.5,0.3c4.8,0.6,9.2,2.2,13.1,5.2c1.4,1.1,2.6,2.3,3.4,3.9c0.8,1.6,1.1,3.3,0.3,5
		c-0.3,0.8,0,1.1,0.6,1.4c0.4-1.1,0.8-2.3,1.2-3.4c1-2.8,0.4-5.2-1.7-7.1c-1.2-1.1-2.5-2.1-4-2.8c-3-1.6-6.2-3.1-9.3-4.7
		c-0.2-0.1-0.4-0.2-0.6-0.2C21.3,34.1,19.5,34.8,17.8,36.2z M29.4,34.1c0,0.1,0,0.2-0.1,0.3c0.6,0.3,1.3,0.6,1.9,0.9
		c2.4,1.2,4.8,2.4,6.8,4.3c3.3,3,4.1,6.2,2.6,10.3c-0.3,0.9-0.6,1.8-0.9,2.7c-0.1,0.2,0,0.7,0.2,0.8c0.6,0.3,1.2,0.5,1.9,0.7
		c-0.1-2.9,0.6-5.4,1.2-8c0.2-0.9,0.2-1.8,0-2.7c-0.4-2.1-1.5-3.8-2.7-5.6c-0.8-1.3-1.8-2.1-3.4-2.3C34.5,35.1,32,34.5,29.4,34.1z
		 M48.8,36c-0.8-0.1-1.2,0.2-1.5,0.9c-0.6,1.5-1.3,2.9-2,4.3c-0.1,0.3-0.3,0.7-0.2,1.1c0.4,1.7,0.3,3.3-0.1,5
		c-0.5,2.1-0.7,4.3-1,6.5c0,0.3,0.1,0.8,0.3,0.8c0.7,0.2,1.4,0.3,2,0.4c0-1.6-0.2-3,0-4.4c0.4-2.1,1-4.2,1.7-6.3
		C48.9,41.6,48.8,38.8,48.8,36z M51.1,35.4c-0.2,2.5-0.2,5-0.6,7.4c-0.3,1.7-1,3.3-1.5,4.9c-0.7,2.1-1.1,4.3-0.5,6.6
		c0.3,1.1,0.4,1.2,1.6,1c0-0.2,0-0.4,0-0.6c-0.4-3.2-0.2-6.2,1.5-9c0.4-0.6,0.6-1.3,0.9-1.9c1.4-2.8,1.5-5.8,1.2-8.9
		c0-0.1-0.1-0.2-0.2-0.3C52.7,34.9,51.8,35.2,51.1,35.4z M67.2,26.8c-0.4,0.2-0.7,0.4-1,0.5c-0.7,0.2-0.8,0.6-0.7,1.2
		c0.3,1,0.3,2,0.6,3c0.7,2.9,1.4,5.9,2.2,8.8c0.2,0.7,0.6,1.3,1,2.1c0.5-0.6,0.9-1.1,1.3-1.5c0.4-0.4,0.5-0.8,0.4-1.3
		c-0.6-1.8-1-3.7-1.6-5.5C68.6,31.6,67.9,29.3,67.2,26.8z M63.2,28.7C62.8,29,62,29,62.2,30c0.4,2.9,0.8,5.9,1,8.8
		c0.3,2.9,1.6,5.2,4.3,6.9c0.1-0.6,0.5-1.4,0.3-1.7c-1.2-1.6-1.8-3.4-2.2-5.3C64.7,35.4,64,32.1,63.2,28.7z M72.9,38.5
		c1.1-0.8,1.1-0.8,1.2-2.1c0.2-4-1.5-7.6-2.9-11.3c-0.7,0.3-1.4,0.5-2,0.8C70.4,30.2,71.6,34.3,72.9,38.5z M28.6,53.5
		c-1.9-1.3-3.7-2.6-5.5-4c-2.1-1.6-4.6-2-7.3-2.3c0.3,0.8,0.5,1.4,0.7,2.1c0.1,0.5,0.5,0.7,1,0.8c3.7,0.6,7.2,1.7,10,4.4
		C27.9,54.2,28.3,53.8,28.6,53.5z M88.2,30.1c-1-2.1-1.8-4-2.8-5.8c-0.5-0.9-1.9-0.9-2.6-0.2c-0.1,0.1-0.2,0.3-0.2,0.5
		c0,1.3,0.1,2.6,0.1,3.9c0,0.3,0.2,0.7,0.5,0.8C84.7,30.1,86.2,30.3,88.2,30.1z M26.2,56.5c-2.2-2.6-5.1-3.4-8.3-4.1
		c0.3,0.7,0.5,1.3,0.7,1.9c0.1,0.3,0.3,0.6,0.5,0.7c1.8,0.9,3.6,1.7,5.4,2.6c0.5,0.2,0.8,0.1,1.1-0.3C25.8,57,26,56.8,26.2,56.5z
		 M64.7,51.9c-1.2-1-2.3-2-3.2-2.8c-2,1.3-3.8,2.5-5.7,3.7c0.1,0.3,0.2,0.8,0.3,1.4c2.5-1.3,4.8-2.8,7.6-0.7
		C64,52.9,64.3,52.5,64.7,51.9z M79,34c0.1,0,0.2,0,0.3,0c1.1-3.9,2.4-7.8,0.2-11.8c-0.8,0.2-1.6,0.5-2.4,0.8
		c0.5,1.3,0.9,2.6,1.3,3.8c1.6-0.2,2,0.5,1.5,1.9c-0.4,1-0.7,1.9-0.9,2.9C78.8,32.5,79,33.3,79,34z M73.2,24.4
		c1.4,3.6,2.8,7,3.2,10.8c0.3-0.4,0.5-0.8,0.5-1.2c0.1-1.3,0.1-2.5,0.2-3.8c0-0.3,0.1-0.6,0-0.8c-0.7-1.9-1.4-3.7-2.1-5.6
		C74.4,23.9,73.8,24.1,73.2,24.4z M61.1,58.2c0,0,0.2-0.2,0.3-0.4c0.3-0.6,0.5-1.3,0.8-1.9c0.2-0.5,0.1-0.9-0.3-1
		c-0.4-0.2-1-0.4-1.3-0.3c-1.3,0.5-2.6,1.1-3.8,1.7c-0.2,0.1-0.2,0.8-0.2,1.2c0,0.2,0.4,0.4,0.6,0.4C58.5,58,59.6,58.1,61.1,58.2z
		 M59.7,63.9c0.3-1.2,0.5-2.3,0.9-3.6c-1.3-0.1-2.4-0.2-3.6-0.2c0,0.9,0,1.5,0,2.2c0,0.2,0.1,0.5,0.3,0.5
		C58.1,63.2,58.9,63.5,59.7,63.9z M19.4,57.5c-0.1,0.6-0.2,1.2-0.3,1.7c0,0.2,0.1,0.5,0.3,0.6c1,0.6,2.1,1.1,3.2,1.7
		c0.5-0.7,0.9-1.3,1.4-1.9C22.4,58.9,20.9,58.2,19.4,57.5z M84.9,36.3c1.4-1.1,2.7-2.2,4-3.3c0.1-0.1,0.2-0.4,0.2-0.5
		c-0.1-0.1-0.3-0.3-0.5-0.3c-0.7,0-1.4,0-2,0.1c-0.3,0-0.6,0.3-0.7,0.5C85.5,34,85.2,35.2,84.9,36.3z M18.2,61.7
		c-0.3,0.9-0.6,1.6-0.8,2.5c1,0.2,1.8,0.4,2.7,0.6c0.2,0,0.5-0.1,0.6-0.2c0.3-0.3,0.4-0.7,0.7-1.2C20.3,62.8,19.3,62.3,18.2,61.7z
		 M82.3,31.3c-0.3,1-0.5,1.9-0.7,2.8c-0.4,1.5-0.3,1.5,1.2,2c0.4-1.4,0.7-2.8,1.1-4.2C83.3,31.7,82.9,31.5,82.3,31.3z M84.8,19
		c-1,0.5-1.8,0.9-2.6,1.4c-0.6,0.4-0.8,0.9-0.3,1.5C83.5,21.7,84.7,21.2,84.8,19z M44,39.3c0.4-1,0.9-1.9,1.3-2.9
		c-1.1,0-2.1,0-3.2,0c0.6,0.9,1.1,1.8,1.6,2.6C43.8,39.1,43.8,39.1,44,39.3z M86.4,38c0.1,0.1,0.1,0.2,0.2,0.3c1.1,0,3.8-2,4-3
		c0-0.2-0.1-0.4-0.3-0.9C88.9,35.7,87.6,36.9,86.4,38z M58.9,67.7c0.5-1.4-0.3-2.4-2.1-2.6c0,0.6,0,1.2,0,1.8c0,0.2,0.2,0.5,0.4,0.5
		C57.8,67.6,58.4,67.6,58.9,67.7z M19,77.6c0.3-2.4,0.1-2.8-1.7-3C17.1,76.9,17.2,77,19,77.6z M17.3,66.4c0,0.7,0,1.4,0,2.1
		c0.7,0,1.3,0.1,2,0.1c0.1-0.6,0.2-1.1,0.3-1.7C18.8,66.7,18.1,66.5,17.3,66.4z M89.1,39.7c0.8,0.1,1.6,0.6,2.4,0
		c0.7-0.6,0.7-1.5,0.4-2.3C91,38.1,90.1,38.9,89.1,39.7z M17.4,70.6c-0.2,1.6,0.1,1.9,1.7,2.1c0-0.7,0-1.3,0-2
		C18.5,70.7,18,70.6,17.4,70.6z M58.6,69.9c-0.6-0.1-1.1-0.2-1.7-0.4c0,0.7,0,1.3,0,2c0.5,0,1,0,1.5,0.1
		C58.4,71,58.5,70.5,58.6,69.9z M57.6,79.2c0.3-1.5,0.1-1.8-1.5-2c-0.1,0.4-0.3,0.9-0.4,1.4C56.4,78.7,57,78.9,57.6,79.2z
		 M57.9,75.4c0.1-0.6,0.1-1.1,0.2-1.7c-0.5,0-0.9,0-1.3-0.1c-0.1,0.4-0.1,0.8-0.1,1.2C57,75.1,57.4,75.2,57.9,75.4z"/>
	<path d="M85.1,26.4c0.7,0,1.3,0.6,1.2,1.2c0,0.7-0.6,1.3-1.3,1.2c-0.7-0.1-1.1-0.5-1.2-1.2C83.8,27,84.4,26.4,85.1,26.4z"/>
</g>
<g>
	<path d="M-202.9,85.1c-0.5,3.1-0.3,6.2,0.3,9.2c0.3,1.5,0.5,2.9,0.8,4.4c0.1,0.8-0.1,1.5-1,1.6c-0.9,0.2-1.4-0.3-1.6-1.2
		c-0.8-4.1-1.8-8.1-1.4-12.3c0.2-1.7,0.5-3.5,0.6-5.2c0.2-2,0.3-3.9,0.3-5.9c0.1-2.8-0.2-5.6,0.2-8.3c0.7-4.7,3.3-8.2,7.5-10.5
		c3.8-2,7.9-3.1,12.1-4.2c2.6-0.7,5.2-1.4,7.8-2.2c2.3-0.7,4.2-2.1,6-3.6c0.2-0.2,0.3-0.5,0.3-0.8c0.2-1,0.8-1.5,1.8-1.2
		c0.8,0.2,1.3,0.1,1.4-0.9c0.1-1.1,0.7-1.5,2.2-1.2c0.2-0.4,0.5-0.9,0.8-1.3c-0.9-1.6-0.7-2,1-2.6c0.6-0.2,0.8-0.6,0.4-1.3
		c-0.7-1.1-0.4-1.8,0.9-2.2c0.7-0.2,1.1-1.3,0.7-1.9c-0.7-1-0.5-1.7,0.7-2.2c0.7-0.3,0.9-0.8,0.4-1.4c-0.8-1-0.6-1.7,0.6-2.2
		c0.6-0.3,0.8-0.5,0.3-1.1c-0.9-1.1-0.6-1.9,0.7-2.2c0.7-0.2,0.7-0.4,0.4-0.9c-0.6-1.1-0.4-1.7,0.8-2.1c0.8-0.3,0.8-0.6,0.3-1.3
		c-0.8-1-0.4-2,0.9-2.2c0.9-0.2,0.9-0.5,0.6-1.3c-0.2-0.4-0.2-1.1,0-1.5c0.2-0.3,0.8-0.4,1.3-0.6c0.4-0.1,0.9-0.2,1.5-0.4
		c-0.3-0.4-0.5-0.5-0.5-0.7c-0.1-0.6-0.3-1.2-0.1-1.7c0.3-0.7,1-0.7,1.7-0.4c0.3,0.1,0.8,0,1.4,0c-0.4-0.6-0.6-0.9-0.8-1.1
		c-0.5-0.7-0.5-1.3,0.2-1.9c0.6-0.5,1.3-0.4,1.9,0.2c0.8,0.8,1.5,1.6,2.3,2.3c0.6,0.6,0.9,1.2,0.4,1.9c-0.5,0.7-1.2,0.7-1.9,0.3
		c-0.1-0.1-0.2-0.1-0.3-0.1c-2.3,2.3-4.4,4.7-5.4,7.8c-0.2,0.6-0.2,1,0.2,1.5c0.4,0.4,0.7,0.9,0.9,1.4c0.6,1.1,0.4,2-0.4,2.4
		c-0.8,0.4-1.5,0-2.3-1.3c-0.9,3.1-1.7,6.3-2.6,9.5c0.3,0,0.6,0,0.8,0.1c0.4,0.4,1,0.8,1,1.2c0,0.5-0.6,1.3-1,1.3
		c-2-0.1-2.5,1.3-3,2.7c-0.4,1-0.9,2-1.4,2.9c0.9,0.4,1.7,0.7,2.4,1.1c0.7,0.4,1.1,1,0.6,1.8c-0.4,0.8-1.1,0.9-1.9,0.4
		c-1.4-0.9-2.8-1-4.1,0.3c-0.2,0.2-0.4,0.7-0.4,1c0.2,0.9,0.4,1.8,0.7,2.7c0.3,1.1,0,1.8-0.8,2.1c-0.8,0.2-1.4-0.3-1.7-1.4
		c-0.2-0.7-0.4-1.5-0.6-2.2c0-0.1-0.1-0.1-0.2-0.2c-0.4,0.3-0.9,0.6-1.4,1c0.4,0.8,0.7,1.6,1.2,2.3c0.4,0.7,0.4,1.4-0.2,2
		c-0.7,0.8-1.3,1.6-2,2.3c-0.5,0.6-1.2,0.7-1.8,0.2c-0.6-0.5-0.6-1.2-0.2-1.9c0.3-0.4,0.5-0.7,0.8-1c0.8-0.7,0.8-1.5,0-2.3
		c-0.8,0.4-1.5,0.9-2.4,1.4c0,0.1,0.1,0.3,0.1,0.4c-0.1,0.5,0,1.3-0.3,1.5c-0.3,0.3-1.1,0.2-1.6,0.1c-0.7-0.1-1.4-0.6-2.1-0.5
		c-1.5,0.1-2.2,0.9-2.5,2.5c-0.8,3.6-0.3,3-4,3.5c-0.4,0.1-0.9,0.3-1.2,0.1c-0.5-0.2-1.1-0.6-1.3-1.1c-0.3-0.7,0.2-1.3,0.9-1.5
		c0.4-0.1,0.9-0.2,1.3-0.2c1.6-0.2,1.6-0.2,1.7-2.1c-2.4,0.6-4.7,1.3-7.2,1.9c0.5,0.8,1,1.4,1.4,2c0.5,0.7,0.4,1.4-0.3,1.9
		c-0.7,0.5-1.3,0.2-1.8-0.4c-0.6-0.8-1.2-1.7-1.8-2.5c-2.1,0.9-4.2,1.8-5.8,3.5c0.3,0.3,0.5,0.8,0.8,0.9c0.6,0.2,1.2,0.4,1.8,0.4
		c0.2,0,0.5-0.6,0.5-1c0.2-0.9,0.6-1.5,1.6-1.3c0.9,0.1,1.2,0.8,1.1,1.6c-0.1,0.7-0.2,1.4-0.3,2.1c-0.1,0.7-0.6,1.2-1.3,1.2
		c-1.2,0.1-2.4,0.1-3.6,0.1c-0.4,0-0.8-0.3-1.1-0.6c-0.4-0.3-0.7-0.8-1-1.2c-1,1.3-1.6,2.7-1.6,4.2c-0.1,3.6,0,7.2,0,10.7
		c0,0.4,0.2,0.8,0.4,1.1c1.4,3.3,2.1,6.8,2,10.4c0,1.1-0.5,1.8-1.4,1.7c-1-0.1-1.2-0.8-1.3-1.7c-0.1-1.7-0.2-3.5-0.3-5.2
		C-202.6,85.1-202.8,85.1-202.9,85.1z"/>
	<path d="M-167.6,120c-0.1-0.2-0.1-0.4-0.1-0.4c-2-2.5-2.4-5.3-2.2-8.4c0.3-4.7,0.2-9.5,1-14.2c0.6-3.5,0.1-7.1,0.8-10.6
		c0.4-2.2,0.6-4.4,0.9-6.6c0-0.3-0.1-0.8-0.3-1c-0.6-0.4-1.2-0.9-0.8-1.7c0.3-0.5,1-0.8,1.6-1.1c0.5-2.2,2.3-3.7,3.8-5.5
		c1.3-1.5,2.6-3.1,3.9-4.6c0.7-0.8,0.8-1.8,0.5-2.8c-0.7,0-1.4,0-2.2,0c0,0.6-0.1,1.3-0.1,1.9c-0.1,0.9-0.4,1.5-1.4,1.5
		c-0.9,0-1.3-0.7-1.2-1.6c0.1-0.9,0-1.9,0.1-2.8c0.1-1.2,0.5-1.6,1.7-1.6c0.8,0,1.7,0,2.7,0c-0.4-1.5-0.8-2.9-1.3-4.3
		c-0.3-1.2-0.1-1.8,0.7-2.1c0.8-0.2,1.4,0.2,1.8,1.3c0.1,0.3,0.2,0.7,0.4,1c1.2-1.3,1.3-1.8,0.7-3.3c-0.1-0.1-0.1-0.3-0.2-0.4
		c-0.5-0.8-0.8-1.7,0.2-2.3c1-0.6,1.6,0.1,2.2,1.1c0.3-0.6,0.6-1.1,0.7-1.6c0.7-3.7,1.4-7.4,1.9-11.1c0.6-4.2,0.9-8.3,1.4-12.7
		c0,0-0.3,0-0.5-0.2c-0.3-0.4-0.7-0.9-0.7-1.2c0.1-0.4,0.7-1.2,0.9-1.1c1.6,0.2,1.9-0.9,2.3-2c0.2-0.5,0.5-1,0.7-1.5
		c-0.1-0.1-0.1-0.2-0.2-0.3c-0.6-0.7-1-1.5-0.2-2.2c0.8-0.7,1.4-0.2,2.2,0.4c0.6,0.5,1.5,0.7,2.3,0.8c2.6,0.3,5.2,0.4,7.9,0.6
		c0.9,0.1,1.8,0.2,2.5-0.8c-0.6-0.4-1.1-0.8-1.6-1.1c-2.5-1.2-4.7-2.8-6.7-4.7c-0.9-0.9-2-1.4-3.4-1.3c-0.5,0-1.1-0.4-1.4-0.8
		c-0.5-0.9-0.9-1.9-1.2-2.9c-0.3-0.8-0.2-1.6,0.8-1.9c0.9-0.3,1.5,0.2,1.7,1c0.3,1.2,0.9,1.9,2.2,2.2c1.1,0.3,2.2,1.2,3.2,1.8
		c1.9,1.3,3.7,2.6,5.5,3.9c0.6,0.4,1.4,0.7,2,1.2c0.9,0.7,1.8,1.6,1.5,2.8c-0.3,1.4-1.1,2.5-2.5,2.8c-1.4,0.3-2.9,0.2-4.3,0.2
		c-2.5-0.1-4.9-0.4-7.4-0.5c-0.3,0-0.6,0.4-0.8,0.7c-2.1,3.8-2.7,8-3.1,12.2c-0.4,4.3-1,8.6-1.5,12.8c-0.6,4.6-3.3,8.3-5.6,12.2
		c-0.2,0.4-0.3,1-0.3,1.5c0,0.3,0.1,0.6,0.2,0.9c0.7,2.7,0.2,5.1-1.8,7.2c-1.4,1.4-2.6,3.1-4,4.5c-1.5,1.5-2.2,3.3-2.5,5.3
		c-0.4,3.7-1,7.4-1.4,11.1c-0.2,1.7,0.2,3.6-0.2,5.2c-1.3,6.1-1,12.3-1.3,18.5c-0.1,1.4,0.5,2.6,1.2,3.8c0.7,1.1,1.4,2.2,2.1,3.4
		c0.5,1,0.1,2-1,2c-1.9,0-3.8-0.1-5.7-0.2c-0.9-0.1-1.4-0.6-1.2-1.5c0.1-0.9,0.8-1.2,1.7-1.1C-169.4,119.9-168.6,119.9-167.6,120z"
		/>
	<path d="M-185.4,71.7c-0.3-1.6-0.6-3.2-0.9-4.7c-0.2-1,0.1-1.8,0.9-2c0.8-0.2,1.4,0.3,1.7,1.3c0.3,1,0.5,2.1,0.7,3.3
		c0.6-0.2,1.2-0.4,1.8-0.7c0.8-0.4,1.4-0.3,1.9,0.4c0.4,0.7,0.2,1.5-0.7,1.9c-0.8,0.4-1.7,0.7-2.6,1c-0.1,2.6-0.4,2.1,1.9,2.9
		c2.4,0.9,5.6,1.1,7.7,0.5c-0.3-1.4-0.5-2.7-0.8-4.1c-1,0-1.6,0.5-2,1.3c-0.1,0.3-0.3,0.5-0.5,0.7c-0.5,0.7-1.1,0.8-1.8,0.4
		c-0.7-0.4-0.8-1.1-0.4-1.7c0.8-1.5,1.5-3,3.5-3.2c0.3,0,0.7-0.6,0.9-1c0.9-2.3,1.7-4.6,2.6-6.9c0.3-0.8,1-1.1,1.8-0.7
		c0.8,0.4,0.9,1.1,0.5,1.9c-0.4,0.9-0.8,1.8-1.4,3c0.9-0.2,1.6-0.3,2.2-0.5c0.8-0.2,1.5-0.1,2,0.6c0.6,0.7,1.2,1.4,1.8,2.1
		c0.5,0.7,0.6,1.4-0.1,1.9c-0.6,0.5-1.4,0.4-1.8-0.2c-1-1.7-2.4-1.9-4.2-1.3c-0.9,0.3-1.2,0.7-1,1.5c0.1,0.8,0.4,1.6,0.6,2.6
		c0.6-0.3,1.2-0.6,1.8-0.9c0.8-0.4,1.5-0.3,1.9,0.5c0.4,0.8,0.1,1.4-0.6,1.8c-0.1,0-0.1,0.1-0.2,0.1c-0.7,0.4-2.1,0.9-2.1,1.4
		c-0.1,1.3,0.4,2.7,0.6,4.1c0,0.2,0.4,0.3,0.6,0.4c1.1,0.5,1.3,1.5,0.5,2.2c-0.6,0.5-0.7,1-0.8,1.7c-1.4,11.1-0.6,22.2-1.1,33.3
		c0,0.3,0,0.7,0,1c-0.1,0.9-0.7,1.6-1.4,1.4c-0.9-0.1-1.2-0.7-1.2-1.5c0.1-3.1,0.2-6.3,0.2-9.4c0-4.2-0.1-8.3,0-12.5
		c0.2-4.2,0.7-8.4,0.9-12.6c0.1-1.5-0.2-3-0.4-4.7c-3.7,0.5-7.1,0.2-10.3-1.1c-2.6,6.9-5.2,13.6-7.6,20.5c-0.7,2-0.8,4.3-1,6.5
		c-0.2,3.4-0.2,6.9-0.1,10.3c0,0.7,0.4,1.4,0.7,2c0.6,1.1,1.3,2.2,1.9,3.3c0.5,1.1,0,2-1.2,2c-2,0-3.9,0-5.9-0.1
		c-0.9,0-1.6-0.4-1.5-1.5c0.1-0.9,0.7-1.2,1.9-1.1c1.1,0.1,2.2,0.1,3.4,0.2c-0.2-0.4-0.2-0.6-0.3-0.7c-1.3-1.5-1.6-3.2-1.7-5.1
		c-0.1-7.2-0.1-14.3,2.7-21.2c0.3-0.8,0.7-1.6,1-2.5c-0.4,0-0.8,0.1-1,0c-0.5-0.3-1.1-0.6-1.3-1.1c-0.3-0.7,0.2-1.2,1-1.4
		c0.1,0,0.1-0.1,0.2,0c2.1,0.2,2.9-1.1,3.4-2.9c0.1-0.4,0.3-0.8,0.5-1.3c-0.9-0.4-2.2-0.6-1.7-2c0.5-1.4,1.7-0.8,2.9-0.6
		c0.5-2,0.9-3.9,1.4-6.1c-0.9,0.3-1.5,0.4-2.1,0.6c0.1,0.6,0.2,1.1,0.4,1.5c0.2,0.9,0,1.5-0.9,1.7c-0.8,0.2-1.4-0.2-1.6-1
		c-0.2-0.9-0.5-1.8-0.7-2.6c-0.3-0.9,0.1-1.6,1-1.8C-187.9,72.4-186.7,72.1-185.4,71.7z"/>
	<path d="M-194.8,78.2c0.3,1.5,0.5,3.1,0.8,4.6c0,0.2,0.4,0.5,0.7,0.5c0.6,0,1.2-0.1,1.7-0.2c0.8-0.1,1.5,0.1,1.7,0.9
		c0.2,0.9-0.3,1.5-1.2,1.6c-0.9,0.2-1.7,0.2-2.6,0.4c-0.1,1.2-0.3,2.4-0.4,3.6c0,0.2,0.2,0.5,0.3,0.6c0.8,0.4,1.6,0.9,1.1,2
		c-0.5,1-1.4,0.8-2.3,0.4c0,0.4,0,0.8,0,1.1c-0.1,5-0.2,10-0.3,15c-0.1,2.6-0.2,5.3,0.7,7.8c0.3,0.8,0,1.5-0.8,1.7
		c-0.8,0.3-1.4-0.2-1.7-1c-1-2.9-0.9-5.8-0.8-8.8c0.1-5.1,0.2-10.3,0.3-15.4c0-0.4,0-0.9,0.1-1.3c1.9-4.9,1.2-9.7-0.4-14.5
		c-0.7-2.1-1.7-4-2.5-6.1c-0.3-0.8-0.9-1.7,0.1-2.4c0.9-0.7,1.6-0.1,2.2,0.7c0.4-0.5,0.7-0.9,1-1.3c0.6-0.7,1.3-0.8,2-0.2
		c1,0.9,1.9,1.8,2.9,2.7c0.6,0.6,0.7,1.3,0.1,1.9c-0.6,0.6-1.2,0.5-1.9,0c-0.6-0.6-1.2-1.1-1.8-1.7c-1,1.2-1.1,2.7-0.1,3.8
		c0.2,0.2,0.6,0.3,0.9,0.3c1.1,0.2,2.2,0.4,3.3,0.6c0.8,0.1,1.2,0.6,1.3,1.4c0.1,1,0.1,2,0.1,3.1c0,0.8-0.5,1.3-1.2,1.2
		c-0.5-0.1-0.9-0.6-1.3-1c-0.1-0.1-0.1-0.5-0.1-0.7C-193.1,78.3-193.1,78.3-194.8,78.2z"/>
	<path d="M-192,68.6c0.2-1.7,0.3-3.1,0.6-4.5c0.1-0.4,0.6-1,1-1.2c1.1-0.5,2.3-0.9,3.4-1.4c0.8-0.3,1.5-0.2,1.8,0.7
		c0.3,0.8,0,1.4-0.8,1.8c-0.4,0.2-0.8,0.4-1.2,0.5c-1.4,0.3-2.1,1.1-1.9,2.5c0,0.3,0.2,0.7,0.5,0.9c0.4,0.3,0.9,0.4,1.3,0.6
		c0.7,0.3,0.9,0.9,0.7,1.6c-0.3,0.7-0.9,1-1.6,0.8c-1-0.3-2.1-0.7-3-1.3C-191.6,69.4-191.8,68.9-192,68.6z"/>
	<path d="M-178.1,64.5c0-0.9,0-1.7,0-2.6c0-0.8,0.4-1.3,1.2-1.3c0.8-0.1,1.4,0.4,1.4,1.2c0.1,1.3,0.1,2.7,0,4.1
		c0,0.8-0.6,1.2-1.4,1.3c-1.3,0.1-2.6,0.2-3.8,0.2c-0.4,0-1-0.4-1.3-0.8c-0.5-0.9-0.9-1.9-1.3-2.9c-0.3-0.7-0.2-1.4,0.6-1.8
		c0.8-0.4,1.4-0.1,1.8,0.7c0.1,0.3,0.2,0.5,0.4,0.8C-179.9,64.8-179.9,64.8-178.1,64.5z"/>
	<path d="M-164.5,54.8c0.3-1,0.5-1.9,0.7-2.8c0.2-0.8,0.7-1.3,1.6-1.1c0.8,0.1,1.2,0.9,1,1.8c-0.3,1.4-0.7,2.8-1.1,4.2
		c-0.3,1.1-1,1.4-2.1,1c-0.8-0.4-1.7-0.8-2.5-1.2c-0.7-0.4-1.1-1-0.7-1.8c0.4-0.8,1-1,1.8-0.6C-165.4,54.4-165,54.6-164.5,54.8z"/>
	<path d="M-172.2,60c-0.3,0.3-0.5,0.8-0.9,0.9c-0.4,0.1-1.3-0.1-1.4-0.4c-0.8-1.8-1.9-1.8-3.4-0.9c-0.7,0.4-1.3,0-1.6-0.7
		c-0.3-0.7-0.1-1.3,0.6-1.7c1.1-0.5,2.1-1,3.2-1.4c0.4-0.1,1.1,0,1.3,0.3c0.8,1,1.4,2,2.1,3.1C-172.3,59.4-172.3,59.6-172.2,60z"/>
	<path d="M-169.6,56.9c1.5,0,3.9,2,4.2,3.1c0.2,0.6,0.3,1.2,0.5,1.8c0.2,0.8-0.1,1.4-0.9,1.6c-0.8,0.2-1.5-0.2-1.6-0.9
		c-0.2-1.6-1.2-2.4-2.5-3.2c-0.4-0.2-0.6-1-0.6-1.5C-170.4,57.4-169.7,57.1-169.6,56.9z"/>
	<path d="M-156,44.5c1.3,0,2,1,1.4,1.9c-1.1,1.7-2.5,3-4.4,3.6c-0.8,0.3-1.6,0.2-1.9-0.7c-0.3-0.8,0.2-1.3,1.1-1.8
		c1-0.6,1.9-1.4,2.8-2.2C-156.6,45-156.3,44.7-156,44.5z"/>
	<path d="M-158,42.8c-0.9-0.1-1.6-0.4-1.6-1.4c0-1,0.6-1.3,1.4-1.4c1.1-0.2,2.1-0.4,3.2-0.7c0.8-0.2,1.5-0.2,1.9,0.7
		c0.3,0.8,0,1.5-1,1.8C-155.4,42.1-156.7,42.4-158,42.8z"/>
	<path d="M-155,31.7c-0.2-0.2-0.8-0.5-0.9-0.9c-0.1-0.4,0.1-1,0.4-1.4c0.4-0.6,1-1,1.6-1.5c0.5-0.5,1.1-0.7,1.8-0.2
		c0.6,0.5,0.7,1.1,0.3,1.7C-152.3,30.4-153.9,31.7-155,31.7z"/>
	<path d="M-152.7,34.8c0,0.4-0.1,1-0.2,1.5c-0.1,0.8-0.6,1.4-1.5,1.2c-0.9-0.1-1.2-0.7-1.1-1.6c0.1-0.6,0.1-1.3,0.2-2
		c0-0.9,0.4-1.4,1.3-1.5c0.9,0,1.3,0.6,1.4,1.5C-152.6,34.3-152.7,34.5-152.7,34.8z"/>
	<path d="M-152,22.3c-0.2-0.2-0.7-0.6-0.9-1.1c-0.3-0.8,0.7-2.7,1.5-2.8c0.5-0.1,1.2,0.2,1.6,0.5c0.2,0.2,0.2,1,0,1.4
		C-150.4,21-150.3,22.2-152,22.3z"/>
	<path d="M-141,18.3c-0.7,0-1.2-0.4-1.3-1.2c-0.1-0.8,0.8-1.6,1.8-1.6c0.8,0,1.3,0.5,1.3,1.3C-139.2,17.6-139.9,18.3-141,18.3z"/>
	<path d="M-145.2,14.5c0.1-0.8,0.5-1.3,1.3-1.3c0.8,0,1.3,0.5,1.3,1.3c0,0.8-0.5,1.3-1.2,1.3C-144.6,15.8-145.1,15.4-145.2,14.5z"/>
</g>
</svg>
